<svg width="25" height="25" viewBox="0 0 25 25" fill="none" xmlns="http://www.w3.org/2000/svg">
<g clip-path="url(#clip0_2457_17281)">
<path d="M20.6222 16.6364C20.0404 16.4182 19.3859 16.4909 18.804 16.8546L15.3131 18.9637C15.1677 18.8546 15.0222 18.7455 14.8768 18.7091L9.60405 16.8182C9.20405 16.6728 8.76768 16.6728 8.40405 16.8546C8.40405 16.8546 8.36768 16.8546 8.36768 16.8909L6.25859 18.1637V18.0546C6.25859 17.6546 5.93132 17.3273 5.53132 17.3273H3.78587C3.38587 17.3273 3.05859 17.6546 3.05859 18.0546V23.5091C3.05859 23.9091 3.38587 24.2364 3.78587 24.2364H5.49496C5.89496 24.2364 6.22223 23.9091 6.22223 23.5091V23.3273C7.02223 22.8909 7.3495 22.4909 7.89496 22.5637L13.7131 23.8364C14.1859 23.9819 14.695 23.8728 15.1313 23.5819L21.0586 18.8909C21.8586 18.3455 21.7859 17.0728 20.6222 16.6364ZM3.78587 23.5091V18.0546H5.49496V23.5091H3.78587ZM20.6222 18.3091C14.5859 22.8909 14.7313 23.3637 13.895 23.1091L8.04041 21.8364H8.00405C7.16769 21.6909 6.58587 22.2728 6.22223 22.4546V18.9637L8.69496 17.4728C8.91314 17.4 9.13132 17.4 9.3495 17.4728L14.6222 19.3637C15.095 19.5455 15.2768 20.1273 14.9859 20.5273C14.7677 20.8182 14.404 20.9273 14.0404 20.7819L10.9131 19.5819C10.7313 19.5091 10.5131 19.6182 10.4404 19.8C10.3677 19.9819 10.4768 20.2 10.6586 20.2728L13.7859 21.4728C14.4404 21.7637 15.1677 21.5455 15.5677 21C15.8586 20.6 15.9677 20.1273 15.7495 19.5819L19.2041 17.5091C19.5677 17.2909 20.004 17.2182 20.404 17.3637C20.9495 17.5455 20.9859 18.0546 20.6222 18.3091Z" fill="#4676D7" style="fill:#4676D7;fill:color(display-p3 0.2745 0.4627 0.8431);fill-opacity:1;"/>
<path d="M11.7115 13C12.0388 13.2182 12.257 13.5819 12.3297 13.9455C12.0024 14.1273 11.8206 14.491 11.8206 14.8546C11.8206 15.3637 12.1843 15.8 12.6933 15.9091L12.8388 17.0728C12.8752 17.2546 13.0206 17.4 13.2024 17.4H16.0388C16.2206 17.4 16.3661 17.2546 16.4024 17.0728L16.5479 15.8728C16.9843 15.7273 17.3479 15.3273 17.3479 14.8546C17.3479 14.4546 17.1297 14.1273 16.8388 13.9455C16.8752 13.5819 17.0933 13.2182 17.457 12.9637C18.8024 12.0182 19.6388 10.491 19.6388 8.85459C19.6388 6.01823 17.2752 3.72732 14.4024 3.87278C11.8206 3.98187 9.67516 6.20005 9.6388 8.78187C9.52971 10.491 10.3297 12.0546 11.7115 13ZM13.4933 16.7091L13.4206 15.9819H15.7843L15.7115 16.7091H13.4933ZM16.1842 15.2546H12.8752C12.6933 15.2546 12.5115 15.1091 12.5115 14.891C12.5115 14.7091 12.657 14.5273 12.8752 14.5273H16.1842C16.3661 14.5273 16.5479 14.6728 16.5479 14.891C16.5479 15.0728 16.4024 15.2546 16.1842 15.2546ZM14.3297 4.63641C16.7661 4.52732 18.8024 6.49096 18.8024 8.89096C18.8024 10.3091 18.1115 11.6182 16.9479 12.4182C16.4388 12.7455 16.1115 13.2546 16.0388 13.8364H13.057C12.9843 13.291 12.657 12.7819 12.1479 12.4182C10.9843 11.6182 10.2933 10.2728 10.2933 8.85459C10.3297 6.63641 12.1479 4.7455 14.3297 4.63641Z" fill="#4676D7" style="fill:#4676D7;fill:color(display-p3 0.2745 0.4627 0.8431);fill-opacity:1;"/>
<path d="M14.4416 6.45453C15.8234 6.3818 16.9871 7.50908 16.9871 8.8909C16.9871 9.10908 17.1325 9.25453 17.3507 9.25453C17.5689 9.25453 17.7143 9.10908 17.7143 8.8909C17.7143 7.10908 16.2234 5.65453 14.4053 5.72726C14.1871 5.72726 14.0416 5.90908 14.0416 6.0909C14.0416 6.30908 14.2234 6.45453 14.4416 6.45453ZM14.5507 3.10908C14.7689 3.10908 14.9143 2.96362 14.9143 2.74544V1.32726C14.9143 1.10908 14.7689 0.963623 14.5507 0.963623C14.3325 0.963623 14.1871 1.10908 14.1871 1.32726V2.74544C14.1871 2.96362 14.3325 3.10908 14.5507 3.10908ZM11.9689 3.2909C12.0416 3.43635 12.1507 3.50908 12.2962 3.50908C12.3325 3.50908 12.4053 3.50908 12.4416 3.47271C12.6234 3.39999 12.7325 3.1818 12.6234 2.99999L12.078 1.6909C12.0053 1.50908 11.7871 1.39999 11.6053 1.50908C11.4234 1.5818 11.3143 1.79999 11.4234 1.9818L11.9689 3.2909ZM10.1507 4.67271C10.2962 4.81817 10.5143 4.81817 10.6598 4.67271C10.8053 4.52726 10.8053 4.30908 10.6598 4.16362L9.64162 3.14544C9.49616 2.99999 9.27798 2.99999 9.13253 3.14544C8.98707 3.2909 8.98707 3.50908 9.13253 3.65453L10.1507 4.67271ZM18.9143 4.78181L19.9325 3.76362C20.078 3.61817 20.078 3.39999 19.9325 3.25453C19.7871 3.10908 19.5689 3.10908 19.4234 3.25453L18.4053 4.23635C18.2598 4.3818 18.2598 4.59999 18.4053 4.74544C18.5143 4.8909 18.7689 4.8909 18.9143 4.78181ZM16.6234 3.54544C16.6598 3.5818 16.7325 3.5818 16.7689 3.5818C16.9143 3.5818 17.0598 3.50908 17.0962 3.36362L17.6416 2.05453C17.7143 1.87271 17.6416 1.65453 17.4598 1.5818C17.278 1.50908 17.0598 1.5818 16.9871 1.76362L16.4416 3.07271C16.3689 3.25453 16.4416 3.47271 16.6234 3.54544Z" fill="#4676D7" style="fill:#4676D7;fill:color(display-p3 0.2745 0.4627 0.8431);fill-opacity:1;"/>
</g>
<defs>
<clipPath id="clip0_2457_17281">
<rect width="24" height="24" fill="white" style="fill:white;fill-opacity:1;" transform="translate(0.332031 0.600098)"/>
</clipPath>
</defs>
</svg>
