<svg width="541" height="204" viewBox="0 0 541 204" fill="none" xmlns="http://www.w3.org/2000/svg">
<rect x="68" y="1" width="118" height="46" rx="23" stroke="#9C25A0" style="stroke:#9C25A0;stroke:color(display-p3 0.6118 0.1451 0.6275);stroke-opacity:1;" stroke-width="2"/>
<rect x="192" y="1" width="46" height="46" rx="23" stroke="#667085" style="stroke:#667085;stroke:color(display-p3 0.4000 0.4392 0.5216);stroke-opacity:1;" stroke-width="2"/>
<path d="M223.847 26.8556L219.431 24.8766L219.418 24.8709C219.189 24.7729 218.939 24.7335 218.691 24.7564C218.442 24.7793 218.204 24.8638 217.996 25.0022C217.972 25.0183 217.948 25.0358 217.926 25.0547L215.644 27C214.198 26.2978 212.706 24.8166 212.004 23.3897L213.952 21.0731C213.971 21.0497 213.988 21.0262 214.005 21.0009C214.141 20.794 214.223 20.5569 214.244 20.3105C214.266 20.0642 214.226 19.8164 214.129 19.5891V19.5778L212.144 15.1537C212.016 14.8568 211.794 14.6094 211.514 14.4486C211.233 14.2877 210.907 14.222 210.586 14.2612C209.316 14.4284 208.15 15.0523 207.306 16.0163C206.462 16.9804 205.998 18.2187 206 19.5C206 26.9437 212.056 33 219.5 33C220.781 33.0023 222.02 32.5381 222.984 31.6941C223.948 30.8501 224.572 29.6841 224.739 28.4137C224.778 28.0926 224.712 27.7674 224.552 27.4866C224.391 27.2058 224.144 26.9845 223.847 26.8556ZM219.5 31.5C216.318 31.4965 213.268 30.2311 211.019 27.9814C208.769 25.7318 207.503 22.6815 207.5 19.5C207.496 18.5845 207.826 17.6991 208.428 17.009C209.029 16.3189 209.862 15.8714 210.769 15.75C210.769 15.7537 210.769 15.7575 210.769 15.7612L212.738 20.1675L210.8 22.4869C210.78 22.5095 210.762 22.5336 210.747 22.5591C210.605 22.7755 210.523 23.0248 210.506 23.2827C210.49 23.5406 210.54 23.7983 210.653 24.0309C211.502 25.7681 213.253 27.5053 215.008 28.3537C215.243 28.4652 215.502 28.5139 215.761 28.4952C216.02 28.4764 216.269 28.3909 216.485 28.2469C216.509 28.2307 216.532 28.2131 216.554 28.1944L218.833 26.25L223.24 28.2234C223.24 28.2234 223.247 28.2234 223.25 28.2234C223.13 29.1321 222.683 29.966 221.993 30.5691C221.303 31.1721 220.417 31.5031 219.5 31.5Z" fill="#1E1E1E" style="fill:#1E1E1E;fill:color(display-p3 0.1176 0.1176 0.1176);fill-opacity:1;"/>
<rect x="244" y="1" width="362" height="46" rx="23" stroke="#9C25A0" style="stroke:#9C25A0;stroke:color(display-p3 0.6118 0.1451 0.6275);stroke-opacity:1;" stroke-width="2"/>
<rect x="42" y="53" width="46" height="46" rx="23" stroke="#667085" style="stroke:#667085;stroke:color(display-p3 0.4000 0.4392 0.5216);stroke-opacity:1;" stroke-width="2"/>
<path d="M65.375 66.25C62.8894 66.2527 60.5065 67.2413 58.7489 68.9989C56.9913 70.7565 56.0027 73.1394 56 75.625V83.5309C56.0005 83.9204 56.1554 84.2938 56.4308 84.5692C56.7062 84.8446 57.0796 84.9995 57.4691 85H65.375C67.8614 85 70.246 84.0123 72.0041 82.2541C73.7623 80.496 74.75 78.1114 74.75 75.625C74.75 73.1386 73.7623 70.754 72.0041 68.9959C70.246 67.2377 67.8614 66.25 65.375 66.25ZM65.375 83.5H57.5V75.625C57.5 74.0675 57.9619 72.5449 58.8272 71.2499C59.6925 69.9548 60.9224 68.9455 62.3614 68.3494C63.8003 67.7534 65.3837 67.5975 66.9113 67.9013C68.4389 68.2052 69.8421 68.9552 70.9435 70.0565C72.0448 71.1579 72.7948 72.5611 73.0987 74.0887C73.4025 75.6163 73.2466 77.1997 72.6506 78.6386C72.0545 80.0776 71.0452 81.3075 69.7501 82.1728C68.4551 83.0381 66.9325 83.5 65.375 83.5ZM66.5 76C66.5 76.2225 66.434 76.44 66.3104 76.625C66.1868 76.81 66.0111 76.9542 65.8055 77.0394C65.6 77.1245 65.3738 77.1468 65.1555 77.1034C64.9373 77.06 64.7368 76.9528 64.5795 76.7955C64.4222 76.6382 64.315 76.4377 64.2716 76.2195C64.2282 76.0012 64.2505 75.775 64.3356 75.5695C64.4208 75.3639 64.565 75.1882 64.75 75.0646C64.935 74.941 65.1525 74.875 65.375 74.875C65.6734 74.875 65.9595 74.9935 66.1705 75.2045C66.3815 75.4155 66.5 75.7016 66.5 76ZM62.375 76C62.375 76.2225 62.309 76.44 62.1854 76.625C62.0618 76.81 61.8861 76.9542 61.6805 77.0394C61.475 77.1245 61.2488 77.1468 61.0305 77.1034C60.8123 77.06 60.6118 76.9528 60.4545 76.7955C60.2972 76.6382 60.19 76.4377 60.1466 76.2195C60.1032 76.0012 60.1255 75.775 60.2106 75.5695C60.2958 75.3639 60.44 75.1882 60.625 75.0646C60.81 74.941 61.0275 74.875 61.25 74.875C61.5484 74.875 61.8345 74.9935 62.0455 75.2045C62.2565 75.4155 62.375 75.7016 62.375 76ZM70.625 76C70.625 76.2225 70.559 76.44 70.4354 76.625C70.3118 76.81 70.1361 76.9542 69.9305 77.0394C69.725 77.1245 69.4988 77.1468 69.2805 77.1034C69.0623 77.06 68.8618 76.9528 68.7045 76.7955C68.5472 76.6382 68.44 76.4377 68.3966 76.2195C68.3532 76.0012 68.3755 75.775 68.4606 75.5695C68.5458 75.3639 68.69 75.1882 68.875 75.0646C69.06 74.941 69.2775 74.875 69.5 74.875C69.7984 74.875 70.0845 74.9935 70.2955 75.2045C70.5065 75.4155 70.625 75.7016 70.625 76Z" fill="#1E1E1E" style="fill:#1E1E1E;fill:color(display-p3 0.1176 0.1176 0.1176);fill-opacity:1;"/>
<rect x="94" y="53" width="97" height="46" rx="23" stroke="#9C25A0" style="stroke:#9C25A0;stroke:color(display-p3 0.6118 0.1451 0.6275);stroke-opacity:1;" stroke-width="2"/>
<path d="M109.676 76.368C109.676 75.2587 109.916 74.272 110.396 73.408C110.876 72.5333 111.543 71.856 112.396 71.376C113.26 70.8853 114.236 70.64 115.324 70.64C116.658 70.64 117.799 70.992 118.748 71.696C119.698 72.4 120.332 73.36 120.652 74.576H117.644C117.42 74.1067 117.1 73.7493 116.684 73.504C116.279 73.2587 115.815 73.136 115.292 73.136C114.45 73.136 113.767 73.4293 113.244 74.016C112.722 74.6027 112.46 75.3867 112.46 76.368C112.46 77.3493 112.722 78.1333 113.244 78.72C113.767 79.3067 114.45 79.6 115.292 79.6C115.815 79.6 116.279 79.4773 116.684 79.232C117.1 78.9867 117.42 78.6293 117.644 78.16H120.652C120.332 79.376 119.698 80.336 118.748 81.04C117.799 81.7333 116.658 82.08 115.324 82.08C114.236 82.08 113.26 81.84 112.396 81.36C111.543 80.8693 110.876 80.192 110.396 79.328C109.916 78.464 109.676 77.4773 109.676 76.368ZM126.392 82.128C125.517 82.128 124.728 81.9413 124.024 81.568C123.331 81.1947 122.781 80.6613 122.376 79.968C121.981 79.2747 121.784 78.464 121.784 77.536C121.784 76.6187 121.987 75.8133 122.392 75.12C122.797 74.416 123.352 73.8773 124.056 73.504C124.76 73.1307 125.549 72.944 126.424 72.944C127.299 72.944 128.088 73.1307 128.792 73.504C129.496 73.8773 130.051 74.416 130.456 75.12C130.861 75.8133 131.064 76.6187 131.064 77.536C131.064 78.4533 130.856 79.264 130.44 79.968C130.035 80.6613 129.475 81.1947 128.76 81.568C128.056 81.9413 127.267 82.128 126.392 82.128ZM126.392 79.76C126.915 79.76 127.357 79.568 127.72 79.184C128.093 78.8 128.28 78.2507 128.28 77.536C128.28 76.8213 128.099 76.272 127.736 75.888C127.384 75.504 126.947 75.312 126.424 75.312C125.891 75.312 125.448 75.504 125.096 75.888C124.744 76.2613 124.568 76.8107 124.568 77.536C124.568 78.2507 124.739 78.8 125.08 79.184C125.432 79.568 125.869 79.76 126.392 79.76ZM137.955 72.976C139.001 72.976 139.833 73.3173 140.451 74C141.081 74.672 141.395 75.6 141.395 76.784V82H138.675V77.152C138.675 76.5547 138.521 76.0907 138.211 75.76C137.902 75.4293 137.486 75.264 136.963 75.264C136.441 75.264 136.025 75.4293 135.715 75.76C135.406 76.0907 135.251 76.5547 135.251 77.152V82H132.515V73.072H135.251V74.256C135.529 73.8613 135.902 73.552 136.371 73.328C136.841 73.0933 137.369 72.976 137.955 72.976ZM148.273 79.68V82H146.881C145.889 82 145.115 81.76 144.561 81.28C144.006 80.7893 143.729 79.9947 143.729 78.896V75.344H142.641V73.072H143.729V70.896H146.465V73.072H148.257V75.344H146.465V78.928C146.465 79.1947 146.529 79.3867 146.657 79.504C146.785 79.6213 146.998 79.68 147.297 79.68H148.273ZM149.253 77.52C149.253 76.6027 149.423 75.7973 149.765 75.104C150.117 74.4107 150.591 73.8773 151.189 73.504C151.786 73.1307 152.453 72.944 153.189 72.944C153.818 72.944 154.367 73.072 154.837 73.328C155.317 73.584 155.685 73.92 155.941 74.336V73.072H158.677V82H155.941V80.736C155.674 81.152 155.301 81.488 154.821 81.744C154.351 82 153.802 82.128 153.173 82.128C152.447 82.128 151.786 81.9413 151.189 81.568C150.591 81.184 150.117 80.6453 149.765 79.952C149.423 79.248 149.253 78.4373 149.253 77.52ZM155.941 77.536C155.941 76.8533 155.749 76.3147 155.365 75.92C154.991 75.5253 154.533 75.328 153.989 75.328C153.445 75.328 152.981 75.5253 152.597 75.92C152.223 76.304 152.037 76.8373 152.037 77.52C152.037 78.2027 152.223 78.7467 152.597 79.152C152.981 79.5467 153.445 79.744 153.989 79.744C154.533 79.744 154.991 79.5467 155.365 79.152C155.749 78.7573 155.941 78.2187 155.941 77.536ZM160.112 77.536C160.112 76.608 160.299 75.7973 160.672 75.104C161.056 74.4107 161.584 73.8773 162.256 73.504C162.939 73.1307 163.717 72.944 164.592 72.944C165.712 72.944 166.645 73.2373 167.392 73.824C168.149 74.4107 168.645 75.2373 168.88 76.304H165.968C165.723 75.6213 165.248 75.28 164.544 75.28C164.043 75.28 163.643 75.4773 163.344 75.872C163.045 76.256 162.896 76.8107 162.896 77.536C162.896 78.2613 163.045 78.8213 163.344 79.216C163.643 79.6 164.043 79.792 164.544 79.792C165.248 79.792 165.723 79.4507 165.968 78.768H168.88C168.645 79.8133 168.149 80.6347 167.392 81.232C166.635 81.8293 165.701 82.128 164.592 82.128C163.717 82.128 162.939 81.9413 162.256 81.568C161.584 81.1947 161.056 80.6613 160.672 79.968C160.299 79.2747 160.112 78.464 160.112 77.536ZM175.32 79.68V82H173.928C172.936 82 172.162 81.76 171.608 81.28C171.053 80.7893 170.776 79.9947 170.776 78.896V75.344H169.688V73.072H170.776V70.896H173.512V73.072H175.304V75.344H173.512V78.928C173.512 79.1947 173.576 79.3867 173.704 79.504C173.832 79.6213 174.045 79.68 174.344 79.68H175.32Z" fill="#1E1E1E" style="fill:#1E1E1E;fill:color(display-p3 0.1176 0.1176 0.1176);fill-opacity:1;"/>
<rect x="197" y="53" width="195" height="46" rx="23" stroke="#9C25A0" style="stroke:#9C25A0;stroke:color(display-p3 0.6118 0.1451 0.6275);stroke-opacity:1;" stroke-width="2"/>
<rect x="398" y="53" width="46" height="46" rx="23" stroke="#667085" style="stroke:#667085;stroke:color(display-p3 0.4000 0.4392 0.5216);stroke-opacity:1;" stroke-width="2"/>
<path d="M430 68.5H412C411.801 68.5 411.61 68.579 411.47 68.7197C411.329 68.8603 411.25 69.0511 411.25 69.25V82C411.25 82.3978 411.408 82.7794 411.689 83.0607C411.971 83.342 412.352 83.5 412.75 83.5H429.25C429.648 83.5 430.029 83.342 430.311 83.0607C430.592 82.7794 430.75 82.3978 430.75 82V69.25C430.75 69.0511 430.671 68.8603 430.53 68.7197C430.39 68.579 430.199 68.5 430 68.5ZM421 76.4828L413.928 70H428.072L421 76.4828ZM418.254 76L412.75 81.0447V70.9553L418.254 76ZM419.364 77.0172L420.489 78.0531C420.627 78.1801 420.808 78.2506 420.996 78.2506C421.184 78.2506 421.365 78.1801 421.503 78.0531L422.628 77.0172L428.066 82H413.928L419.364 77.0172ZM423.746 76L429.25 70.9544V81.0456L423.746 76Z" fill="#1E1E1E" style="fill:#1E1E1E;fill:color(display-p3 0.1176 0.1176 0.1176);fill-opacity:1;"/>
<rect x="450" y="53" width="182" height="46" rx="23" stroke="#9C25A0" style="stroke:#9C25A0;stroke:color(display-p3 0.6118 0.1451 0.6275);stroke-opacity:1;" stroke-width="2"/>
<rect x="1" y="105" width="195" height="46" rx="23" stroke="#9C25A0" style="stroke:#9C25A0;stroke:color(display-p3 0.6118 0.1451 0.6275);stroke-opacity:1;" stroke-width="2"/>
<rect x="202" y="105" width="51" height="46" rx="23" stroke="#9C25A0" style="stroke:#9C25A0;stroke:color(display-p3 0.6118 0.1451 0.6275);stroke-opacity:1;" stroke-width="2"/>
<path d="M221.078 122.768V129.488C221.078 130.16 221.244 130.677 221.574 131.04C221.905 131.403 222.39 131.584 223.03 131.584C223.67 131.584 224.161 131.403 224.502 131.04C224.844 130.677 225.014 130.16 225.014 129.488V122.768H227.75V129.472C227.75 130.475 227.537 131.323 227.11 132.016C226.684 132.709 226.108 133.232 225.382 133.584C224.668 133.936 223.868 134.112 222.982 134.112C222.097 134.112 221.302 133.941 220.598 133.6C219.905 133.248 219.356 132.725 218.95 132.032C218.545 131.328 218.342 130.475 218.342 129.472V122.768H221.078ZM233.304 134.128C232.525 134.128 231.832 133.995 231.224 133.728C230.616 133.461 230.136 133.099 229.784 132.64C229.432 132.171 229.234 131.648 229.192 131.072H231.896C231.928 131.381 232.072 131.632 232.328 131.824C232.584 132.016 232.898 132.112 233.272 132.112C233.613 132.112 233.874 132.048 234.056 131.92C234.248 131.781 234.344 131.605 234.344 131.392C234.344 131.136 234.21 130.949 233.944 130.832C233.677 130.704 233.245 130.565 232.648 130.416C232.008 130.267 231.474 130.112 231.048 129.952C230.621 129.781 230.253 129.52 229.944 129.168C229.634 128.805 229.48 128.32 229.48 127.712C229.48 127.2 229.618 126.736 229.896 126.32C230.184 125.893 230.6 125.557 231.144 125.312C231.698 125.067 232.354 124.944 233.112 124.944C234.232 124.944 235.112 125.221 235.752 125.776C236.402 126.331 236.776 127.067 236.872 127.984H234.344C234.301 127.675 234.162 127.429 233.928 127.248C233.704 127.067 233.405 126.976 233.032 126.976C232.712 126.976 232.466 127.04 232.296 127.168C232.125 127.285 232.04 127.451 232.04 127.664C232.04 127.92 232.173 128.112 232.44 128.24C232.717 128.368 233.144 128.496 233.72 128.624C234.381 128.795 234.92 128.965 235.336 129.136C235.752 129.296 236.114 129.563 236.424 129.936C236.744 130.299 236.909 130.789 236.92 131.408C236.92 131.931 236.77 132.4 236.472 132.816C236.184 133.221 235.762 133.541 235.208 133.776C234.664 134.011 234.029 134.128 233.304 134.128Z" fill="#1E1E1E" style="fill:#1E1E1E;fill:color(display-p3 0.1176 0.1176 0.1176);fill-opacity:1;"/>
<rect x="259" y="105" width="46" height="46" rx="23" stroke="#667085" style="stroke:#667085;stroke:color(display-p3 0.4000 0.4392 0.5216);stroke-opacity:1;" stroke-width="2"/>
<path d="M291.312 118.689C291.123 118.5 290.888 118.365 290.63 118.298C290.372 118.231 290.1 118.234 289.844 118.306H289.83L271.835 123.766C271.543 123.85 271.282 124.022 271.089 124.258C270.896 124.494 270.78 124.783 270.755 125.087C270.73 125.39 270.799 125.694 270.951 125.958C271.104 126.222 271.333 126.433 271.609 126.564L279.635 130.365L283.437 138.392C283.557 138.649 283.748 138.867 283.988 139.019C284.227 139.171 284.505 139.251 284.789 139.25C284.832 139.25 284.875 139.248 284.918 139.244C285.221 139.22 285.509 139.103 285.744 138.91C285.978 138.718 286.148 138.458 286.231 138.165L291.687 120.171C291.687 120.166 291.687 120.162 291.687 120.157C291.76 119.901 291.764 119.63 291.698 119.372C291.633 119.114 291.499 118.878 291.312 118.689ZM284.797 137.736L284.793 137.749L281.103 129.959L285.531 125.53C285.666 125.388 285.74 125.199 285.738 125.004C285.735 124.808 285.656 124.621 285.518 124.483C285.38 124.344 285.193 124.266 284.997 124.263C284.802 124.261 284.613 124.335 284.471 124.469L280.041 128.898L272.251 125.208H272.264L290.251 119.75L284.797 137.736Z" fill="#1E1E1E" style="fill:#1E1E1E;fill:color(display-p3 0.1176 0.1176 0.1176);fill-opacity:1;"/>
<rect x="311" y="105" width="362" height="46" rx="23" stroke="#9C25A0" style="stroke:#9C25A0;stroke:color(display-p3 0.6118 0.1451 0.6275);stroke-opacity:1;" stroke-width="2"/>
<rect x="113" y="157" width="46" height="46" rx="23" stroke="#667085" style="stroke:#667085;stroke:color(display-p3 0.4000 0.4392 0.5216);stroke-opacity:1;" stroke-width="2"/>
<path d="M145.729 185.562C146.258 184.487 146.522 183.301 146.498 182.103C146.474 180.905 146.163 179.73 145.592 178.676C145.021 177.623 144.206 176.722 143.215 176.048C142.224 175.375 141.086 174.949 139.896 174.805C139.501 173.886 138.927 173.054 138.206 172.36C137.485 171.666 136.632 171.123 135.698 170.763C134.764 170.403 133.768 170.234 132.768 170.266C131.767 170.297 130.783 170.529 129.874 170.946C128.964 171.364 128.148 171.959 127.472 172.697C126.796 173.435 126.275 174.301 125.939 175.244C125.603 176.187 125.459 177.187 125.515 178.186C125.572 179.186 125.828 180.163 126.268 181.062L125.55 183.577C125.486 183.801 125.483 184.039 125.542 184.266C125.601 184.492 125.719 184.699 125.884 184.864C126.05 185.03 126.256 185.148 126.483 185.207C126.709 185.265 126.947 185.263 127.172 185.198L129.686 184.48C130.445 184.853 131.261 185.095 132.101 185.196C132.501 186.133 133.087 186.979 133.825 187.682C134.563 188.384 135.436 188.93 136.392 189.284C137.347 189.638 138.365 189.794 139.383 189.742C140.4 189.689 141.397 189.43 142.311 188.98L144.825 189.698C145.05 189.763 145.288 189.765 145.515 189.707C145.741 189.648 145.948 189.53 146.113 189.364C146.278 189.199 146.396 188.992 146.455 188.766C146.514 188.539 146.511 188.301 146.447 188.077L145.729 185.562ZM129.767 182.928C129.697 182.928 129.628 182.937 129.561 182.956L127.085 183.664L127.793 181.188C127.846 180.999 127.823 180.797 127.729 180.625C127.039 179.359 126.829 177.887 127.137 176.479C127.444 175.07 128.249 173.82 129.404 172.956C130.558 172.093 131.985 171.674 133.423 171.778C134.861 171.881 136.214 172.499 137.233 173.518C138.253 174.538 138.871 175.89 138.974 177.328C139.077 178.766 138.659 180.193 137.795 181.348C136.932 182.502 135.681 183.307 134.273 183.615C132.864 183.922 131.392 183.712 130.126 183.022C130.016 182.961 129.893 182.929 129.767 182.928ZM144.205 185.688L144.912 188.164L142.436 187.456C142.248 187.403 142.046 187.426 141.874 187.52C140.491 188.272 138.869 188.451 137.355 188.019C135.842 187.587 134.559 186.578 133.781 185.21C134.808 185.103 135.802 184.785 136.701 184.275C137.599 183.766 138.382 183.077 139.001 182.251C139.621 181.425 140.063 180.479 140.299 179.474C140.536 178.469 140.562 177.426 140.377 176.41C141.275 176.622 142.113 177.038 142.825 177.627C143.536 178.215 144.102 178.96 144.479 179.803C144.855 180.646 145.032 181.565 144.996 182.487C144.959 183.41 144.71 184.312 144.268 185.122C144.174 185.295 144.151 185.498 144.205 185.688Z" fill="#1E1E1E" style="fill:#1E1E1E;fill:color(display-p3 0.1176 0.1176 0.1176);fill-opacity:1;"/>
<rect x="165" y="157" width="195" height="46" rx="23" stroke="#9C25A0" style="stroke:#9C25A0;stroke:color(display-p3 0.6118 0.1451 0.6275);stroke-opacity:1;" stroke-width="2"/>
<rect x="366" y="157" width="195" height="46" rx="23" stroke="#9C25A0" style="stroke:#9C25A0;stroke:color(display-p3 0.6118 0.1451 0.6275);stroke-opacity:1;" stroke-width="2"/>
</svg>
