<svg width="28" height="28" viewBox="0 0 28 28" fill="none" xmlns="http://www.w3.org/2000/svg">
<path d="M24.8364 16.2167L20.9981 14L24.8364 11.7834C25.3964 11.4567 25.5831 10.745 25.2681 10.185L22.9347 6.14837C22.6081 5.58837 21.8964 5.40171 21.3364 5.71671L17.4981 7.93337V3.50004C17.4981 2.85837 16.9731 2.33337 16.3314 2.33337H11.6647C11.0231 2.33337 10.4981 2.85837 10.4981 3.50004V7.93337L6.65974 5.71671C6.09974 5.40171 5.38807 5.58837 5.0614 6.14837L2.72807 10.185C2.4014 10.745 2.59974 11.4567 3.15974 11.7834L6.99807 14L3.15974 16.2167C2.59974 16.5434 2.41307 17.255 2.72807 17.815L5.0614 21.8517C5.38807 22.4117 6.09974 22.5984 6.65974 22.2834L10.4981 20.0667V24.5C10.4981 25.1417 11.0231 25.6667 11.6647 25.6667H16.3314C16.9731 25.6667 17.4981 25.1417 17.4981 24.5V20.0667L21.3364 22.2834C21.8964 22.61 22.6081 22.4117 22.9347 21.8517L25.2681 17.815C25.5947 17.255 25.3964 16.5434 24.8364 16.2167ZM21.4997 19.6817L16.0397 16.5317C15.6547 16.2984 15.1647 16.5784 15.1647 17.0334V23.3334H12.8314V17.0334C12.8314 16.59 12.3414 16.2984 11.9564 16.5317L6.4964 19.6817L5.32974 17.6634L10.7897 14.5134C11.1747 14.2917 11.1747 13.7317 10.7897 13.4984L5.32974 10.3484L6.4964 8.33004L11.9564 11.48C12.3414 11.7017 12.8314 11.4217 12.8314 10.9667V4.66671H15.1647V10.9667C15.1647 11.41 15.6547 11.7017 16.0397 11.4684L21.4997 8.31837L22.6664 10.3367L17.2064 13.4867C16.8214 13.7084 16.8214 14.2684 17.2064 14.5017L22.6664 17.6517L21.4997 19.6817Z" fill="#4676D7" style="fill:#4676D7;fill:color(display-p3 0.2745 0.4627 0.8431);fill-opacity:1;"/>
</svg>
