<svg width="21" height="21" viewBox="0 0 21 21" fill="none" xmlns="http://www.w3.org/2000/svg">
<path d="M10.332 0.600098C4.83203 0.600098 0.332031 5.1001 0.332031 10.6001C0.332031 16.1001 4.83203 20.6001 10.332 20.6001C15.832 20.6001 20.332 16.1001 20.332 10.6001C20.332 5.1001 15.832 0.600098 10.332 0.600098ZM14.632 8.2001L10.032 14.2001C9.83203 14.4001 9.53203 14.6001 9.23203 14.6001C8.93203 14.6001 8.63203 14.5001 8.43203 14.2001L6.03203 11.1001C5.73203 10.7001 5.73203 10.0001 6.23203 9.7001C6.73203 9.4001 7.33203 9.4001 7.63203 9.9001L9.23203 12.0001L13.032 7.0001C13.332 6.6001 14.032 6.5001 14.432 6.8001C14.932 7.1001 14.932 7.7001 14.632 8.2001Z" fill="#2D63CF" style="fill:#2D63CF;fill:color(display-p3 0.1765 0.3882 0.8118);fill-opacity:1;"/>
</svg>
