<svg width="42" height="39" viewBox="0 0 42 39" fill="none" xmlns="http://www.w3.org/2000/svg">
<path d="M40.9462 31.1395C40.9462 33.4574 40.1936 35.3721 38.6882 36.8837C37.2832 38.2946 35.4265 39 33.1183 39C30.81 39 28.9032 38.1938 27.3978 36.5814C25.8925 34.969 25.1398 32.6008 25.1398 29.4767C25.1398 25.5465 26.3441 20.9612 28.7527 15.7209C31.2617 10.4806 34.6237 5.24031 38.8387 0L42 2.8721C38.8889 7.00388 36.6308 10.7326 35.2258 14.0581C33.8208 17.283 33.0179 20.3566 32.8172 23.2791H33.1183C35.4265 23.2791 37.2832 24.0349 38.6882 25.5465C40.1936 26.9574 40.9462 28.8217 40.9462 31.1395ZM15.6559 31.1395C15.6559 33.4574 14.9534 35.3721 13.5484 36.8837C12.1434 38.2946 10.2867 39 7.9785 39C5.67025 39 3.76344 38.1938 2.25806 36.5814C0.752688 34.969 0 32.6008 0 29.4767C0 25.5465 1.2043 20.9612 3.6129 15.7209C6.02151 10.4806 9.33333 5.24031 13.5484 0L16.8602 2.8721C13.7491 7.00388 11.4409 10.7326 9.93548 14.0581C8.53047 17.283 7.7276 20.3566 7.52688 23.2791H7.9785C10.2867 23.2791 12.1434 24.0349 13.5484 25.5465C14.9534 26.9574 15.6559 28.8217 15.6559 31.1395Z" fill="#DFE0E2" style="fill:#DFE0E2;fill:color(display-p3 0.8745 0.8784 0.8863);fill-opacity:1;"/>
</svg>
