<svg width="100" height="100" viewBox="0 0 100 100" fill="none" xmlns="http://www.w3.org/2000/svg">
<path d="M18.4893 22.6273H57.6299" stroke="#2A4488" style="stroke:#2A4488;stroke:color(display-p3 0.1647 0.2667 0.5333);stroke-opacity:1;" stroke-width="2"/>
<path d="M57.6299 22.6272H18.4893" stroke="#2A4488" style="stroke:#2A4488;stroke:color(display-p3 0.1647 0.2667 0.5333);stroke-opacity:1;" stroke-width="2" stroke-miterlimit="10" stroke-linecap="round" stroke-linejoin="round"/>
<mask id="mask0_2090_31030" style="mask-type:luminance" maskUnits="userSpaceOnUse" x="10" y="10" width="80" height="80">
<path d="M10 10.0001H89.9998V89.9999H10V10.0001Z" fill="white" style="fill:white;fill-opacity:1;"/>
</mask>
<g mask="url(#mask0_2090_31030)">
<path d="M88.8279 65.6356V81.0803C88.8279 82.9031 87.3502 84.3807 85.5274 84.3807H14.4723C12.6495 84.3807 11.1719 82.9031 11.1719 81.0803V18.9198C11.1719 17.097 12.6495 15.6194 14.4723 15.6194H85.5274C87.3502 15.6194 88.8279 17.097 88.8279 18.9198V60.1571" stroke="#2A4488" style="stroke:#2A4488;stroke:color(display-p3 0.1647 0.2667 0.5333);stroke-opacity:1;" stroke-width="2" stroke-miterlimit="10" stroke-linecap="round" stroke-linejoin="round"/>
<path d="M20.9014 29.6355H88.8274" stroke="#2A4488" style="stroke:#2A4488;stroke:color(display-p3 0.1647 0.2667 0.5333);stroke-opacity:1;" stroke-width="2" stroke-miterlimit="10" stroke-linecap="round" stroke-linejoin="round"/>
<path d="M11.1719 29.6355H15.4234" stroke="#2A4488" style="stroke:#2A4488;stroke:color(display-p3 0.1647 0.2667 0.5333);stroke-opacity:1;" stroke-width="2" stroke-miterlimit="10" stroke-linecap="round" stroke-linejoin="round"/>
<path d="M81.2687 22.6325C81.2687 24.2042 79.9946 25.4783 78.4229 25.4783C76.8514 25.4783 75.5771 24.2042 75.5771 22.6325C75.5771 21.0608 76.8514 19.7867 78.4229 19.7867C79.9946 19.7867 81.2687 21.0608 81.2687 22.6325Z" stroke="#2A4488" style="stroke:#2A4488;stroke:color(display-p3 0.1647 0.2667 0.5333);stroke-opacity:1;" stroke-width="2" stroke-miterlimit="10" stroke-linecap="round" stroke-linejoin="round"/>
<path d="M69.8576 22.6325C69.8576 24.2042 68.5835 25.4783 67.0118 25.4783C65.4402 25.4783 64.166 24.2042 64.166 22.6325C64.166 21.0608 65.4402 19.7867 67.0118 19.7867C68.5835 19.7867 69.8576 21.0608 69.8576 22.6325Z" stroke="#2A4488" style="stroke:#2A4488;stroke:color(display-p3 0.1647 0.2667 0.5333);stroke-opacity:1;" stroke-width="2" stroke-miterlimit="10" stroke-linecap="round" stroke-linejoin="round"/>
<path d="M64.9131 44.761H81.8369H64.9131Z" fill="#2A4488" style="fill:#2A4488;fill:color(display-p3 0.1647 0.2667 0.5333);fill-opacity:1;"/>
<path d="M64.9131 44.761H81.8369" stroke="#2A4488" style="stroke:#2A4488;stroke:color(display-p3 0.1647 0.2667 0.5333);stroke-opacity:1;" stroke-width="2" stroke-miterlimit="10" stroke-linecap="round" stroke-linejoin="round"/>
<path d="M57.0459 44.761H60.3325H57.0459Z" fill="#2A4488" style="fill:#2A4488;fill:color(display-p3 0.1647 0.2667 0.5333);fill-opacity:1;"/>
<path d="M57.0459 44.761H60.3325" stroke="#2A4488" style="stroke:#2A4488;stroke:color(display-p3 0.1647 0.2667 0.5333);stroke-opacity:1;" stroke-width="2" stroke-miterlimit="10" stroke-linecap="round" stroke-linejoin="round"/>
<path d="M78.5508 56.7516H81.8373H78.5508Z" fill="#2A4488" style="fill:#2A4488;fill:color(display-p3 0.1647 0.2667 0.5333);fill-opacity:1;"/>
<path d="M78.5508 56.7516H81.8373" stroke="#2A4488" style="stroke:#2A4488;stroke:color(display-p3 0.1647 0.2667 0.5333);stroke-opacity:1;" stroke-width="2" stroke-miterlimit="10" stroke-linecap="round" stroke-linejoin="round"/>
<path d="M57.0459 56.7516H73.9698H57.0459Z" fill="#2A4488" style="fill:#2A4488;fill:color(display-p3 0.1647 0.2667 0.5333);fill-opacity:1;"/>
<path d="M57.0459 56.7516H73.9698" stroke="#2A4488" style="stroke:#2A4488;stroke:color(display-p3 0.1647 0.2667 0.5333);stroke-opacity:1;" stroke-width="2" stroke-miterlimit="10" stroke-linecap="round" stroke-linejoin="round"/>
<path d="M64.9131 68.7421H81.8369H64.9131Z" fill="#2A4488" style="fill:#2A4488;fill:color(display-p3 0.1647 0.2667 0.5333);fill-opacity:1;"/>
<path d="M64.9131 68.7421H81.8369" stroke="#2A4488" style="stroke:#2A4488;stroke:color(display-p3 0.1647 0.2667 0.5333);stroke-opacity:1;" stroke-width="2" stroke-miterlimit="10" stroke-linecap="round" stroke-linejoin="round"/>
<path d="M57.0459 68.7421H60.3325H57.0459Z" fill="#2A4488" style="fill:#2A4488;fill:color(display-p3 0.1647 0.2667 0.5333);fill-opacity:1;"/>
<path d="M57.0459 68.7421H60.3325" stroke="#2A4488" style="stroke:#2A4488;stroke:color(display-p3 0.1647 0.2667 0.5333);stroke-opacity:1;" stroke-width="2" stroke-miterlimit="10" stroke-linecap="round" stroke-linejoin="round"/>
<path d="M62.6226 48.1001C61.3575 48.1001 60.332 47.0746 60.332 45.8095V43.5795C60.332 42.3145 61.3575 41.2889 62.6226 41.2889C63.8876 41.2889 64.9131 42.3145 64.9131 43.5795V45.8095C64.9131 47.0746 63.8876 48.1001 62.6226 48.1001Z" stroke="#2A4488" style="stroke:#2A4488;stroke:color(display-p3 0.1647 0.2667 0.5333);stroke-opacity:1;" stroke-width="2" stroke-miterlimit="10" stroke-linecap="round" stroke-linejoin="round"/>
<path d="M76.2602 60.1571C74.9952 60.1571 73.9697 59.1316 73.9697 57.8665V55.6365C73.9697 54.3715 74.9952 53.3459 76.2602 53.3459C77.5253 53.3459 78.5508 54.3715 78.5508 55.6365V57.8665C78.5508 59.1316 77.5253 60.1571 76.2602 60.1571Z" stroke="#2A4488" style="stroke:#2A4488;stroke:color(display-p3 0.1647 0.2667 0.5333);stroke-opacity:1;" stroke-width="2" stroke-miterlimit="10" stroke-linecap="round" stroke-linejoin="round"/>
<path d="M62.6226 72.1475C61.3575 72.1475 60.332 71.122 60.332 69.857V67.6268C60.332 66.3619 61.3575 65.3364 62.6226 65.3364C63.8876 65.3364 64.9131 66.3619 64.9131 67.6268V69.857C64.9131 71.122 63.8876 72.1475 62.6226 72.1475Z" stroke="#2A4488" style="stroke:#2A4488;stroke:color(display-p3 0.1647 0.2667 0.5333);stroke-opacity:1;" stroke-width="2" stroke-miterlimit="10" stroke-linecap="round" stroke-linejoin="round"/>
<path d="M33.5924 64.118C29.5057 64.118 26.1927 60.8051 26.1927 56.7184C26.1927 52.6317 29.5057 49.3189 33.5924 49.3189C37.679 49.3189 40.9919 52.6317 40.9919 56.7184C40.9919 60.8051 37.679 64.118 33.5924 64.118ZM48.0514 54.3185H47.1953C46.7472 54.3185 46.3605 54.011 46.2528 53.5762C45.9403 52.313 45.4393 51.1041 44.7668 49.9901C44.5349 49.6059 44.5902 49.1145 44.9074 48.7972L45.5135 48.1911C45.6036 48.101 45.675 47.994 45.7238 47.8764C45.7725 47.7587 45.7976 47.6325 45.7976 47.5051C45.7976 47.3777 45.7725 47.2516 45.7238 47.1339C45.675 47.0162 45.6036 46.9093 45.5135 46.8192L43.4914 44.7973C43.4014 44.7072 43.2944 44.6358 43.1767 44.587C43.059 44.5383 42.9329 44.5132 42.8055 44.5132C42.6781 44.5132 42.552 44.5383 42.4343 44.587C42.3166 44.6358 42.2097 44.7072 42.1196 44.7973L41.5135 45.4034C41.1963 45.7206 40.7049 45.7759 40.3208 45.544C39.2067 44.8716 37.9977 44.3705 36.7344 44.0578C36.2996 43.9503 35.9921 43.5634 35.9921 43.1154V42.2594C35.9921 41.7234 35.5577 41.2892 35.0219 41.2892H32.1627C31.9054 41.2892 31.6587 41.3914 31.4767 41.5734C31.2948 41.7553 31.1926 42.0021 31.1926 42.2594V43.1154C31.1926 43.5634 30.8851 43.9503 30.4502 44.0578C29.187 44.3705 27.9781 44.8715 26.864 45.544C26.4798 45.7759 25.9884 45.7206 25.6712 45.4034L25.0651 44.7973C24.975 44.7072 24.8681 44.6358 24.7504 44.587C24.6327 44.5383 24.5066 44.5132 24.3792 44.5132C24.2518 44.5132 24.1256 44.5383 24.0079 44.587C23.8902 44.6358 23.7833 44.7072 23.6932 44.7973L21.6712 46.8192C21.4893 47.0011 21.3872 47.2479 21.3872 47.5051C21.3872 47.7624 21.4893 48.0091 21.6712 48.1911L22.2773 48.7972C22.5945 49.1145 22.6499 49.6059 22.4181 49.9901C21.7454 51.1041 21.2444 52.313 20.9318 53.5762C20.8242 54.011 20.4375 54.3185 19.9893 54.3185H19.1332C19.0058 54.3185 18.8797 54.3436 18.762 54.3924C18.6443 54.4411 18.5373 54.5126 18.4472 54.6027C18.3572 54.6928 18.2857 54.7997 18.2369 54.9174C18.1882 55.0351 18.1631 55.1613 18.1631 55.2887V58.1481C18.1631 58.2755 18.1882 58.4016 18.2369 58.5193C18.2857 58.637 18.3572 58.744 18.4472 58.8341C18.5373 58.9241 18.6443 58.9956 18.762 59.0444C18.8797 59.0931 19.0058 59.1182 19.1332 59.1182H19.9893C20.4375 59.1182 20.8242 59.4257 20.9318 59.8606C21.2444 61.1238 21.7455 62.3328 22.4181 63.4468C22.6499 63.8309 22.5945 64.3224 22.2773 64.6396L21.6712 65.2457C21.4893 65.4276 21.3872 65.6744 21.3872 65.9316C21.3872 66.1889 21.4893 66.4356 21.6712 66.6176L23.6932 68.6394C23.7833 68.7295 23.8902 68.801 24.0079 68.8497C24.1256 68.8985 24.2518 68.9236 24.3792 68.9236C24.5066 68.9236 24.6327 68.8985 24.7504 68.8497C24.8681 68.801 24.975 68.7295 25.0651 68.6394L25.6712 68.0335C25.9884 67.7162 26.4798 67.6608 26.864 67.8927C27.978 68.5654 29.187 69.0664 30.4502 69.379C30.8851 69.4865 31.1926 69.8733 31.1926 70.3215V71.1776C31.1926 71.4348 31.2948 71.6816 31.4768 71.8635C31.6587 72.0454 31.9054 72.1477 32.1627 72.1477H35.0219C35.2792 72.1477 35.526 72.0454 35.7079 71.8635C35.8898 71.6816 35.9921 71.4348 35.9921 71.1776V70.3215C35.9921 69.8733 36.2996 69.4865 36.7344 69.379C37.9977 69.0664 39.2067 68.5653 40.3208 67.8927C40.7049 67.6608 41.1963 67.7162 41.5135 68.0335L42.1196 68.6394C42.2097 68.7295 42.3166 68.801 42.4343 68.8497C42.552 68.8985 42.6781 68.9236 42.8055 68.9236C42.9329 68.9236 43.059 68.8985 43.1767 68.8497C43.2944 68.801 43.4014 68.7295 43.4914 68.6394L45.5135 66.6176C45.6036 66.5275 45.675 66.4206 45.7238 66.3029C45.7725 66.1852 45.7976 66.059 45.7976 65.9316C45.7976 65.8042 45.7725 65.6781 45.7238 65.5604C45.675 65.4427 45.6036 65.3358 45.5135 65.2457L44.9074 64.6396C44.5902 64.3224 44.5349 63.8309 44.7668 63.4468C45.4393 62.3327 45.9402 61.1238 46.2528 59.8606C46.3605 59.4257 46.7472 59.1182 47.1953 59.1182H48.0514C48.5874 59.1182 49.0216 58.6838 49.0216 58.1481V55.2887C49.0216 55.0314 48.9194 54.7846 48.7374 54.6027C48.5555 54.4208 48.3087 54.3185 48.0514 54.3185Z" stroke="#4264AA" style="stroke:#4264AA;stroke:color(display-p3 0.2588 0.3922 0.6667);stroke-opacity:1;" stroke-width="2" stroke-miterlimit="10" stroke-linecap="round" stroke-linejoin="round"/>
</g>
</svg>
