<svg width="100" height="100" viewBox="0 0 100 100" fill="none" xmlns="http://www.w3.org/2000/svg">
<mask id="mask0_2090_28134" style="mask-type:luminance" maskUnits="userSpaceOnUse" x="10" y="10" width="80" height="80">
<path d="M10 10.0001H89.9998V89.9999H10V10.0001Z" fill="white" style="fill:white;fill-opacity:1;"/>
</mask>
<g mask="url(#mask0_2090_28134)">
<path d="M23.9326 25.4476C25.254 23.9352 26.6953 22.5319 28.2423 21.2512" stroke="#243F8B" style="stroke:#243F8B;stroke:color(display-p3 0.1412 0.2471 0.5451);stroke-opacity:1;" stroke-width="2" stroke-miterlimit="10" stroke-linecap="round" stroke-linejoin="round"/>
<path d="M15.6855 41.5837C16.6044 37.5895 18.1785 33.775 20.344 30.2952" stroke="#243F8B" style="stroke:#243F8B;stroke:color(display-p3 0.1412 0.2471 0.5451);stroke-opacity:1;" stroke-width="2" stroke-miterlimit="10" stroke-linecap="round" stroke-linejoin="round"/>
<path d="M28.0106 78.5554C19.8953 71.7264 14.7344 61.4689 14.7344 50C14.7344 49.5644 14.7419 49.1305 14.7566 48.6986" stroke="#243F8B" style="stroke:#243F8B;stroke:color(display-p3 0.1412 0.2471 0.5451);stroke-opacity:1;" stroke-width="2" stroke-miterlimit="10" stroke-linecap="round" stroke-linejoin="round"/>
<path d="M69.7332 82.573C64.4153 85.539 58.2945 87.228 51.7812 87.228C45.2902 87.228 39.1891 85.5505 33.8838 82.6032" stroke="#243F8B" style="stroke:#243F8B;stroke:color(display-p3 0.1412 0.2471 0.5451);stroke-opacity:1;" stroke-width="2" stroke-miterlimit="10" stroke-linecap="round" stroke-linejoin="round"/>
<path d="M83.1944 30.2564C86.7639 35.9794 88.8277 42.7475 88.8277 50C88.8277 61.4521 83.6819 71.6965 75.5869 78.5255" stroke="#243F8B" style="stroke:#243F8B;stroke:color(display-p3 0.1412 0.2471 0.5451);stroke-opacity:1;" stroke-width="2" stroke-miterlimit="10" stroke-linecap="round" stroke-linejoin="round"/>
<path d="M74.9912 20.9823C76.3621 22.0911 77.6528 23.2956 78.8535 24.5868" stroke="#243F8B" style="stroke:#243F8B;stroke:color(display-p3 0.1412 0.2471 0.5451);stroke-opacity:1;" stroke-width="2" stroke-miterlimit="10" stroke-linecap="round" stroke-linejoin="round"/>
<path d="M34.1152 17.2692C39.3662 14.4012 45.3844 12.772 51.7813 12.772C58.0139 12.772 63.8872 14.3187 69.0415 17.0509" stroke="#243F8B" style="stroke:#243F8B;stroke:color(display-p3 0.1412 0.2471 0.5451);stroke-opacity:1;" stroke-width="2" stroke-miterlimit="10" stroke-linecap="round" stroke-linejoin="round"/>
<path d="M54.8838 25.786C59.0564 23.1893 63.653 21.1484 68.5927 19.786" stroke="#243F8B" style="stroke:#243F8B;stroke:color(display-p3 0.1412 0.2471 0.5451);stroke-opacity:1;" stroke-width="2" stroke-miterlimit="10" stroke-linecap="round" stroke-linejoin="round"/>
<path d="M39.7031 40.1411C42.3819 36.3376 45.5523 32.9053 49.1315 29.9335" stroke="#4264AA" style="stroke:#4264AA;stroke:color(display-p3 0.2588 0.3922 0.6667);stroke-opacity:1;" stroke-width="2" stroke-miterlimit="10" stroke-linecap="round" stroke-linejoin="round"/>
<path d="M30.4393 77.0024C29.1058 66.0995 31.2142 55.4572 35.9768 46.2733" stroke="#4264AA" style="stroke:#4264AA;stroke:color(display-p3 0.2588 0.3922 0.6667);stroke-opacity:1;" stroke-width="2" stroke-miterlimit="10" stroke-linecap="round" stroke-linejoin="round"/>
<path d="M48.6788 25.786C44.3651 23.1015 39.5984 21.011 34.4678 19.6501" stroke="#243F8B" style="stroke:#243F8B;stroke:color(display-p3 0.1412 0.2471 0.5451);stroke-opacity:1;" stroke-width="2" stroke-miterlimit="10" stroke-linecap="round" stroke-linejoin="round"/>
<path d="M68.9508 49.1063C65.6552 41.7082 60.6901 35.1268 54.4316 29.9337" stroke="#4264AA" style="stroke:#4264AA;stroke:color(display-p3 0.2588 0.3922 0.6667);stroke-opacity:1;" stroke-width="2" stroke-miterlimit="10" stroke-linecap="round" stroke-linejoin="round"/>
<path d="M72.9519 62.8604C72.5998 60.4808 72.0853 58.128 71.4121 55.8187" stroke="#243F8B" style="stroke:#243F8B;stroke:color(display-p3 0.1412 0.2471 0.5451);stroke-opacity:1;" stroke-width="2" stroke-miterlimit="10" stroke-linecap="round" stroke-linejoin="round"/>
<path d="M73.1016 77.1799C73.412 74.7109 73.5487 72.223 73.5106 69.7348" stroke="#243F8B" style="stroke:#243F8B;stroke:color(display-p3 0.1412 0.2471 0.5451);stroke-opacity:1;" stroke-width="2" stroke-miterlimit="10" stroke-linecap="round" stroke-linejoin="round"/>
<path d="M34.3538 42.4613C29.0169 42.4341 23.5996 43.0068 18.1855 44.2285" stroke="#243F8B" style="stroke:#243F8B;stroke:color(display-p3 0.1412 0.2471 0.5451);stroke-opacity:1;" stroke-width="2" stroke-miterlimit="10" stroke-linecap="round" stroke-linejoin="round"/>
<path d="M67.2098 50.6652C59.2645 46.4999 50.5352 43.8111 41.4541 42.853" stroke="#4264AA" style="stroke:#4264AA;stroke:color(display-p3 0.2588 0.3922 0.6667);stroke-opacity:1;" stroke-width="2" stroke-miterlimit="10" stroke-linecap="round" stroke-linejoin="round"/>
<path d="M85.8374 64.6755C82.0802 60.753 77.8924 57.2668 73.3535 54.2832" stroke="#243F8B" style="stroke:#243F8B;stroke:color(display-p3 0.1412 0.2471 0.5451);stroke-opacity:1;" stroke-width="2" stroke-miterlimit="10" stroke-linecap="round" stroke-linejoin="round"/>
<path d="M72.0977 49.3118C75.6475 43.5975 78.3794 37.4141 80.2137 30.9418" stroke="#243F8B" style="stroke:#243F8B;stroke:color(display-p3 0.1412 0.2471 0.5451);stroke-opacity:1;" stroke-width="2" stroke-miterlimit="10" stroke-linecap="round" stroke-linejoin="round"/>
<path d="M34.3545 79.4695C47.7479 74.8504 59.4683 66.3458 68.0469 55.1672" stroke="#4264AA" style="stroke:#4264AA;stroke:color(display-p3 0.2588 0.3922 0.6667);stroke-opacity:1;" stroke-width="2" stroke-miterlimit="10" stroke-linecap="round" stroke-linejoin="round"/>
<path d="M51.7814 31.123C49.8169 31.123 48.2188 29.5171 48.2188 27.5429C48.2188 25.5688 49.8169 23.9629 51.7814 23.9629C53.7459 23.9629 55.344 25.5688 55.344 27.5429C55.344 29.5171 53.7459 31.123 51.7814 31.123Z" stroke="#243F8B" style="stroke:#243F8B;stroke:color(display-p3 0.1412 0.2471 0.5451);stroke-opacity:1;" stroke-width="2" stroke-miterlimit="10" stroke-linecap="round" stroke-linejoin="round"/>
<path d="M37.9162 46.8531C35.9516 46.8531 34.3535 45.2471 34.3535 43.273C34.3535 41.2989 35.9516 39.6929 37.9162 39.6929C39.8807 39.6929 41.4788 41.2989 41.4788 43.273C41.4788 45.2471 39.8807 46.8531 37.9162 46.8531Z" stroke="#243F8B" style="stroke:#243F8B;stroke:color(display-p3 0.1412 0.2471 0.5451);stroke-opacity:1;" stroke-width="2" stroke-miterlimit="10" stroke-linecap="round" stroke-linejoin="round"/>
<path d="M70.3185 55.9917C68.354 55.9917 66.7559 54.3856 66.7559 52.4116C66.7559 50.4375 68.354 48.8314 70.3185 48.8314C72.283 48.8314 73.8812 50.4375 73.8812 52.4116C73.8812 54.3856 72.283 55.9917 70.3185 55.9917Z" stroke="#243F8B" style="stroke:#243F8B;stroke:color(display-p3 0.1412 0.2471 0.5451);stroke-opacity:1;" stroke-width="2" stroke-miterlimit="10" stroke-linecap="round" stroke-linejoin="round"/>
<path d="M30.9728 84.1222C29.0083 84.1222 27.4102 82.5163 27.4102 80.542C27.4102 78.568 29.0083 76.9621 30.9728 76.9621C32.9373 76.9621 34.5356 78.568 34.5356 80.542C34.5356 82.5163 32.9373 84.1222 30.9728 84.1222Z" stroke="#243F8B" style="stroke:#243F8B;stroke:color(display-p3 0.1412 0.2471 0.5451);stroke-opacity:1;" stroke-width="2" stroke-miterlimit="10" stroke-linecap="round" stroke-linejoin="round"/>
<path d="M72.7951 84.326C70.8305 84.326 69.2324 82.72 69.2324 80.7459C69.2324 78.7718 70.8305 77.1658 72.7951 77.1658C74.7596 77.1658 76.3579 78.7718 76.3579 80.7459C76.3579 82.72 74.7596 84.326 72.7951 84.326Z" stroke="#243F8B" style="stroke:#243F8B;stroke:color(display-p3 0.1412 0.2471 0.5451);stroke-opacity:1;" stroke-width="2" stroke-miterlimit="10" stroke-linecap="round" stroke-linejoin="round"/>
<path d="M81.1019 30.9418C79.1373 30.9418 77.5391 29.3357 77.5391 27.3616C77.5391 25.3876 79.1373 23.7815 81.1019 23.7815C83.0664 23.7815 84.6645 25.3876 84.6645 27.3616C84.6645 29.3357 83.0664 30.9418 81.1019 30.9418Z" stroke="#243F8B" style="stroke:#243F8B;stroke:color(display-p3 0.1412 0.2471 0.5451);stroke-opacity:1;" stroke-width="2" stroke-miterlimit="10" stroke-linecap="round" stroke-linejoin="round"/>
<path d="M72.0578 22.5344C70.0932 22.5344 68.4951 20.9285 68.4951 18.9543C68.4951 16.9802 70.0932 15.3743 72.0578 15.3743C74.0223 15.3743 75.6206 16.9802 75.6206 18.9543C75.6206 20.9285 74.0223 22.5344 72.0578 22.5344Z" stroke="#243F8B" style="stroke:#243F8B;stroke:color(display-p3 0.1412 0.2471 0.5451);stroke-opacity:1;" stroke-width="2" stroke-miterlimit="10" stroke-linecap="round" stroke-linejoin="round"/>
<path d="M30.9728 22.5344C29.0083 22.5344 27.4102 20.9285 27.4102 18.9543C27.4102 16.9802 29.0083 15.3743 30.9728 15.3743C32.9373 15.3743 34.5356 16.9802 34.5356 18.9543C34.5356 20.9285 32.9373 22.5344 30.9728 22.5344Z" stroke="#243F8B" style="stroke:#243F8B;stroke:color(display-p3 0.1412 0.2471 0.5451);stroke-opacity:1;" stroke-width="2" stroke-miterlimit="10" stroke-linecap="round" stroke-linejoin="round"/>
<path d="M14.7345 48.6979C12.77 48.6979 11.1719 47.0919 11.1719 45.1177C11.1719 43.1437 12.77 41.5377 14.7345 41.5377C16.699 41.5377 18.2972 43.1437 18.2972 45.1177C18.2972 47.0919 16.699 48.6979 14.7345 48.6979Z" stroke="#243F8B" style="stroke:#243F8B;stroke:color(display-p3 0.1412 0.2471 0.5451);stroke-opacity:1;" stroke-width="2" stroke-miterlimit="10" stroke-linecap="round" stroke-linejoin="round"/>
</g>
</svg>
