<svg width="100" height="100" viewBox="0 0 100 100" fill="none" xmlns="http://www.w3.org/2000/svg">
<path d="M15.6533 55.6H17.3033C18.131 58.3125 19.3436 60.9084 20.9087 63.3181L19.604 64.5413C19.079 65.0334 18.6625 65.6177 18.3784 66.2607C18.0943 66.9038 17.948 67.593 17.948 68.2891C17.948 68.9851 18.0943 69.6743 18.3784 70.3174C18.6625 70.9604 19.079 71.5447 19.604 72.0369L23.828 75.9963C24.8882 76.9901 26.3261 77.5484 27.8253 77.5484C29.3246 77.5484 30.7625 76.9901 31.8227 75.9963L33.3227 74.59C34.0938 74.9944 34.8815 75.3703 35.684 75.7169C35.6556 75.4046 35.6225 75.0927 35.5847 74.7813C35.4265 73.966 35.1341 73.1786 34.718 72.4475C34.1057 72.1288 33.505 71.7912 32.9167 71.435L29.9367 74.2288C29.3766 74.7537 28.617 75.0486 27.825 75.0486C27.033 75.0486 26.2734 74.7537 25.7133 74.2288L21.4893 70.2688C21.212 70.0087 20.9919 69.7001 20.8418 69.3603C20.6917 69.0206 20.6145 68.6565 20.6145 68.2888C20.6145 67.921 20.6917 67.5569 20.8418 67.2172C20.9919 66.8774 21.212 66.5688 21.4893 66.3088L24.3253 63.6506C21.9462 60.4764 20.2651 56.8898 19.38 53.1H15.6533C14.8612 53.1 14.1015 52.805 13.5414 52.2799C12.9813 51.7548 12.6667 51.0426 12.6667 50.3V44.7C12.6667 43.9574 12.9813 43.2452 13.5414 42.7201C14.1015 42.195 14.8612 41.9 15.6533 41.9H19.11C19.8151 37.9368 21.3852 34.1526 23.722 30.7844L21.4893 28.6906C20.9294 28.1655 20.6148 27.4534 20.6148 26.7109C20.6148 25.9684 20.9294 25.2563 21.4893 24.7313L25.7133 20.7713C26.2734 20.2463 27.033 19.9514 27.825 19.9514C28.617 19.9514 29.3766 20.2463 29.9367 20.7713L32.026 22.73C35.6217 20.3602 39.7114 18.7304 44.0267 17.9475V15.3C44.0267 14.5574 44.3413 13.8452 44.9014 13.3201C45.4616 12.795 46.2212 12.5 47.0133 12.5H52.9867C53.7788 12.5 54.5384 12.795 55.0986 13.3201C55.6587 13.8452 55.9733 14.5574 55.9733 15.3V17.9475C60.2883 18.7305 64.3778 20.3603 67.9733 22.73L70.0633 20.7713C70.6234 20.2463 71.383 19.9514 72.175 19.9514C72.967 19.9514 73.7266 20.2463 74.2867 20.7713L78.5107 24.7313C79.0706 25.2563 79.3852 25.9684 79.3852 26.7109C79.3852 27.4534 79.0706 28.1655 78.5107 28.6906L76.2773 30.7844C78.6143 34.1526 80.1846 37.9367 80.89 41.9H84.3467C85.1388 41.9 85.8985 42.195 86.4586 42.7201C87.0187 43.2452 87.3333 43.9574 87.3333 44.7V50.3C87.3333 51.0426 87.0187 51.7548 86.4586 52.2799C85.8985 52.805 85.1388 53.1 84.3467 53.1H80.62C79.7349 56.8898 78.0538 60.4764 75.6747 63.6506L78.5107 66.3088C78.788 66.5688 79.0081 66.8774 79.1582 67.2172C79.3083 67.5569 79.3856 67.921 79.3856 68.2888C79.3856 68.6565 79.3083 69.0206 79.1582 69.3603C79.0081 69.7001 78.788 70.0087 78.5107 70.2688L74.2867 74.2288C73.7266 74.7537 72.967 75.0486 72.175 75.0486C71.383 75.0486 70.6234 74.7537 70.0633 74.2288L69.06 73.2881C68.5197 73.9603 67.8488 74.5307 67.0827 74.9694L68.1773 75.9963C68.7023 76.4884 69.3255 76.8789 70.0115 77.1453C70.6974 77.4116 71.4326 77.5487 72.175 77.5487C72.9174 77.5487 73.6526 77.4116 74.3385 77.1453C75.0245 76.8789 75.6477 76.4884 76.1727 75.9963L80.396 72.0363C81.4561 71.0423 82.0517 69.6943 82.0517 68.2888C82.0517 66.8832 81.4561 65.5352 80.396 64.5413L79.0913 63.3181C80.6564 60.9084 81.869 58.3125 82.6967 55.6H84.3467C85.8455 55.5984 87.2824 55.0394 88.3422 54.0458C89.4021 53.0523 89.9982 51.7051 90 50.3V44.7C89.9982 43.2949 89.4021 41.9477 88.3422 40.9542C87.2824 39.9606 85.8455 39.4017 84.3467 39.4H83.0707C82.347 36.5176 81.1927 33.7454 79.642 31.1656L80.396 30.4588C80.921 29.9666 81.3375 29.3823 81.6216 28.7393C81.9057 28.0962 82.052 27.407 82.052 26.7109C82.052 26.0149 81.9057 25.3257 81.6216 24.6826C81.3375 24.0396 80.921 23.4553 80.396 22.9631L76.172 19.0038C75.1118 18.0099 73.6739 17.4516 72.1747 17.4516C70.6754 17.4516 69.2375 18.0099 68.1773 19.0038L67.6193 19.5269C64.828 17.9315 61.8029 16.7273 58.64 15.9525V15.3C58.6382 13.8949 58.0421 12.5477 56.9822 11.5542C55.9224 10.5606 54.4855 10.0017 52.9867 10H47.0133C45.5145 10.0017 44.0776 10.5606 43.0178 11.5542C41.9579 12.5477 41.3618 13.8949 41.36 15.3V15.9525C38.1968 16.7272 35.1715 17.9314 32.38 19.5269L31.8227 19.0038C30.7625 18.0099 29.3246 17.4516 27.8253 17.4516C26.3261 17.4516 24.8882 18.0099 23.828 19.0038L19.604 22.9631C19.079 23.4553 18.6625 24.0396 18.3784 24.6826C18.0943 25.3257 17.948 26.0149 17.948 26.7109C17.948 27.407 18.0943 28.0962 18.3784 28.7393C18.6625 29.3823 19.079 29.9666 19.604 30.4588L20.3573 31.165C18.8068 33.745 17.6528 36.5174 16.9293 39.4H15.6533C14.1545 39.4017 12.7176 39.9606 11.6578 40.9542C10.5979 41.9477 10.0018 43.2949 10 44.7V50.3C10.0018 51.7051 10.5979 53.0523 11.6578 54.0458C12.7176 55.0394 14.1545 55.5984 15.6533 55.6Z" fill="#243F8B" style="fill:#243F8B;fill:color(display-p3 0.1412 0.2471 0.5451);fill-opacity:1;"/>
<path d="M69.868 62.1369C70.3422 61.9275 70.7582 61.6179 71.0834 61.2326C71.4086 60.8472 71.6343 60.3965 71.7427 59.9157C71.8324 59.3633 71.7939 58.7992 71.6297 58.262C71.4655 57.7248 71.1796 57.2272 70.7913 56.8032C69.9036 55.7342 69.2159 54.5317 68.7573 53.2469C68.5266 52.3628 68.4137 51.4552 68.4213 50.5451C68.3947 49.9007 68.3667 49.2344 68.2807 48.5363C67.8658 45.6585 66.7056 42.9196 64.9015 40.5591C63.0973 38.1985 60.704 36.288 57.9307 34.9944C55.208 33.7571 52.2203 33.1178 49.1947 33.1251C43.7565 33.1183 38.5281 35.0918 34.6123 38.6296C30.6964 42.1673 28.3993 46.9925 28.2053 52.0876C27.9367 58.3363 31.3547 63.0463 34.1013 66.8307L34.3833 67.2182C36.0853 69.5544 37.8453 71.9707 38.23 74.4607C38.3577 75.465 38.4285 76.475 38.442 77.4863C38.4401 77.8158 38.5076 78.1423 38.6408 78.4472C38.7739 78.7521 38.97 79.0294 39.2178 79.263C39.4657 79.4966 39.7603 79.682 40.0848 79.8085C40.4093 79.935 40.7572 80.0001 41.1087 80.0001H57.962C58.6692 80.0001 59.3475 79.7367 59.8476 79.2678C60.3477 78.799 60.6287 78.1631 60.6287 77.5001V75.1232C60.6275 74.9204 60.6695 74.7194 60.7523 74.5321C60.8351 74.3447 60.957 74.1748 61.1108 74.0322C61.2647 73.8896 61.4473 73.7773 61.6481 73.7018C61.8489 73.6263 62.0637 73.5891 62.28 73.5926L62.3593 73.5938H62.448C65.142 73.5938 66.466 72.4838 67.1027 71.5526C67.8151 70.3884 68.0343 69.0156 67.7167 67.7069L67.7127 67.6801C68.1916 67.3546 68.5681 66.9142 68.8027 66.4051C69.0578 65.84 69.1248 65.2158 68.9947 64.6144C69.093 64.4903 69.1799 64.3585 69.2547 64.2207C69.5759 63.6205 69.6609 62.9333 69.4947 62.2801L69.624 62.2344C69.7071 62.2057 69.7884 62.1732 69.868 62.1369ZM68.6947 59.8919C68.29 60.0326 67.8907 60.1776 67.4907 60.3182C67.1394 60.408 66.8205 60.5848 66.5673 60.8301C66.4303 61.0411 66.3625 61.2853 66.3723 61.5322C66.3821 61.7792 66.4692 62.0179 66.6227 62.2188C66.7547 62.4563 67.1847 63.1494 66.644 63.2219C66.3207 63.4313 65.9973 63.6407 65.67 63.8457C65.6233 63.8738 65.6233 64.0232 65.666 64.0713C65.7847 64.2001 65.8993 64.3332 66.006 64.4701C66.1181 64.6057 66.2178 64.75 66.304 64.9013C66.3572 64.9855 66.3875 65.0808 66.3921 65.1786C66.3967 65.2764 66.3756 65.3737 66.3306 65.4621C66.2856 65.5504 66.2181 65.627 66.1341 65.685C66.05 65.7431 65.952 65.7809 65.8487 65.7951C65.6985 65.7879 65.5485 65.8132 65.4104 65.8691C65.2724 65.9249 65.1499 66.0099 65.0524 66.1172C64.9549 66.2246 64.8852 66.3516 64.8484 66.4883C64.8117 66.625 64.8091 66.7678 64.8407 66.9057C64.9387 67.3007 65.0193 67.6994 65.0827 68.0976C65.2769 68.8024 65.197 69.5491 64.8573 70.2038C64.356 70.9376 63.3047 71.0938 62.448 71.0938H62.3387L62.2793 71.0926C61.7132 71.0904 61.1523 71.1931 60.6286 71.3947C60.105 71.5963 59.6289 71.8928 59.2278 72.2673C58.8267 72.6418 58.5084 73.0868 58.2912 73.5769C58.0739 74.067 57.9621 74.5925 57.962 75.1232V77.5001H50.6667V70.0001H52C52.3536 70.0001 52.6928 69.8684 52.9428 69.6339C53.1929 69.3995 53.3333 69.0816 53.3333 68.7501C53.3333 68.4185 53.1929 68.1006 52.9428 67.8662C52.6928 67.6318 52.3536 67.5001 52 67.5001H46.6667C46.313 67.5001 45.9739 67.6318 45.7239 67.8662C45.4738 68.1006 45.3333 68.4185 45.3333 68.7501C45.3333 69.0816 45.4738 69.3995 45.7239 69.6339C45.9739 69.8684 46.313 70.0001 46.6667 70.0001H48V77.5001H41.1087C41.0955 76.3681 41.0161 75.2376 40.8707 74.1138C40.3773 70.8888 38.1993 68.0294 36.306 65.4244C33.384 61.3976 30.6447 57.4351 30.87 52.1888C31.0052 48.6917 32.2753 45.3166 34.5107 42.5141C36.746 39.7117 39.8402 37.6153 43.38 36.5051C45.2561 35.9242 47.2189 35.6271 49.1947 35.6251C51.8131 35.614 54.3993 36.1659 56.7547 37.2382C59.1289 38.3453 61.1787 39.9794 62.7258 41.9985C64.2728 44.0175 65.2703 46.3604 65.6313 48.8232C65.8433 50.5457 65.6567 52.3038 66.2087 53.9832C66.7667 55.5603 67.6072 57.0368 68.694 58.3494C68.694 58.3494 69.7027 59.4288 68.694 59.8913L68.6947 59.8919ZM58 83.7501C58 83.4185 57.8595 83.1006 57.6095 82.8662C57.3594 82.6318 57.0203 82.5001 56.6667 82.5001H42C41.6464 82.5001 41.3072 82.6318 41.0572 82.8662C40.8071 83.1006 40.6667 83.4185 40.6667 83.7501C40.6667 84.0816 40.8071 84.3995 41.0572 84.6339C41.3072 84.8684 41.6464 85.0001 42 85.0001H56.6667C57.0203 85.0001 57.3594 84.8684 57.6095 84.6339C57.8595 84.3995 58 84.0816 58 83.7501ZM44.6667 87.5001C44.313 87.5001 43.9739 87.6318 43.7239 87.8662C43.4738 88.1006 43.3333 88.4185 43.3333 88.7501C43.3333 89.0816 43.4738 89.3995 43.7239 89.6339C43.9739 89.8684 44.313 90.0001 44.6667 90.0001H54C54.3536 90.0001 54.6928 89.8684 54.9428 89.6339C55.1929 89.3995 55.3333 89.0816 55.3333 88.7501C55.3333 88.4185 55.1929 88.1006 54.9428 87.8662C54.6928 87.6318 54.3536 87.5001 54 87.5001H44.6667Z" fill="#243F8B" style="fill:#243F8B;fill:color(display-p3 0.1412 0.2471 0.5451);fill-opacity:1;"/>
<path d="M60.1383 47.8212C60.049 47.5854 59.9512 47.3527 59.845 47.1231C60.1987 46.49 60.3276 45.7676 60.2128 45.061C60.0981 44.3545 59.7457 43.7007 59.207 43.195L57.925 41.9931C57.4035 41.505 56.7341 41.1796 56.0081 41.0614C55.2821 40.9431 54.5348 41.0378 53.8683 41.3325C53.5625 41.1967 53.2514 41.0733 52.935 40.9625C52.6845 40.3147 52.2275 39.7549 51.6259 39.3591C51.0243 38.9632 50.3073 38.7506 49.5723 38.75H47.759C47.0243 38.7509 46.3078 38.9637 45.7066 39.3595C45.1053 39.7553 44.6486 40.315 44.3983 40.9625C44.0814 41.0733 43.7703 41.1967 43.465 41.3325C42.7984 41.0377 42.051 40.9429 41.3249 41.0611C40.5987 41.1794 39.9292 41.5049 39.4077 41.9931L38.1257 43.195C37.5869 43.7007 37.2344 44.3544 37.1197 45.061C37.0049 45.7676 37.1338 46.49 37.4877 47.1231C37.3814 47.3523 37.2837 47.585 37.1943 47.8212C36.4633 48.0321 35.8234 48.4569 35.3686 49.0335C34.9138 49.61 34.6679 50.3079 34.667 51.025V52.725C34.6681 53.474 34.9364 54.201 35.4292 54.7905C35.9219 55.38 36.6109 55.7981 37.3863 55.9781C37.4539 56.134 37.5254 56.2885 37.601 56.4419C37.1849 57.0836 37.0105 57.8377 37.1059 58.5833C37.2013 59.329 37.5608 60.0231 38.127 60.5544L39.409 61.7569C39.9925 62.3036 40.7596 62.6445 41.5805 62.7216C42.4014 62.7987 43.2254 62.6074 43.913 62.18C44.0272 62.2254 44.1419 62.2692 44.257 62.3112C44.4211 63.0692 44.8594 63.7508 45.4977 64.2408C46.1361 64.7307 46.9353 64.9989 47.7603 65H49.5737C50.3988 64.999 51.1982 64.7309 51.8367 64.241C52.4752 63.751 52.9136 63.0693 53.0777 62.3112C53.1932 62.2692 53.3079 62.2254 53.4217 62.18C54.1093 62.6074 54.9333 62.7987 55.7542 62.7216C56.575 62.6445 57.3422 62.3036 57.9257 61.7569L59.2077 60.555C59.774 60.0237 60.1337 59.3295 60.229 58.5837C60.3244 57.8379 60.15 57.0837 59.7337 56.4419C59.8092 56.2885 59.8808 56.134 59.9483 55.9781C60.7237 55.798 61.4124 55.3799 61.9051 54.7904C62.3977 54.2009 62.6659 53.4739 62.667 52.725V51.025C62.666 50.3078 62.42 49.6098 61.9651 49.0333C61.5101 48.4568 60.8695 48.032 60.1383 47.8212ZM59.9997 52.725C59.9997 52.9504 59.9041 53.1666 59.7341 53.326C59.5641 53.4854 59.3335 53.575 59.093 53.575H57.9623C57.6937 54.7256 57.1833 55.8144 56.461 56.7781L57.321 57.5844C57.4053 57.6633 57.4721 57.757 57.5177 57.8602C57.5633 57.9634 57.5868 58.074 57.5868 58.1856C57.5868 58.2973 57.5633 58.4079 57.5177 58.511C57.4721 58.6142 57.4053 58.7079 57.321 58.7869L56.0397 59.9888C55.9555 60.0677 55.8555 60.1304 55.7454 60.1732C55.6354 60.2159 55.5174 60.2379 55.3983 60.2379C55.2792 60.2379 55.1613 60.2159 55.0512 60.1732C54.9412 60.1304 54.8412 60.0677 54.757 59.9888L53.853 59.1413C52.8275 59.7686 51.6819 60.2034 50.4797 60.4213V61.65C50.4797 61.8753 50.3842 62.0914 50.2143 62.2508C50.0445 62.4102 49.814 62.4998 49.5737 62.5H47.7603C47.5199 62.5 47.2892 62.4104 47.1192 62.251C46.9492 62.0916 46.8537 61.8754 46.8537 61.65V60.4213C45.6517 60.2033 44.5062 59.7686 43.481 59.1413L42.577 59.9888C42.4928 60.0677 42.3928 60.1304 42.2828 60.1732C42.1727 60.2159 42.0548 60.2379 41.9357 60.2379C41.8165 60.2379 41.6986 60.2159 41.5885 60.1732C41.4785 60.1304 41.3785 60.0677 41.2943 59.9888L40.0123 58.7869C39.8424 58.6275 39.7469 58.4113 39.7469 58.1859C39.7469 57.9606 39.8424 57.7444 40.0123 57.585L40.873 56.7781C40.1507 55.8144 39.6403 54.7256 39.3717 53.575H38.2403C37.9999 53.575 37.7692 53.4854 37.5992 53.326C37.4292 53.1666 37.3337 52.9504 37.3337 52.725V51.025C37.3337 50.7996 37.4292 50.5834 37.5992 50.424C37.7692 50.2646 37.9999 50.175 38.2403 50.175H39.2903C39.5043 48.9717 39.9809 47.8227 40.6903 46.8L40.0123 46.165C39.8424 46.0056 39.7469 45.7894 39.7469 45.5641C39.7469 45.3387 39.8424 45.1225 40.0123 44.9631L41.2943 43.7613C41.3785 43.6823 41.4785 43.6196 41.5885 43.5768C41.6986 43.5341 41.8165 43.5121 41.9357 43.5121C42.0548 43.5121 42.1727 43.5341 42.2828 43.5768C42.3928 43.6196 42.4928 43.6823 42.577 43.7613L43.2103 44.355C44.302 43.6358 45.5436 43.1412 46.8537 42.9037V42.1C46.8537 41.8746 46.9492 41.6584 47.1192 41.499C47.2892 41.3396 47.5199 41.25 47.7603 41.25H49.5737C49.8141 41.25 50.0447 41.3396 50.2148 41.499C50.3848 41.6584 50.4803 41.8746 50.4803 42.1V42.9037C51.7904 43.1414 53.032 43.6362 54.1237 44.3556L54.7577 43.7613C54.8419 43.6823 54.9418 43.6196 55.0519 43.5768C55.1619 43.5341 55.2799 43.5121 55.399 43.5121C55.5181 43.5121 55.6361 43.5341 55.7461 43.5768C55.8561 43.6196 55.9561 43.6823 56.0403 43.7613L57.3223 44.9631C57.4923 45.1225 57.5878 45.3387 57.5878 45.5641C57.5878 45.7894 57.4923 46.0056 57.3223 46.165L56.6443 46.8006C57.3537 47.8231 57.8303 48.9719 58.0443 50.175H59.0937C59.3341 50.175 59.5647 50.2646 59.7348 50.424C59.9048 50.5834 60.0003 50.7996 60.0003 51.025L59.9997 52.725Z" fill="#4264AA" style="fill:#4264AA;fill:color(display-p3 0.2588 0.3922 0.6667);fill-opacity:1;"/>
<path d="M48.6663 45C47.2159 45 45.7981 45.4032 44.5922 46.1586C43.3862 46.9141 42.4463 47.9878 41.8912 49.2441C41.3362 50.5003 41.191 51.8826 41.4739 53.2162C41.7569 54.5499 42.4553 55.7749 43.4809 56.7364C44.5065 57.6978 45.8132 58.3526 47.2357 58.6179C48.6582 58.8832 50.1327 58.747 51.4727 58.2267C52.8127 57.7063 53.958 56.8251 54.7638 55.6945C55.5696 54.564 55.9997 53.2347 55.9997 51.875C55.9976 50.0522 55.2243 48.3047 53.8495 47.0158C52.4746 45.727 50.6106 45.002 48.6663 45ZM48.6663 56.25C47.7434 56.25 46.8411 55.9934 46.0737 55.5127C45.3063 55.0319 44.7081 54.3487 44.3549 53.5492C44.0017 52.7498 43.9093 51.8701 44.0893 51.0215C44.2694 50.1728 44.7139 49.3933 45.3665 48.7814C46.0192 48.1696 46.8507 47.7529 47.7559 47.5841C48.6612 47.4153 49.5995 47.5019 50.4522 47.833C51.3049 48.1642 52.0338 48.7249 52.5465 49.4444C53.0593 50.1638 53.333 51.0097 53.333 51.875C53.333 53.0353 52.8413 54.1481 51.9662 54.9686C51.091 55.7891 49.904 56.25 48.6663 56.25Z" fill="#4264AA" style="fill:#4264AA;fill:color(display-p3 0.2588 0.3922 0.6667);fill-opacity:1;"/>
</svg>
