<svg width="100" height="100" viewBox="0 0 100 100" fill="none" xmlns="http://www.w3.org/2000/svg">
<g clip-path="url(#clip0_2090_3554)">
<path d="M77.625 51.25V48.75C78.315 48.75 78.875 48.1904 78.875 47.5V40C78.875 39.3096 78.315 38.75 77.625 38.75H70.875L70.6328 37.811C70.0802 35.6633 69.2214 33.6064 68.0825 31.7035L67.5825 30.8673L72.375 26.0664C72.8575 25.583 72.8575 24.7997 72.375 24.3164L67.0664 19C66.8305 18.775 66.5171 18.6495 66.1911 18.6495C65.8652 18.6495 65.5517 18.775 65.3159 19L60.5146 23.8013L59.6787 23.3013C57.7732 22.162 55.7137 21.3028 53.5635 20.75L52.625 20.5059V13.75C52.625 13.0596 52.0654 12.5 51.375 12.5H43.875C43.1846 12.5 42.625 13.0596 42.625 13.75V20.5L41.686 20.7426C39.5383 21.2951 37.4812 22.1533 35.5776 23.291L34.7412 23.7915L29.9412 19C29.7051 18.7733 29.3905 18.6467 29.0631 18.6467C28.7358 18.6467 28.4211 18.7733 28.185 19L22.875 24.3086C22.7594 24.4239 22.6676 24.5609 22.605 24.7117C22.5424 24.8626 22.5102 25.0243 22.5102 25.1876C22.5102 25.3509 22.5424 25.5126 22.605 25.6634C22.6676 25.8142 22.7594 25.9512 22.875 26.0665L27.6763 30.8671L27.1763 31.7036C26.0376 33.6065 25.1788 35.6634 24.6265 37.8111L24.3813 38.75H17.625C16.9346 38.75 16.375 39.3096 16.375 40V47.5C16.375 48.1904 16.9346 48.75 17.625 48.75V51.25C15.5543 51.25 13.875 49.5708 13.875 47.5V40C13.875 37.9293 15.5543 36.25 17.625 36.25H22.4614C22.9769 34.5217 23.6742 32.8529 24.5415 31.2715L21.104 27.834C20.4009 27.1324 20.0059 26.1803 20.0059 25.1875C20.0059 24.1947 20.4009 23.2426 21.104 22.5415L26.4165 17.229C27.8965 15.8125 30.23 15.8125 31.71 17.229L35.1465 20.665C36.728 19.7986 38.3968 19.1022 40.125 18.5875V13.75C40.125 11.6793 41.8043 10 43.875 10H51.375C53.4458 10 55.125 11.6793 55.125 13.75V18.5875C56.8533 19.1027 58.5221 19.7996 60.1035 20.6665L63.541 17.229C65.0215 15.8125 67.3545 15.8125 68.835 17.229L74.1465 22.54C74.4944 22.8873 74.7703 23.2997 74.9586 23.7537C75.1468 24.2078 75.2437 24.6945 75.2436 25.186C75.2437 25.6776 75.1469 26.1644 74.9586 26.6185C74.7704 27.0726 74.4944 27.4852 74.1465 27.8325L70.709 31.27C71.5756 32.8522 72.2727 34.5214 72.7886 36.25H77.625C79.6957 36.25 81.375 37.9293 81.375 40V47.5C81.375 49.5708 79.6957 51.25 77.625 51.25Z" fill="#2A4488" style="fill:#2A4488;fill:color(display-p3 0.1647 0.2667 0.5333);fill-opacity:1;"/>
<path d="M65.125 43.75H62.625C62.625 35.4659 55.9091 28.75 47.625 28.75C39.3409 28.75 32.625 35.4659 32.625 43.75H30.125C30.125 34.085 37.96 26.25 47.625 26.25C57.2895 26.25 65.125 34.085 65.125 43.75Z" fill="#2A4488" style="fill:#2A4488;fill:color(display-p3 0.1647 0.2667 0.5333);fill-opacity:1;"/>
<path d="M47.625 53.75C43.4829 53.75 40.125 50.3916 40.125 46.25C40.125 42.1079 43.4829 38.75 47.625 38.75C51.7675 38.75 55.125 42.1079 55.125 46.25C55.1206 50.3906 51.7656 53.7456 47.625 53.75ZM47.625 41.25C44.8638 41.25 42.625 43.4887 42.625 46.25C42.625 49.0112 44.8638 51.25 47.625 51.25C50.3862 51.25 52.625 49.0112 52.625 46.25C52.625 43.4887 50.3862 41.25 47.625 41.25ZM68.875 58.75C64.7329 58.75 61.375 55.3916 61.375 51.25C61.375 47.1079 64.7329 43.75 68.875 43.75C73.0171 43.75 76.375 47.1079 76.375 51.25C76.3706 55.3906 73.0156 58.7456 68.875 58.75ZM68.875 46.25C66.1138 46.25 63.875 48.4888 63.875 51.25C63.875 54.0112 66.1138 56.25 68.875 56.25C71.6362 56.25 73.875 54.0112 73.875 51.25C73.875 48.4888 71.6362 46.25 68.875 46.25ZM26.375 58.75C22.2329 58.75 18.875 55.3916 18.875 51.25C18.875 47.1079 22.2329 43.75 26.375 43.75C30.5175 43.75 33.875 47.1079 33.875 51.25C33.8706 55.3906 30.5156 58.7456 26.375 58.75ZM26.375 46.25C23.6137 46.25 21.375 48.4888 21.375 51.25C21.375 54.0112 23.6137 56.25 26.375 56.25C29.1362 56.25 31.375 54.0112 31.375 51.25C31.375 48.4888 29.1362 46.25 26.375 46.25Z" fill="#4264AA" style="fill:#4264AA;fill:color(display-p3 0.2588 0.3922 0.6667);fill-opacity:1;"/>
<path d="M80.207 61.9571C78.3442 60.6765 76.1355 59.9939 73.875 60.0001H63.875C63.2669 60.0055 62.6602 60.0605 62.061 60.1646C61.261 58.9137 60.2205 57.834 59 56.9883C58.817 56.85 58.6245 56.7249 58.4238 56.6138C56.6751 55.5551 54.6692 54.9969 52.625 55.0001H42.625C40.7444 54.9935 38.8928 55.4637 37.2433 56.3669C35.5937 57.27 34.2 58.5766 33.1925 60.1646C32.5921 60.0605 31.9843 60.0055 31.375 60.0001H21.375C19.1159 59.9939 16.9085 60.6757 15.0464 61.9547C13.5308 62.9859 12.2902 64.3718 11.4325 65.9918C10.5748 67.6119 10.1259 69.417 10.125 71.2501V76.2501C10.1294 79.6632 12.1152 82.7628 15.2154 84.1926C16.3597 84.7315 17.6101 85.0074 18.875 85.0001H31.375V82.5001H20.125V68.7501H17.625V82.3746C17.1545 82.2801 16.6973 82.1283 16.2638 81.9224C15.1794 81.4225 14.2606 80.6228 13.6159 79.6177C12.9711 78.6127 12.6273 77.4442 12.625 76.2501V71.2501C12.6265 69.8235 12.9764 68.4189 13.6444 67.1584C14.3123 65.8979 15.278 64.8195 16.4575 64.0172C17.9047 63.0241 19.6198 62.4949 21.375 62.5001H31.375C31.5952 62.5001 31.8075 62.5236 32.0225 62.5382C31.5995 63.7303 31.3806 64.9852 31.375 66.2501V78.7501C31.3794 82.2003 34.1753 84.9957 37.625 85.0001H41.375V65.0001H38.875V82.5001H37.625C35.5543 82.5001 33.875 80.8208 33.875 78.7501V66.2501C33.875 61.4171 37.793 57.5001 42.625 57.5001H52.625C54.2332 57.5012 55.8099 57.9463 57.1813 58.7863C57.308 58.8555 57.4299 58.9335 57.5459 59.0196C58.7171 59.8215 59.6784 60.8933 60.3486 62.1446C61.0223 63.4082 61.3747 64.8181 61.375 66.2501V78.7501C61.375 80.8208 59.6958 82.5001 57.625 82.5001H56.375V65.0001H53.875V85.0001H57.625C61.0752 84.9957 63.8706 82.2003 63.875 78.7501V66.2501C63.8692 64.9853 63.6507 63.7305 63.2285 62.5382C63.4439 62.5234 63.6562 62.5001 63.875 62.5001H73.875C75.6315 62.4953 77.3479 63.0253 78.7959 64.0196C79.9743 64.8222 80.9391 65.9003 81.6064 67.1604C82.2737 68.4204 82.6233 69.8243 82.625 71.2501V76.2501C82.6228 77.4481 82.2768 78.6204 81.6281 79.6276C80.9794 80.6348 80.0552 81.4347 78.9654 81.9322C78.5385 82.1342 78.0883 82.2828 77.625 82.3747V68.7501H75.125V82.5001H63.875V85.0001H76.375C77.6322 85.008 78.8753 84.7354 80.0137 84.2022C83.124 82.7769 85.12 79.6714 85.125 76.2501V71.2501C85.124 69.4177 84.6755 67.6133 83.8184 65.9937C82.9613 64.3741 81.7216 62.9884 80.207 61.9571Z" fill="#2A4488" style="fill:#2A4488;fill:color(display-p3 0.1647 0.2667 0.5333);fill-opacity:1;"/>
<path d="M42.625 82.5H52.625V85H42.625V82.5Z" fill="black" style="fill:black;fill-opacity:1;"/>
</g>
<defs>
<clipPath id="clip0_2090_3554">
<rect width="80" height="80" fill="white" style="fill:white;fill-opacity:1;" transform="translate(10 10)"/>
</clipPath>
</defs>
</svg>
