<svg width="100" height="100" viewBox="0 0 100 100" fill="none" xmlns="http://www.w3.org/2000/svg">
<mask id="path-2-outside-1_2090_3655" maskUnits="userSpaceOnUse" x="11.1279" y="14.2344" width="78" height="73" fill="black">
<rect fill="white" x="11.1279" y="14.2344" width="78" height="73"/>
<path d="M20.0624 59.1406C23.9062 72.6562 36.2968 82.1406 50.5624 82.1406C65.4062 82.1406 78.1562 71.8594 81.4218 57.5313L79.7812 57.1875C76.6562 70.7812 64.5155 80.4531 50.5624 80.4531C37.078 80.4531 25.328 71.4688 21.6874 58.6875C21.4999 58.0313 21.8749 57.3438 22.5468 57.1406L23.7187 56.8281L18.9062 52.0469L17.1405 58.625L18.5312 58.25C19.203 58.0625 19.8905 58.4688 20.0624 59.1406ZM29.9687 77.75C24.4218 73.5625 20.203 67.7344 18.0155 60.9688L15.7187 61.5781C14.7812 61.8281 13.9218 60.9844 14.1718 60.0469L17.0468 49.375C17.2968 48.3594 18.4843 48.0938 19.1562 48.75L27.0312 56.625C27.703 57.2969 27.4062 58.4688 26.4687 58.7188L24.4687 59.25C28.203 70.3438 38.6405 77.9844 50.5624 77.9844C63.7812 77.9844 75.1718 68.5625 77.5937 55.5312C77.7187 54.8438 78.3749 54.3906 79.0624 54.5312L83.0937 55.3438C83.828 55.4844 84.2655 56.125 84.1405 56.8125C81.1249 72.9062 67.0468 84.6562 50.578 84.6562C42.828 84.6562 35.703 82.0781 29.9687 77.75ZM81.0155 41.7344C77.1405 28.1563 64.7968 18.7344 50.5624 18.7344C35.6874 18.7344 22.9218 29.0469 19.6562 43.3438L21.2968 43.6719C24.4062 30.1563 36.4999 20.4062 50.5624 20.4062C63.9374 20.4062 75.7187 29.2969 79.3905 42.1719C79.578 42.8281 79.203 43.5156 78.5312 43.7188L77.3593 44.0312L82.1718 48.8438L83.9374 42.2656L82.5624 42.6406C81.8749 42.8281 81.1874 42.4219 81.0155 41.7344ZM71.1405 23.125C76.6405 27.2812 80.8593 33.0938 83.0624 39.9062L85.3593 39.2969C86.2968 39.0312 87.1562 39.8906 86.9062 40.8281L84.0468 51.5156C83.7968 52.5313 82.6093 52.7969 81.9374 52.1406L74.0624 44.2656C73.3905 43.5937 73.6874 42.4219 74.6249 42.1719L76.6249 41.6406C72.8749 30.4688 62.3905 22.9062 50.5624 22.9062C37.2343 22.9062 25.9062 32.4219 23.4843 45.3594C23.3593 46.0469 22.703 46.5 22.0155 46.3594L17.9999 45.5469C17.2655 45.4063 16.828 44.7656 16.953 44.0781C19.953 28.0469 34.0468 16.2344 50.5624 16.2344C58.2499 16.2344 65.4062 18.7812 71.1405 23.125ZM59.4374 50.3438C58.7655 50.5156 58.0937 50.125 57.9062 49.4531C57.7343 48.7812 58.1249 48.1094 58.7812 47.9219L60.3124 47.5156C60.9843 47.3438 61.6562 47.7344 61.8437 48.4062C62.0155 49.0781 61.6249 49.75 60.953 49.9375L59.4374 50.3438ZM58.1093 46.4688C57.7343 47.0469 56.9687 47.2188 56.3905 46.8594C55.8124 46.4844 55.6405 45.7188 55.9999 45.1406L56.703 44.0312C57.078 43.4531 57.8437 43.2812 58.4218 43.6406C58.9999 44 59.1718 44.7812 58.8124 45.3594L58.1093 46.4688ZM58.4218 54.1406C57.8124 53.8281 57.578 53.0625 57.8905 52.4688C58.203 51.8594 58.953 51.625 59.5624 51.9375L60.7343 52.5469C61.3437 52.8594 61.578 53.625 61.2655 54.2344C60.953 54.8438 60.203 55.0781 59.5937 54.7656L58.4218 54.1406ZM53.8437 46.3438C56.8905 46.5781 58.7499 49.9219 57.2812 52.6719C56.9687 53.2656 56.4999 53.7813 55.9374 54.1719L56.9843 58.0938C57.2343 59 56.3905 59.9375 55.328 59.5781L47.5468 57.2188L44.2499 58.1094C42.4687 58.5938 40.6093 57.5156 40.1249 55.7344L39.2812 52.625C39.0468 51.75 39.1874 50.7969 39.6249 50.0781C40.0624 49.3281 40.7655 48.75 41.6718 48.5L44.9687 47.6094L50.578 41.6094C51.2499 40.8906 52.4374 41.2031 52.6874 42.1406L53.8437 46.3438ZM55.2343 50.1719C55.1249 49.7812 54.9062 49.4531 54.6093 49.2188L55.1718 51.3125C55.3124 50.9688 55.3437 50.5625 55.2343 50.1719ZM44.7655 50.2656L42.328 50.9219C42.0937 50.9844 41.9218 51.1406 41.8124 51.3281C41.703 51.5156 41.6718 51.75 41.7343 51.9844L42.5624 55.0938C42.6874 55.5625 43.1718 55.8281 43.6249 55.7031L46.0624 55.0469L44.7655 50.2656ZM50.8905 44.9531L47.0312 49.0781L48.5937 54.9531L53.9999 56.5938L50.8905 44.9531ZM50.5312 35.5156C58.7812 35.5156 65.4687 42.2031 65.4687 50.4531C65.4687 58.7031 58.7812 65.3906 50.5312 65.3906C42.2812 65.3906 35.5937 58.7031 35.5937 50.4531C35.6093 42.2031 42.2968 35.5156 50.5312 35.5156ZM59.328 41.6563C54.4687 36.7969 46.6093 36.7969 41.7499 41.6563C36.8905 46.5156 36.8905 54.3906 41.7499 59.2344C46.6093 64.0938 54.4843 64.0938 59.328 59.2344C64.1874 54.375 64.1874 46.5 59.328 41.6563ZM53.4687 32.5469L52.328 29.4844H48.7499L47.6093 32.5469C47.453 32.9688 47.0937 33.25 46.6874 33.3281C44.7655 33.7344 42.7968 34.5781 41.1405 35.625C40.7499 35.875 40.2812 35.875 39.9062 35.6875L36.9843 34.3594L34.4687 36.8906L35.828 39.875C35.9999 40.2812 35.9687 40.7187 35.7499 41.0625C34.6718 42.7656 33.8749 44.6562 33.4374 46.625C33.3437 47.0469 33.0312 47.375 32.6562 47.5312L29.5937 48.6719V52.2344L32.6562 53.375C33.078 53.5312 33.3593 53.8906 33.4374 54.2969C33.8437 56.2031 34.703 58.1875 35.7343 59.8281C35.9843 60.2188 35.9843 60.6875 35.7968 61.0625L34.4687 63.9844L36.9843 66.5156L39.9687 65.1562C40.3749 64.9688 40.8124 65.0156 41.1562 65.2344C42.8593 66.3125 44.7499 67.1094 46.7187 67.5469C47.1405 67.6406 47.4687 67.9531 47.6249 68.3281L48.7655 71.3906H52.3437L53.4843 68.3281C53.6405 67.9062 53.9999 67.625 54.4062 67.5469C56.3124 67.1406 58.2968 66.2812 59.953 65.25C60.3437 65 60.8124 65 61.1874 65.1875L64.1249 66.5156L66.6405 63.9844L65.2812 61C65.1093 60.5938 65.1405 60.1562 65.3593 59.8125C66.4374 58.1094 67.2343 56.2188 67.6718 54.25C67.7655 53.8281 68.078 53.5 68.453 53.3438L71.5155 52.2031V48.6406L68.453 47.5C68.0312 47.3438 67.7499 46.9844 67.6718 46.5781C67.2655 44.6563 66.4218 42.7031 65.3749 41.0469C65.1249 40.6562 65.1249 40.1875 65.3124 39.8125L66.6405 36.8906L64.1249 34.3594L61.1405 35.7188C60.7499 35.9062 60.2968 35.8594 59.9687 35.6406C59.0468 35.0625 58.2655 34.6562 57.2812 34.25C56.3437 33.8594 55.3905 33.5625 54.4062 33.3437C53.9374 33.2344 53.6093 32.9375 53.4687 32.5469ZM54.3437 27.8125L55.5624 31.0625C56.4687 31.2969 57.3593 31.5937 58.1874 31.9375C59.0468 32.2969 59.8905 32.7188 60.6718 33.1719L63.7655 31.7656C64.2343 31.5156 64.8437 31.5937 65.2343 31.9844L68.9843 35.7344C69.3437 36.0938 69.453 36.6406 69.2343 37.125L67.7968 40.2969C68.7343 41.8906 69.4374 43.6094 69.9062 45.4063L73.0624 46.5937C73.5937 46.7344 73.9843 47.2344 73.9843 47.7969V53.0938C73.9843 53.5938 73.6718 54.0781 73.1718 54.2656L69.9218 55.4844C69.453 57.2969 68.7499 59 67.8124 60.5938L69.2187 63.6875C69.4687 64.1562 69.3905 64.7656 68.9999 65.1562L65.2499 68.9062C64.8905 69.2656 64.3437 69.375 63.8593 69.1562L60.6874 67.7188C59.0937 68.6562 57.3905 69.3594 55.578 69.8281L54.3905 72.9844C54.2499 73.5156 53.7655 73.9062 53.1874 73.9062H47.8905C47.3905 73.9062 46.9062 73.5938 46.7187 73.0938L45.4999 69.8438C43.6874 69.375 41.9843 68.6719 40.3905 67.7344L37.2968 69.1406C36.828 69.3906 36.2187 69.3125 35.828 68.9219L32.078 65.1719C31.7187 64.8125 31.6093 64.2656 31.828 63.7813L33.2655 60.6094C32.328 59.0156 31.6249 57.3125 31.1562 55.5L27.9999 54.3125C27.4687 54.1719 27.0937 53.6719 27.0937 53.1094V47.8125C27.0937 47.3125 27.4062 46.8281 27.9062 46.6406L31.1562 45.4219C31.6249 43.6094 32.328 41.9062 33.2655 40.3125L31.8593 37.2187C31.6093 36.75 31.6874 36.1406 32.078 35.75L35.828 32C36.1874 31.6406 36.7343 31.5312 37.2187 31.75L40.3905 33.1875C41.9843 32.25 43.703 31.5312 45.4999 31.0781L46.6874 27.9219C46.828 27.3906 47.3124 27 47.8905 27H53.1874C53.6874 27 54.1718 27.3125 54.3437 27.8125Z"/>
</mask>
<path d="M20.0624 59.1406C23.9062 72.6562 36.2968 82.1406 50.5624 82.1406C65.4062 82.1406 78.1562 71.8594 81.4218 57.5313L79.7812 57.1875C76.6562 70.7812 64.5155 80.4531 50.5624 80.4531C37.078 80.4531 25.328 71.4688 21.6874 58.6875C21.4999 58.0313 21.8749 57.3438 22.5468 57.1406L23.7187 56.8281L18.9062 52.0469L17.1405 58.625L18.5312 58.25C19.203 58.0625 19.8905 58.4688 20.0624 59.1406ZM29.9687 77.75C24.4218 73.5625 20.203 67.7344 18.0155 60.9688L15.7187 61.5781C14.7812 61.8281 13.9218 60.9844 14.1718 60.0469L17.0468 49.375C17.2968 48.3594 18.4843 48.0938 19.1562 48.75L27.0312 56.625C27.703 57.2969 27.4062 58.4688 26.4687 58.7188L24.4687 59.25C28.203 70.3438 38.6405 77.9844 50.5624 77.9844C63.7812 77.9844 75.1718 68.5625 77.5937 55.5312C77.7187 54.8438 78.3749 54.3906 79.0624 54.5312L83.0937 55.3438C83.828 55.4844 84.2655 56.125 84.1405 56.8125C81.1249 72.9062 67.0468 84.6562 50.578 84.6562C42.828 84.6562 35.703 82.0781 29.9687 77.75ZM81.0155 41.7344C77.1405 28.1563 64.7968 18.7344 50.5624 18.7344C35.6874 18.7344 22.9218 29.0469 19.6562 43.3438L21.2968 43.6719C24.4062 30.1563 36.4999 20.4062 50.5624 20.4062C63.9374 20.4062 75.7187 29.2969 79.3905 42.1719C79.578 42.8281 79.203 43.5156 78.5312 43.7188L77.3593 44.0312L82.1718 48.8438L83.9374 42.2656L82.5624 42.6406C81.8749 42.8281 81.1874 42.4219 81.0155 41.7344ZM71.1405 23.125C76.6405 27.2812 80.8593 33.0938 83.0624 39.9062L85.3593 39.2969C86.2968 39.0312 87.1562 39.8906 86.9062 40.8281L84.0468 51.5156C83.7968 52.5313 82.6093 52.7969 81.9374 52.1406L74.0624 44.2656C73.3905 43.5937 73.6874 42.4219 74.6249 42.1719L76.6249 41.6406C72.8749 30.4688 62.3905 22.9062 50.5624 22.9062C37.2343 22.9062 25.9062 32.4219 23.4843 45.3594C23.3593 46.0469 22.703 46.5 22.0155 46.3594L17.9999 45.5469C17.2655 45.4063 16.828 44.7656 16.953 44.0781C19.953 28.0469 34.0468 16.2344 50.5624 16.2344C58.2499 16.2344 65.4062 18.7812 71.1405 23.125ZM59.4374 50.3438C58.7655 50.5156 58.0937 50.125 57.9062 49.4531C57.7343 48.7812 58.1249 48.1094 58.7812 47.9219L60.3124 47.5156C60.9843 47.3438 61.6562 47.7344 61.8437 48.4062C62.0155 49.0781 61.6249 49.75 60.953 49.9375L59.4374 50.3438ZM58.1093 46.4688C57.7343 47.0469 56.9687 47.2188 56.3905 46.8594C55.8124 46.4844 55.6405 45.7188 55.9999 45.1406L56.703 44.0312C57.078 43.4531 57.8437 43.2812 58.4218 43.6406C58.9999 44 59.1718 44.7812 58.8124 45.3594L58.1093 46.4688ZM58.4218 54.1406C57.8124 53.8281 57.578 53.0625 57.8905 52.4688C58.203 51.8594 58.953 51.625 59.5624 51.9375L60.7343 52.5469C61.3437 52.8594 61.578 53.625 61.2655 54.2344C60.953 54.8438 60.203 55.0781 59.5937 54.7656L58.4218 54.1406ZM53.8437 46.3438C56.8905 46.5781 58.7499 49.9219 57.2812 52.6719C56.9687 53.2656 56.4999 53.7813 55.9374 54.1719L56.9843 58.0938C57.2343 59 56.3905 59.9375 55.328 59.5781L47.5468 57.2188L44.2499 58.1094C42.4687 58.5938 40.6093 57.5156 40.1249 55.7344L39.2812 52.625C39.0468 51.75 39.1874 50.7969 39.6249 50.0781C40.0624 49.3281 40.7655 48.75 41.6718 48.5L44.9687 47.6094L50.578 41.6094C51.2499 40.8906 52.4374 41.2031 52.6874 42.1406L53.8437 46.3438ZM55.2343 50.1719C55.1249 49.7812 54.9062 49.4531 54.6093 49.2188L55.1718 51.3125C55.3124 50.9688 55.3437 50.5625 55.2343 50.1719ZM44.7655 50.2656L42.328 50.9219C42.0937 50.9844 41.9218 51.1406 41.8124 51.3281C41.703 51.5156 41.6718 51.75 41.7343 51.9844L42.5624 55.0938C42.6874 55.5625 43.1718 55.8281 43.6249 55.7031L46.0624 55.0469L44.7655 50.2656ZM50.8905 44.9531L47.0312 49.0781L48.5937 54.9531L53.9999 56.5938L50.8905 44.9531ZM50.5312 35.5156C58.7812 35.5156 65.4687 42.2031 65.4687 50.4531C65.4687 58.7031 58.7812 65.3906 50.5312 65.3906C42.2812 65.3906 35.5937 58.7031 35.5937 50.4531C35.6093 42.2031 42.2968 35.5156 50.5312 35.5156ZM59.328 41.6563C54.4687 36.7969 46.6093 36.7969 41.7499 41.6563C36.8905 46.5156 36.8905 54.3906 41.7499 59.2344C46.6093 64.0938 54.4843 64.0938 59.328 59.2344C64.1874 54.375 64.1874 46.5 59.328 41.6563ZM53.4687 32.5469L52.328 29.4844H48.7499L47.6093 32.5469C47.453 32.9688 47.0937 33.25 46.6874 33.3281C44.7655 33.7344 42.7968 34.5781 41.1405 35.625C40.7499 35.875 40.2812 35.875 39.9062 35.6875L36.9843 34.3594L34.4687 36.8906L35.828 39.875C35.9999 40.2812 35.9687 40.7187 35.7499 41.0625C34.6718 42.7656 33.8749 44.6562 33.4374 46.625C33.3437 47.0469 33.0312 47.375 32.6562 47.5312L29.5937 48.6719V52.2344L32.6562 53.375C33.078 53.5312 33.3593 53.8906 33.4374 54.2969C33.8437 56.2031 34.703 58.1875 35.7343 59.8281C35.9843 60.2188 35.9843 60.6875 35.7968 61.0625L34.4687 63.9844L36.9843 66.5156L39.9687 65.1562C40.3749 64.9688 40.8124 65.0156 41.1562 65.2344C42.8593 66.3125 44.7499 67.1094 46.7187 67.5469C47.1405 67.6406 47.4687 67.9531 47.6249 68.3281L48.7655 71.3906H52.3437L53.4843 68.3281C53.6405 67.9062 53.9999 67.625 54.4062 67.5469C56.3124 67.1406 58.2968 66.2812 59.953 65.25C60.3437 65 60.8124 65 61.1874 65.1875L64.1249 66.5156L66.6405 63.9844L65.2812 61C65.1093 60.5938 65.1405 60.1562 65.3593 59.8125C66.4374 58.1094 67.2343 56.2188 67.6718 54.25C67.7655 53.8281 68.078 53.5 68.453 53.3438L71.5155 52.2031V48.6406L68.453 47.5C68.0312 47.3438 67.7499 46.9844 67.6718 46.5781C67.2655 44.6563 66.4218 42.7031 65.3749 41.0469C65.1249 40.6562 65.1249 40.1875 65.3124 39.8125L66.6405 36.8906L64.1249 34.3594L61.1405 35.7188C60.7499 35.9062 60.2968 35.8594 59.9687 35.6406C59.0468 35.0625 58.2655 34.6562 57.2812 34.25C56.3437 33.8594 55.3905 33.5625 54.4062 33.3437C53.9374 33.2344 53.6093 32.9375 53.4687 32.5469ZM54.3437 27.8125L55.5624 31.0625C56.4687 31.2969 57.3593 31.5937 58.1874 31.9375C59.0468 32.2969 59.8905 32.7188 60.6718 33.1719L63.7655 31.7656C64.2343 31.5156 64.8437 31.5937 65.2343 31.9844L68.9843 35.7344C69.3437 36.0938 69.453 36.6406 69.2343 37.125L67.7968 40.2969C68.7343 41.8906 69.4374 43.6094 69.9062 45.4063L73.0624 46.5937C73.5937 46.7344 73.9843 47.2344 73.9843 47.7969V53.0938C73.9843 53.5938 73.6718 54.0781 73.1718 54.2656L69.9218 55.4844C69.453 57.2969 68.7499 59 67.8124 60.5938L69.2187 63.6875C69.4687 64.1562 69.3905 64.7656 68.9999 65.1562L65.2499 68.9062C64.8905 69.2656 64.3437 69.375 63.8593 69.1562L60.6874 67.7188C59.0937 68.6562 57.3905 69.3594 55.578 69.8281L54.3905 72.9844C54.2499 73.5156 53.7655 73.9062 53.1874 73.9062H47.8905C47.3905 73.9062 46.9062 73.5938 46.7187 73.0938L45.4999 69.8438C43.6874 69.375 41.9843 68.6719 40.3905 67.7344L37.2968 69.1406C36.828 69.3906 36.2187 69.3125 35.828 68.9219L32.078 65.1719C31.7187 64.8125 31.6093 64.2656 31.828 63.7813L33.2655 60.6094C32.328 59.0156 31.6249 57.3125 31.1562 55.5L27.9999 54.3125C27.4687 54.1719 27.0937 53.6719 27.0937 53.1094V47.8125C27.0937 47.3125 27.4062 46.8281 27.9062 46.6406L31.1562 45.4219C31.6249 43.6094 32.328 41.9062 33.2655 40.3125L31.8593 37.2187C31.6093 36.75 31.6874 36.1406 32.078 35.75L35.828 32C36.1874 31.6406 36.7343 31.5312 37.2187 31.75L40.3905 33.1875C41.9843 32.25 43.703 31.5312 45.4999 31.0781L46.6874 27.9219C46.828 27.3906 47.3124 27 47.8905 27H53.1874C53.6874 27 54.1718 27.3125 54.3437 27.8125Z" fill="#2A4488" style="fill:#2A4488;fill:color(display-p3 0.1647 0.2667 0.5333);fill-opacity:1;"/>
<path d="M20.0624 59.1406C23.9062 72.6562 36.2968 82.1406 50.5624 82.1406C65.4062 82.1406 78.1562 71.8594 81.4218 57.5313L79.7812 57.1875C76.6562 70.7812 64.5155 80.4531 50.5624 80.4531C37.078 80.4531 25.328 71.4688 21.6874 58.6875C21.4999 58.0313 21.8749 57.3438 22.5468 57.1406L23.7187 56.8281L18.9062 52.0469L17.1405 58.625L18.5312 58.25C19.203 58.0625 19.8905 58.4688 20.0624 59.1406ZM29.9687 77.75C24.4218 73.5625 20.203 67.7344 18.0155 60.9688L15.7187 61.5781C14.7812 61.8281 13.9218 60.9844 14.1718 60.0469L17.0468 49.375C17.2968 48.3594 18.4843 48.0938 19.1562 48.75L27.0312 56.625C27.703 57.2969 27.4062 58.4688 26.4687 58.7188L24.4687 59.25C28.203 70.3438 38.6405 77.9844 50.5624 77.9844C63.7812 77.9844 75.1718 68.5625 77.5937 55.5312C77.7187 54.8438 78.3749 54.3906 79.0624 54.5312L83.0937 55.3438C83.828 55.4844 84.2655 56.125 84.1405 56.8125C81.1249 72.9062 67.0468 84.6562 50.578 84.6562C42.828 84.6562 35.703 82.0781 29.9687 77.75ZM81.0155 41.7344C77.1405 28.1563 64.7968 18.7344 50.5624 18.7344C35.6874 18.7344 22.9218 29.0469 19.6562 43.3438L21.2968 43.6719C24.4062 30.1563 36.4999 20.4062 50.5624 20.4062C63.9374 20.4062 75.7187 29.2969 79.3905 42.1719C79.578 42.8281 79.203 43.5156 78.5312 43.7188L77.3593 44.0312L82.1718 48.8438L83.9374 42.2656L82.5624 42.6406C81.8749 42.8281 81.1874 42.4219 81.0155 41.7344ZM71.1405 23.125C76.6405 27.2812 80.8593 33.0938 83.0624 39.9062L85.3593 39.2969C86.2968 39.0312 87.1562 39.8906 86.9062 40.8281L84.0468 51.5156C83.7968 52.5313 82.6093 52.7969 81.9374 52.1406L74.0624 44.2656C73.3905 43.5937 73.6874 42.4219 74.6249 42.1719L76.6249 41.6406C72.8749 30.4688 62.3905 22.9062 50.5624 22.9062C37.2343 22.9062 25.9062 32.4219 23.4843 45.3594C23.3593 46.0469 22.703 46.5 22.0155 46.3594L17.9999 45.5469C17.2655 45.4063 16.828 44.7656 16.953 44.0781C19.953 28.0469 34.0468 16.2344 50.5624 16.2344C58.2499 16.2344 65.4062 18.7812 71.1405 23.125ZM59.4374 50.3438C58.7655 50.5156 58.0937 50.125 57.9062 49.4531C57.7343 48.7812 58.1249 48.1094 58.7812 47.9219L60.3124 47.5156C60.9843 47.3438 61.6562 47.7344 61.8437 48.4062C62.0155 49.0781 61.6249 49.75 60.953 49.9375L59.4374 50.3438ZM58.1093 46.4688C57.7343 47.0469 56.9687 47.2188 56.3905 46.8594C55.8124 46.4844 55.6405 45.7188 55.9999 45.1406L56.703 44.0312C57.078 43.4531 57.8437 43.2812 58.4218 43.6406C58.9999 44 59.1718 44.7812 58.8124 45.3594L58.1093 46.4688ZM58.4218 54.1406C57.8124 53.8281 57.578 53.0625 57.8905 52.4688C58.203 51.8594 58.953 51.625 59.5624 51.9375L60.7343 52.5469C61.3437 52.8594 61.578 53.625 61.2655 54.2344C60.953 54.8438 60.203 55.0781 59.5937 54.7656L58.4218 54.1406ZM53.8437 46.3438C56.8905 46.5781 58.7499 49.9219 57.2812 52.6719C56.9687 53.2656 56.4999 53.7813 55.9374 54.1719L56.9843 58.0938C57.2343 59 56.3905 59.9375 55.328 59.5781L47.5468 57.2188L44.2499 58.1094C42.4687 58.5938 40.6093 57.5156 40.1249 55.7344L39.2812 52.625C39.0468 51.75 39.1874 50.7969 39.6249 50.0781C40.0624 49.3281 40.7655 48.75 41.6718 48.5L44.9687 47.6094L50.578 41.6094C51.2499 40.8906 52.4374 41.2031 52.6874 42.1406L53.8437 46.3438ZM55.2343 50.1719C55.1249 49.7812 54.9062 49.4531 54.6093 49.2188L55.1718 51.3125C55.3124 50.9688 55.3437 50.5625 55.2343 50.1719ZM44.7655 50.2656L42.328 50.9219C42.0937 50.9844 41.9218 51.1406 41.8124 51.3281C41.703 51.5156 41.6718 51.75 41.7343 51.9844L42.5624 55.0938C42.6874 55.5625 43.1718 55.8281 43.6249 55.7031L46.0624 55.0469L44.7655 50.2656ZM50.8905 44.9531L47.0312 49.0781L48.5937 54.9531L53.9999 56.5938L50.8905 44.9531ZM50.5312 35.5156C58.7812 35.5156 65.4687 42.2031 65.4687 50.4531C65.4687 58.7031 58.7812 65.3906 50.5312 65.3906C42.2812 65.3906 35.5937 58.7031 35.5937 50.4531C35.6093 42.2031 42.2968 35.5156 50.5312 35.5156ZM59.328 41.6563C54.4687 36.7969 46.6093 36.7969 41.7499 41.6563C36.8905 46.5156 36.8905 54.3906 41.7499 59.2344C46.6093 64.0938 54.4843 64.0938 59.328 59.2344C64.1874 54.375 64.1874 46.5 59.328 41.6563ZM53.4687 32.5469L52.328 29.4844H48.7499L47.6093 32.5469C47.453 32.9688 47.0937 33.25 46.6874 33.3281C44.7655 33.7344 42.7968 34.5781 41.1405 35.625C40.7499 35.875 40.2812 35.875 39.9062 35.6875L36.9843 34.3594L34.4687 36.8906L35.828 39.875C35.9999 40.2812 35.9687 40.7187 35.7499 41.0625C34.6718 42.7656 33.8749 44.6562 33.4374 46.625C33.3437 47.0469 33.0312 47.375 32.6562 47.5312L29.5937 48.6719V52.2344L32.6562 53.375C33.078 53.5312 33.3593 53.8906 33.4374 54.2969C33.8437 56.2031 34.703 58.1875 35.7343 59.8281C35.9843 60.2188 35.9843 60.6875 35.7968 61.0625L34.4687 63.9844L36.9843 66.5156L39.9687 65.1562C40.3749 64.9688 40.8124 65.0156 41.1562 65.2344C42.8593 66.3125 44.7499 67.1094 46.7187 67.5469C47.1405 67.6406 47.4687 67.9531 47.6249 68.3281L48.7655 71.3906H52.3437L53.4843 68.3281C53.6405 67.9062 53.9999 67.625 54.4062 67.5469C56.3124 67.1406 58.2968 66.2812 59.953 65.25C60.3437 65 60.8124 65 61.1874 65.1875L64.1249 66.5156L66.6405 63.9844L65.2812 61C65.1093 60.5938 65.1405 60.1562 65.3593 59.8125C66.4374 58.1094 67.2343 56.2188 67.6718 54.25C67.7655 53.8281 68.078 53.5 68.453 53.3438L71.5155 52.2031V48.6406L68.453 47.5C68.0312 47.3438 67.7499 46.9844 67.6718 46.5781C67.2655 44.6563 66.4218 42.7031 65.3749 41.0469C65.1249 40.6562 65.1249 40.1875 65.3124 39.8125L66.6405 36.8906L64.1249 34.3594L61.1405 35.7188C60.7499 35.9062 60.2968 35.8594 59.9687 35.6406C59.0468 35.0625 58.2655 34.6562 57.2812 34.25C56.3437 33.8594 55.3905 33.5625 54.4062 33.3437C53.9374 33.2344 53.6093 32.9375 53.4687 32.5469ZM54.3437 27.8125L55.5624 31.0625C56.4687 31.2969 57.3593 31.5937 58.1874 31.9375C59.0468 32.2969 59.8905 32.7188 60.6718 33.1719L63.7655 31.7656C64.2343 31.5156 64.8437 31.5937 65.2343 31.9844L68.9843 35.7344C69.3437 36.0938 69.453 36.6406 69.2343 37.125L67.7968 40.2969C68.7343 41.8906 69.4374 43.6094 69.9062 45.4063L73.0624 46.5937C73.5937 46.7344 73.9843 47.2344 73.9843 47.7969V53.0938C73.9843 53.5938 73.6718 54.0781 73.1718 54.2656L69.9218 55.4844C69.453 57.2969 68.7499 59 67.8124 60.5938L69.2187 63.6875C69.4687 64.1562 69.3905 64.7656 68.9999 65.1562L65.2499 68.9062C64.8905 69.2656 64.3437 69.375 63.8593 69.1562L60.6874 67.7188C59.0937 68.6562 57.3905 69.3594 55.578 69.8281L54.3905 72.9844C54.2499 73.5156 53.7655 73.9062 53.1874 73.9062H47.8905C47.3905 73.9062 46.9062 73.5938 46.7187 73.0938L45.4999 69.8438C43.6874 69.375 41.9843 68.6719 40.3905 67.7344L37.2968 69.1406C36.828 69.3906 36.2187 69.3125 35.828 68.9219L32.078 65.1719C31.7187 64.8125 31.6093 64.2656 31.828 63.7813L33.2655 60.6094C32.328 59.0156 31.6249 57.3125 31.1562 55.5L27.9999 54.3125C27.4687 54.1719 27.0937 53.6719 27.0937 53.1094V47.8125C27.0937 47.3125 27.4062 46.8281 27.9062 46.6406L31.1562 45.4219C31.6249 43.6094 32.328 41.9062 33.2655 40.3125L31.8593 37.2187C31.6093 36.75 31.6874 36.1406 32.078 35.75L35.828 32C36.1874 31.6406 36.7343 31.5312 37.2187 31.75L40.3905 33.1875C41.9843 32.25 43.703 31.5312 45.4999 31.0781L46.6874 27.9219C46.828 27.3906 47.3124 27 47.8905 27H53.1874C53.6874 27 54.1718 27.3125 54.3437 27.8125Z" stroke="white" style="stroke:white;stroke-opacity:1;" stroke-width="4" mask="url(#path-2-outside-1_2090_3655)"/>
</svg>
