<svg width="100" height="100" viewBox="0 0 100 100" fill="none" xmlns="http://www.w3.org/2000/svg">
<g clip-path="url(#clip0_2090_3422)">
<mask id="path-2-outside-1_2090_3422" maskUnits="userSpaceOnUse" x="9" y="9" width="82" height="82" fill="black">
<rect fill="white" x="9" y="9" width="82" height="82"/>
<path fill-rule="evenodd" clip-rule="evenodd" d="M26.778 84.2355H24.8096C23.4974 84.2355 22.4194 83.2045 22.4194 81.8922V77.8149C22.4194 76.5026 23.4974 75.4247 24.8096 75.4247C26.8717 75.4247 29.1681 75.0967 29.1681 78.2367C29.1681 78.8459 28.9338 79.4083 28.5589 79.8301C29.7774 81.1892 29.2619 84.2355 26.778 84.2355ZM10 24.3878V15.0146C10 12.2496 12.2496 10 15.0146 10H84.9854C87.7504 10 90 12.2496 90 15.0146V84.9854C90 87.7504 87.7504 90 84.9854 90H15.0146C12.2496 90 10 87.7504 10 84.9854V24.3878ZM88.4066 23.5911V15.0146C88.4066 13.0931 86.86 11.5466 84.9854 11.5466H15.0146C13.0931 11.5466 11.5466 13.0931 11.5466 15.0146V23.5911H88.4066ZM18.8108 21.4353C16.655 21.4353 14.9209 19.7012 14.9209 17.5923C14.9209 15.4833 16.655 13.7493 18.8108 13.7493C20.9197 13.7493 22.6538 15.4833 22.6538 17.5923C22.6538 19.7012 20.9197 21.4353 18.8108 21.4353ZM18.8108 15.2958C15.7645 15.2958 15.7645 19.8887 18.8108 19.8887C21.8102 19.8887 21.8102 15.2958 18.8108 15.2958ZM28.7932 21.4353C26.6374 21.4353 24.9033 19.7012 24.9033 17.5923C24.9033 15.4833 26.6374 13.7493 28.7932 13.7493C30.9022 13.7493 32.6362 15.4833 32.6362 17.5923C32.6362 19.7012 30.9022 21.4353 28.7932 21.4353ZM28.7932 15.2958C25.7469 15.2958 25.7469 19.8887 28.7932 19.8887C31.7926 19.8887 31.7926 15.2958 28.7932 15.2958ZM38.7756 21.4353C36.6198 21.4353 34.8858 19.7012 34.8858 17.5923C34.8858 15.4833 36.6198 13.7493 38.7756 13.7493C40.8846 13.7493 42.6186 15.4833 42.6186 17.5923C42.6186 19.7012 40.8846 21.4353 38.7756 21.4353ZM38.7756 15.2958C35.7293 15.2958 35.7293 19.8887 38.7756 19.8887C41.775 19.8887 41.775 15.2958 38.7756 15.2958ZM11.5466 25.1845V84.9854C11.5466 86.86 13.0931 88.4066 15.0146 88.4066H84.9854C86.86 88.4066 88.4066 86.86 88.4066 84.9854V25.1845H11.5466ZM83.1107 18.389H48.3363C47.3052 18.389 47.3052 16.7955 48.3363 16.7955H83.1107C84.1418 16.7955 84.1418 18.389 83.1107 18.389ZM80.4862 74.628C80.0644 74.628 79.7364 74.2999 79.7364 73.8313V67.6919C79.7364 66.6608 81.283 66.6608 81.283 67.6919V73.8313C81.283 74.2999 80.9549 74.628 80.4862 74.628ZM80.4862 59.9121C80.0644 59.9121 79.7364 59.5841 79.7364 59.1154V35.3076C79.7364 34.2765 81.283 34.2765 81.283 35.3076V59.1154C81.283 59.5841 80.9549 59.9121 80.4862 59.9121ZM19.4669 74.628C19.0451 74.628 18.717 74.2999 18.717 73.8313V67.6919C18.717 66.6608 20.2636 66.6608 20.2636 67.6919V73.8313C20.2636 74.2999 19.9356 74.628 19.4669 74.628ZM19.4669 59.9121C19.0451 59.9121 18.717 59.5841 18.717 59.1154V35.3076C18.717 34.2765 20.2636 34.2765 20.2636 35.3076V59.1154C20.2636 59.5841 19.9356 59.9121 19.4669 59.9121ZM60.4277 84.2355H55.2724C54.2414 84.2355 54.2414 82.6889 55.2724 82.6889H57.1002V76.9713C55.8817 76.9713 54.4757 77.2525 54.4757 76.2214C54.4757 75.7528 54.8506 75.4247 55.2724 75.4247H60.4277C61.4587 75.4247 61.4587 76.9713 60.4277 76.9713H58.6467V82.6889C59.8184 82.6889 61.2244 82.4077 61.2244 83.4856C61.2244 83.9074 60.8963 84.2355 60.4277 84.2355ZM68.5823 84.2355C68.348 84.2355 68.1137 84.1418 67.9731 83.9074L64.2238 78.6585V83.4856C64.2238 84.5167 62.6772 84.5167 62.6772 83.4856V76.2214C62.6772 75.4247 63.6145 75.1435 64.0832 75.7528L67.8325 81.0018V76.2214C67.8325 75.1904 69.379 75.1904 69.379 76.2214V83.4856C69.379 83.9074 69.051 84.2355 68.5823 84.2355ZM76.7838 84.2355H71.5817C71.1599 84.2355 70.8319 83.9074 70.8319 83.4856V76.2214C70.8319 75.7528 71.1599 75.4247 71.5817 75.4247H76.7838C77.8149 75.4247 77.8149 76.9713 76.7838 76.9713H72.3784V82.6889H75.9871V80.6268C74.8155 80.6268 73.4095 80.8612 73.4095 79.8301C73.4095 79.4083 73.7376 79.0803 74.1593 79.0803C78.1898 79.0803 77.5337 78.3773 77.5337 83.4856C77.5337 83.9074 77.2056 84.2355 76.7838 84.2355ZM52.273 84.2355C51.7575 84.2355 49.0861 82.1734 48.4769 81.7516C48.4769 82.8764 48.7581 84.2355 47.727 84.2355C47.2583 84.2355 46.9303 83.9074 46.9303 83.4856V76.2214C46.9303 75.1904 48.4769 75.1904 48.4769 76.2214V78.7522L51.8512 76.4089C52.6479 75.7997 53.5852 77.065 52.7417 77.6743L49.0861 80.2519L52.7417 82.8295C53.3509 83.2513 53.0228 84.2355 52.273 84.2355ZM35.0732 84.2355H32.8237C31.6052 84.2355 30.621 83.2513 30.621 81.9859V77.6743C30.621 76.4558 31.6052 75.4247 32.8237 75.4247H35.0732C36.3386 75.4247 37.3228 76.4558 37.3228 77.6743V81.9859C37.3228 83.2513 36.3386 84.2355 35.0732 84.2355ZM32.8237 76.9713C32.4487 76.9713 32.1675 77.2994 32.1675 77.6743V81.9859C32.1675 82.9701 33.6673 82.6889 35.0732 82.6889C35.4482 82.6889 35.7762 82.3609 35.7762 81.9859V77.6743C35.7762 76.6901 34.2765 76.9713 32.8237 76.9713ZM43.2279 84.2355H41.0252C39.7598 84.2355 38.7756 83.2513 38.7756 81.9859V77.6743C38.7756 76.4558 39.7598 75.4247 41.0252 75.4247H43.2279C44.4933 75.4247 45.4774 76.4558 45.4774 77.6743V81.9859C45.4774 83.2513 44.4933 84.2355 43.2279 84.2355ZM41.0252 76.9713C40.6503 76.9713 40.3222 77.2994 40.3222 77.6743V81.9859C40.3222 82.9701 41.8219 82.6889 43.2279 82.6889C43.6028 82.6889 43.9309 82.3609 43.9309 81.9859V77.6743C43.9309 76.6901 42.4312 76.9713 41.0252 76.9713ZM66.7545 65.7704H62.3023V70.2695H68.4886C69.8008 70.2695 70.8787 69.1447 70.8787 67.7387V33.4329C70.8787 32.0269 69.8008 30.9022 68.4886 30.9022H31.4646C30.1523 30.9022 29.1213 32.0269 29.1213 33.4329V67.7387C29.1213 69.1447 30.1523 70.2695 31.4646 70.2695H43.3216L45.0557 65.7704H40.9783C40.744 65.7704 40.5097 65.6766 40.3691 65.4892L32.6362 56.2097C32.4019 55.9285 32.4019 55.5067 32.6362 55.2255L35.0732 52.3199C35.4013 51.9449 36.0105 51.9449 36.2917 52.3199L42.7592 60.0527H66.7545C67.1763 60.0527 67.5044 60.4277 67.5044 60.8494V64.9736C67.5044 65.3954 67.1763 65.7704 66.7545 65.7704ZM60.7088 65.7704H46.7428L44.9619 70.2695H60.7088V65.7704ZM41.3533 64.1769H65.9578V61.5993H42.4312C42.1968 61.5993 41.9625 61.5056 41.8219 61.3181L35.6825 54.007L34.2765 55.7411L41.3533 64.1769ZM61.5056 71.9098C61.365 71.9098 61.2712 71.8629 61.1775 71.8161H31.4646C29.3087 71.8161 27.5278 69.9883 27.5278 67.7387V33.4329C27.5278 31.1834 29.3087 29.3556 31.4646 29.3556H68.4886C70.6913 29.3556 72.4253 31.1834 72.4253 33.4329V67.7387C72.4253 69.9883 70.6913 71.8161 68.4886 71.8161H61.8336C61.7399 71.8629 61.5993 71.9098 61.5056 71.9098ZM59.7715 46.0867C57.2876 46.0867 55.413 43.6965 56.0691 41.2595C56.9596 37.932 61.4118 37.3697 63.099 40.3222C64.5987 42.8998 62.7241 46.0867 59.7715 46.0867ZM59.7715 39.9473C56.7721 39.9473 56.819 44.4933 59.7715 44.4933C62.8178 44.4933 62.7709 39.9473 59.7715 39.9473ZM64.3644 38.4476C63.6614 38.4476 63.3333 37.604 63.802 37.0885C64.505 36.4323 65.2548 35.3544 65.9578 36.0574C66.6608 36.8073 65.6298 37.5103 64.9268 38.2132C64.7862 38.3538 64.5518 38.4476 64.3644 38.4476ZM67.4575 45.0557L65.8641 44.6807C64.833 44.3995 65.2548 42.8998 66.239 43.181C67.1763 43.4153 68.4886 43.5091 68.2074 44.4933C68.1137 44.8682 67.8325 45.0557 67.4575 45.0557ZM61.8336 50.6796C61.0369 50.6796 60.99 49.6954 60.7088 48.7112C60.4277 47.727 61.9742 47.3052 62.2086 48.2894C62.396 49.0392 63.1459 50.6796 61.8336 50.6796ZM54.1945 48.6175C53.4915 48.6175 53.1166 47.8207 53.6321 47.3052C54.2882 46.6022 55.0381 45.5712 55.7879 46.2742C56.4909 46.9772 55.413 47.727 54.71 48.43C54.5694 48.5706 54.382 48.6175 54.1945 48.6175ZM53.5384 41.3533L51.8981 40.9315C50.9139 40.6971 51.3357 39.1506 52.3199 39.4318C53.2572 39.6661 54.5694 39.8067 54.2882 40.744C54.1945 41.1189 53.8664 41.3533 53.5384 41.3533ZM58.1312 36.7604C57.2876 36.7604 57.2408 35.7762 56.9596 34.792C56.7253 33.761 58.225 33.3861 58.5062 34.3702C58.6936 35.0732 59.3966 36.7604 58.1312 36.7604ZM46.1336 39.6192C44.4933 39.6192 46.4148 36.7135 43.4153 36.8541C42.3843 36.901 42.3374 35.3076 43.3685 35.2607C44.587 35.2138 45.4774 35.5888 46.1336 36.2917C47.024 35.2607 49.6954 34.6983 49.6485 36.1043C49.6016 37.604 46.7897 35.8699 46.9303 38.7288C46.9303 39.2443 46.6022 39.6192 46.1336 39.6192ZM45.1494 51.4763C43.5091 51.4763 45.4774 48.6175 42.4312 48.7112C41.4001 48.7581 41.3533 47.2115 42.3843 47.1646C43.5559 47.1178 44.5401 47.4458 45.1494 48.1488C46.0398 47.1178 48.7112 46.5554 48.6643 47.9613C48.6175 49.5079 45.8055 47.727 45.9461 50.5858C45.9461 51.1013 45.618 51.4763 45.1494 51.4763ZM36.8541 44.8213C35.167 44.8213 37.1822 42.0094 34.1359 42.1031C33.1049 42.1031 33.058 40.5565 34.089 40.5097C35.2607 40.4628 36.198 40.8377 36.8541 41.5407C37.8383 40.4159 40.4159 39.9941 40.3691 41.3533C40.3222 42.853 37.4634 41.1189 37.6509 43.9777C37.6509 44.4933 37.3228 44.8213 36.8541 44.8213ZM24.0129 79.0803C26.9654 79.0803 27.6216 79.4552 27.6216 77.8149C27.6216 76.6901 26.1219 76.9713 24.8096 76.9713C23.7786 76.9713 24.0129 78.2367 24.0129 79.0803ZM24.0129 80.6268C24.0129 82.9701 23.8723 82.6889 26.778 82.6889C27.9028 82.6889 27.9028 80.6268 26.778 80.6268H24.0129Z"/>
</mask>
<path fill-rule="evenodd" clip-rule="evenodd" d="M26.778 84.2355H24.8096C23.4974 84.2355 22.4194 83.2045 22.4194 81.8922V77.8149C22.4194 76.5026 23.4974 75.4247 24.8096 75.4247C26.8717 75.4247 29.1681 75.0967 29.1681 78.2367C29.1681 78.8459 28.9338 79.4083 28.5589 79.8301C29.7774 81.1892 29.2619 84.2355 26.778 84.2355ZM10 24.3878V15.0146C10 12.2496 12.2496 10 15.0146 10H84.9854C87.7504 10 90 12.2496 90 15.0146V84.9854C90 87.7504 87.7504 90 84.9854 90H15.0146C12.2496 90 10 87.7504 10 84.9854V24.3878ZM88.4066 23.5911V15.0146C88.4066 13.0931 86.86 11.5466 84.9854 11.5466H15.0146C13.0931 11.5466 11.5466 13.0931 11.5466 15.0146V23.5911H88.4066ZM18.8108 21.4353C16.655 21.4353 14.9209 19.7012 14.9209 17.5923C14.9209 15.4833 16.655 13.7493 18.8108 13.7493C20.9197 13.7493 22.6538 15.4833 22.6538 17.5923C22.6538 19.7012 20.9197 21.4353 18.8108 21.4353ZM18.8108 15.2958C15.7645 15.2958 15.7645 19.8887 18.8108 19.8887C21.8102 19.8887 21.8102 15.2958 18.8108 15.2958ZM28.7932 21.4353C26.6374 21.4353 24.9033 19.7012 24.9033 17.5923C24.9033 15.4833 26.6374 13.7493 28.7932 13.7493C30.9022 13.7493 32.6362 15.4833 32.6362 17.5923C32.6362 19.7012 30.9022 21.4353 28.7932 21.4353ZM28.7932 15.2958C25.7469 15.2958 25.7469 19.8887 28.7932 19.8887C31.7926 19.8887 31.7926 15.2958 28.7932 15.2958ZM38.7756 21.4353C36.6198 21.4353 34.8858 19.7012 34.8858 17.5923C34.8858 15.4833 36.6198 13.7493 38.7756 13.7493C40.8846 13.7493 42.6186 15.4833 42.6186 17.5923C42.6186 19.7012 40.8846 21.4353 38.7756 21.4353ZM38.7756 15.2958C35.7293 15.2958 35.7293 19.8887 38.7756 19.8887C41.775 19.8887 41.775 15.2958 38.7756 15.2958ZM11.5466 25.1845V84.9854C11.5466 86.86 13.0931 88.4066 15.0146 88.4066H84.9854C86.86 88.4066 88.4066 86.86 88.4066 84.9854V25.1845H11.5466ZM83.1107 18.389H48.3363C47.3052 18.389 47.3052 16.7955 48.3363 16.7955H83.1107C84.1418 16.7955 84.1418 18.389 83.1107 18.389ZM80.4862 74.628C80.0644 74.628 79.7364 74.2999 79.7364 73.8313V67.6919C79.7364 66.6608 81.283 66.6608 81.283 67.6919V73.8313C81.283 74.2999 80.9549 74.628 80.4862 74.628ZM80.4862 59.9121C80.0644 59.9121 79.7364 59.5841 79.7364 59.1154V35.3076C79.7364 34.2765 81.283 34.2765 81.283 35.3076V59.1154C81.283 59.5841 80.9549 59.9121 80.4862 59.9121ZM19.4669 74.628C19.0451 74.628 18.717 74.2999 18.717 73.8313V67.6919C18.717 66.6608 20.2636 66.6608 20.2636 67.6919V73.8313C20.2636 74.2999 19.9356 74.628 19.4669 74.628ZM19.4669 59.9121C19.0451 59.9121 18.717 59.5841 18.717 59.1154V35.3076C18.717 34.2765 20.2636 34.2765 20.2636 35.3076V59.1154C20.2636 59.5841 19.9356 59.9121 19.4669 59.9121ZM60.4277 84.2355H55.2724C54.2414 84.2355 54.2414 82.6889 55.2724 82.6889H57.1002V76.9713C55.8817 76.9713 54.4757 77.2525 54.4757 76.2214C54.4757 75.7528 54.8506 75.4247 55.2724 75.4247H60.4277C61.4587 75.4247 61.4587 76.9713 60.4277 76.9713H58.6467V82.6889C59.8184 82.6889 61.2244 82.4077 61.2244 83.4856C61.2244 83.9074 60.8963 84.2355 60.4277 84.2355ZM68.5823 84.2355C68.348 84.2355 68.1137 84.1418 67.9731 83.9074L64.2238 78.6585V83.4856C64.2238 84.5167 62.6772 84.5167 62.6772 83.4856V76.2214C62.6772 75.4247 63.6145 75.1435 64.0832 75.7528L67.8325 81.0018V76.2214C67.8325 75.1904 69.379 75.1904 69.379 76.2214V83.4856C69.379 83.9074 69.051 84.2355 68.5823 84.2355ZM76.7838 84.2355H71.5817C71.1599 84.2355 70.8319 83.9074 70.8319 83.4856V76.2214C70.8319 75.7528 71.1599 75.4247 71.5817 75.4247H76.7838C77.8149 75.4247 77.8149 76.9713 76.7838 76.9713H72.3784V82.6889H75.9871V80.6268C74.8155 80.6268 73.4095 80.8612 73.4095 79.8301C73.4095 79.4083 73.7376 79.0803 74.1593 79.0803C78.1898 79.0803 77.5337 78.3773 77.5337 83.4856C77.5337 83.9074 77.2056 84.2355 76.7838 84.2355ZM52.273 84.2355C51.7575 84.2355 49.0861 82.1734 48.4769 81.7516C48.4769 82.8764 48.7581 84.2355 47.727 84.2355C47.2583 84.2355 46.9303 83.9074 46.9303 83.4856V76.2214C46.9303 75.1904 48.4769 75.1904 48.4769 76.2214V78.7522L51.8512 76.4089C52.6479 75.7997 53.5852 77.065 52.7417 77.6743L49.0861 80.2519L52.7417 82.8295C53.3509 83.2513 53.0228 84.2355 52.273 84.2355ZM35.0732 84.2355H32.8237C31.6052 84.2355 30.621 83.2513 30.621 81.9859V77.6743C30.621 76.4558 31.6052 75.4247 32.8237 75.4247H35.0732C36.3386 75.4247 37.3228 76.4558 37.3228 77.6743V81.9859C37.3228 83.2513 36.3386 84.2355 35.0732 84.2355ZM32.8237 76.9713C32.4487 76.9713 32.1675 77.2994 32.1675 77.6743V81.9859C32.1675 82.9701 33.6673 82.6889 35.0732 82.6889C35.4482 82.6889 35.7762 82.3609 35.7762 81.9859V77.6743C35.7762 76.6901 34.2765 76.9713 32.8237 76.9713ZM43.2279 84.2355H41.0252C39.7598 84.2355 38.7756 83.2513 38.7756 81.9859V77.6743C38.7756 76.4558 39.7598 75.4247 41.0252 75.4247H43.2279C44.4933 75.4247 45.4774 76.4558 45.4774 77.6743V81.9859C45.4774 83.2513 44.4933 84.2355 43.2279 84.2355ZM41.0252 76.9713C40.6503 76.9713 40.3222 77.2994 40.3222 77.6743V81.9859C40.3222 82.9701 41.8219 82.6889 43.2279 82.6889C43.6028 82.6889 43.9309 82.3609 43.9309 81.9859V77.6743C43.9309 76.6901 42.4312 76.9713 41.0252 76.9713ZM66.7545 65.7704H62.3023V70.2695H68.4886C69.8008 70.2695 70.8787 69.1447 70.8787 67.7387V33.4329C70.8787 32.0269 69.8008 30.9022 68.4886 30.9022H31.4646C30.1523 30.9022 29.1213 32.0269 29.1213 33.4329V67.7387C29.1213 69.1447 30.1523 70.2695 31.4646 70.2695H43.3216L45.0557 65.7704H40.9783C40.744 65.7704 40.5097 65.6766 40.3691 65.4892L32.6362 56.2097C32.4019 55.9285 32.4019 55.5067 32.6362 55.2255L35.0732 52.3199C35.4013 51.9449 36.0105 51.9449 36.2917 52.3199L42.7592 60.0527H66.7545C67.1763 60.0527 67.5044 60.4277 67.5044 60.8494V64.9736C67.5044 65.3954 67.1763 65.7704 66.7545 65.7704ZM60.7088 65.7704H46.7428L44.9619 70.2695H60.7088V65.7704ZM41.3533 64.1769H65.9578V61.5993H42.4312C42.1968 61.5993 41.9625 61.5056 41.8219 61.3181L35.6825 54.007L34.2765 55.7411L41.3533 64.1769ZM61.5056 71.9098C61.365 71.9098 61.2712 71.8629 61.1775 71.8161H31.4646C29.3087 71.8161 27.5278 69.9883 27.5278 67.7387V33.4329C27.5278 31.1834 29.3087 29.3556 31.4646 29.3556H68.4886C70.6913 29.3556 72.4253 31.1834 72.4253 33.4329V67.7387C72.4253 69.9883 70.6913 71.8161 68.4886 71.8161H61.8336C61.7399 71.8629 61.5993 71.9098 61.5056 71.9098ZM59.7715 46.0867C57.2876 46.0867 55.413 43.6965 56.0691 41.2595C56.9596 37.932 61.4118 37.3697 63.099 40.3222C64.5987 42.8998 62.7241 46.0867 59.7715 46.0867ZM59.7715 39.9473C56.7721 39.9473 56.819 44.4933 59.7715 44.4933C62.8178 44.4933 62.7709 39.9473 59.7715 39.9473ZM64.3644 38.4476C63.6614 38.4476 63.3333 37.604 63.802 37.0885C64.505 36.4323 65.2548 35.3544 65.9578 36.0574C66.6608 36.8073 65.6298 37.5103 64.9268 38.2132C64.7862 38.3538 64.5518 38.4476 64.3644 38.4476ZM67.4575 45.0557L65.8641 44.6807C64.833 44.3995 65.2548 42.8998 66.239 43.181C67.1763 43.4153 68.4886 43.5091 68.2074 44.4933C68.1137 44.8682 67.8325 45.0557 67.4575 45.0557ZM61.8336 50.6796C61.0369 50.6796 60.99 49.6954 60.7088 48.7112C60.4277 47.727 61.9742 47.3052 62.2086 48.2894C62.396 49.0392 63.1459 50.6796 61.8336 50.6796ZM54.1945 48.6175C53.4915 48.6175 53.1166 47.8207 53.6321 47.3052C54.2882 46.6022 55.0381 45.5712 55.7879 46.2742C56.4909 46.9772 55.413 47.727 54.71 48.43C54.5694 48.5706 54.382 48.6175 54.1945 48.6175ZM53.5384 41.3533L51.8981 40.9315C50.9139 40.6971 51.3357 39.1506 52.3199 39.4318C53.2572 39.6661 54.5694 39.8067 54.2882 40.744C54.1945 41.1189 53.8664 41.3533 53.5384 41.3533ZM58.1312 36.7604C57.2876 36.7604 57.2408 35.7762 56.9596 34.792C56.7253 33.761 58.225 33.3861 58.5062 34.3702C58.6936 35.0732 59.3966 36.7604 58.1312 36.7604ZM46.1336 39.6192C44.4933 39.6192 46.4148 36.7135 43.4153 36.8541C42.3843 36.901 42.3374 35.3076 43.3685 35.2607C44.587 35.2138 45.4774 35.5888 46.1336 36.2917C47.024 35.2607 49.6954 34.6983 49.6485 36.1043C49.6016 37.604 46.7897 35.8699 46.9303 38.7288C46.9303 39.2443 46.6022 39.6192 46.1336 39.6192ZM45.1494 51.4763C43.5091 51.4763 45.4774 48.6175 42.4312 48.7112C41.4001 48.7581 41.3533 47.2115 42.3843 47.1646C43.5559 47.1178 44.5401 47.4458 45.1494 48.1488C46.0398 47.1178 48.7112 46.5554 48.6643 47.9613C48.6175 49.5079 45.8055 47.727 45.9461 50.5858C45.9461 51.1013 45.618 51.4763 45.1494 51.4763ZM36.8541 44.8213C35.167 44.8213 37.1822 42.0094 34.1359 42.1031C33.1049 42.1031 33.058 40.5565 34.089 40.5097C35.2607 40.4628 36.198 40.8377 36.8541 41.5407C37.8383 40.4159 40.4159 39.9941 40.3691 41.3533C40.3222 42.853 37.4634 41.1189 37.6509 43.9777C37.6509 44.4933 37.3228 44.8213 36.8541 44.8213ZM24.0129 79.0803C26.9654 79.0803 27.6216 79.4552 27.6216 77.8149C27.6216 76.6901 26.1219 76.9713 24.8096 76.9713C23.7786 76.9713 24.0129 78.2367 24.0129 79.0803ZM24.0129 80.6268C24.0129 82.9701 23.8723 82.6889 26.778 82.6889C27.9028 82.6889 27.9028 80.6268 26.778 80.6268H24.0129Z" fill="#2A4488" style="fill:#2A4488;fill:color(display-p3 0.1647 0.2667 0.5333);fill-opacity:1;"/>
<path fill-rule="evenodd" clip-rule="evenodd" d="M26.778 84.2355H24.8096C23.4974 84.2355 22.4194 83.2045 22.4194 81.8922V77.8149C22.4194 76.5026 23.4974 75.4247 24.8096 75.4247C26.8717 75.4247 29.1681 75.0967 29.1681 78.2367C29.1681 78.8459 28.9338 79.4083 28.5589 79.8301C29.7774 81.1892 29.2619 84.2355 26.778 84.2355ZM10 24.3878V15.0146C10 12.2496 12.2496 10 15.0146 10H84.9854C87.7504 10 90 12.2496 90 15.0146V84.9854C90 87.7504 87.7504 90 84.9854 90H15.0146C12.2496 90 10 87.7504 10 84.9854V24.3878ZM88.4066 23.5911V15.0146C88.4066 13.0931 86.86 11.5466 84.9854 11.5466H15.0146C13.0931 11.5466 11.5466 13.0931 11.5466 15.0146V23.5911H88.4066ZM18.8108 21.4353C16.655 21.4353 14.9209 19.7012 14.9209 17.5923C14.9209 15.4833 16.655 13.7493 18.8108 13.7493C20.9197 13.7493 22.6538 15.4833 22.6538 17.5923C22.6538 19.7012 20.9197 21.4353 18.8108 21.4353ZM18.8108 15.2958C15.7645 15.2958 15.7645 19.8887 18.8108 19.8887C21.8102 19.8887 21.8102 15.2958 18.8108 15.2958ZM28.7932 21.4353C26.6374 21.4353 24.9033 19.7012 24.9033 17.5923C24.9033 15.4833 26.6374 13.7493 28.7932 13.7493C30.9022 13.7493 32.6362 15.4833 32.6362 17.5923C32.6362 19.7012 30.9022 21.4353 28.7932 21.4353ZM28.7932 15.2958C25.7469 15.2958 25.7469 19.8887 28.7932 19.8887C31.7926 19.8887 31.7926 15.2958 28.7932 15.2958ZM38.7756 21.4353C36.6198 21.4353 34.8858 19.7012 34.8858 17.5923C34.8858 15.4833 36.6198 13.7493 38.7756 13.7493C40.8846 13.7493 42.6186 15.4833 42.6186 17.5923C42.6186 19.7012 40.8846 21.4353 38.7756 21.4353ZM38.7756 15.2958C35.7293 15.2958 35.7293 19.8887 38.7756 19.8887C41.775 19.8887 41.775 15.2958 38.7756 15.2958ZM11.5466 25.1845V84.9854C11.5466 86.86 13.0931 88.4066 15.0146 88.4066H84.9854C86.86 88.4066 88.4066 86.86 88.4066 84.9854V25.1845H11.5466ZM83.1107 18.389H48.3363C47.3052 18.389 47.3052 16.7955 48.3363 16.7955H83.1107C84.1418 16.7955 84.1418 18.389 83.1107 18.389ZM80.4862 74.628C80.0644 74.628 79.7364 74.2999 79.7364 73.8313V67.6919C79.7364 66.6608 81.283 66.6608 81.283 67.6919V73.8313C81.283 74.2999 80.9549 74.628 80.4862 74.628ZM80.4862 59.9121C80.0644 59.9121 79.7364 59.5841 79.7364 59.1154V35.3076C79.7364 34.2765 81.283 34.2765 81.283 35.3076V59.1154C81.283 59.5841 80.9549 59.9121 80.4862 59.9121ZM19.4669 74.628C19.0451 74.628 18.717 74.2999 18.717 73.8313V67.6919C18.717 66.6608 20.2636 66.6608 20.2636 67.6919V73.8313C20.2636 74.2999 19.9356 74.628 19.4669 74.628ZM19.4669 59.9121C19.0451 59.9121 18.717 59.5841 18.717 59.1154V35.3076C18.717 34.2765 20.2636 34.2765 20.2636 35.3076V59.1154C20.2636 59.5841 19.9356 59.9121 19.4669 59.9121ZM60.4277 84.2355H55.2724C54.2414 84.2355 54.2414 82.6889 55.2724 82.6889H57.1002V76.9713C55.8817 76.9713 54.4757 77.2525 54.4757 76.2214C54.4757 75.7528 54.8506 75.4247 55.2724 75.4247H60.4277C61.4587 75.4247 61.4587 76.9713 60.4277 76.9713H58.6467V82.6889C59.8184 82.6889 61.2244 82.4077 61.2244 83.4856C61.2244 83.9074 60.8963 84.2355 60.4277 84.2355ZM68.5823 84.2355C68.348 84.2355 68.1137 84.1418 67.9731 83.9074L64.2238 78.6585V83.4856C64.2238 84.5167 62.6772 84.5167 62.6772 83.4856V76.2214C62.6772 75.4247 63.6145 75.1435 64.0832 75.7528L67.8325 81.0018V76.2214C67.8325 75.1904 69.379 75.1904 69.379 76.2214V83.4856C69.379 83.9074 69.051 84.2355 68.5823 84.2355ZM76.7838 84.2355H71.5817C71.1599 84.2355 70.8319 83.9074 70.8319 83.4856V76.2214C70.8319 75.7528 71.1599 75.4247 71.5817 75.4247H76.7838C77.8149 75.4247 77.8149 76.9713 76.7838 76.9713H72.3784V82.6889H75.9871V80.6268C74.8155 80.6268 73.4095 80.8612 73.4095 79.8301C73.4095 79.4083 73.7376 79.0803 74.1593 79.0803C78.1898 79.0803 77.5337 78.3773 77.5337 83.4856C77.5337 83.9074 77.2056 84.2355 76.7838 84.2355ZM52.273 84.2355C51.7575 84.2355 49.0861 82.1734 48.4769 81.7516C48.4769 82.8764 48.7581 84.2355 47.727 84.2355C47.2583 84.2355 46.9303 83.9074 46.9303 83.4856V76.2214C46.9303 75.1904 48.4769 75.1904 48.4769 76.2214V78.7522L51.8512 76.4089C52.6479 75.7997 53.5852 77.065 52.7417 77.6743L49.0861 80.2519L52.7417 82.8295C53.3509 83.2513 53.0228 84.2355 52.273 84.2355ZM35.0732 84.2355H32.8237C31.6052 84.2355 30.621 83.2513 30.621 81.9859V77.6743C30.621 76.4558 31.6052 75.4247 32.8237 75.4247H35.0732C36.3386 75.4247 37.3228 76.4558 37.3228 77.6743V81.9859C37.3228 83.2513 36.3386 84.2355 35.0732 84.2355ZM32.8237 76.9713C32.4487 76.9713 32.1675 77.2994 32.1675 77.6743V81.9859C32.1675 82.9701 33.6673 82.6889 35.0732 82.6889C35.4482 82.6889 35.7762 82.3609 35.7762 81.9859V77.6743C35.7762 76.6901 34.2765 76.9713 32.8237 76.9713ZM43.2279 84.2355H41.0252C39.7598 84.2355 38.7756 83.2513 38.7756 81.9859V77.6743C38.7756 76.4558 39.7598 75.4247 41.0252 75.4247H43.2279C44.4933 75.4247 45.4774 76.4558 45.4774 77.6743V81.9859C45.4774 83.2513 44.4933 84.2355 43.2279 84.2355ZM41.0252 76.9713C40.6503 76.9713 40.3222 77.2994 40.3222 77.6743V81.9859C40.3222 82.9701 41.8219 82.6889 43.2279 82.6889C43.6028 82.6889 43.9309 82.3609 43.9309 81.9859V77.6743C43.9309 76.6901 42.4312 76.9713 41.0252 76.9713ZM66.7545 65.7704H62.3023V70.2695H68.4886C69.8008 70.2695 70.8787 69.1447 70.8787 67.7387V33.4329C70.8787 32.0269 69.8008 30.9022 68.4886 30.9022H31.4646C30.1523 30.9022 29.1213 32.0269 29.1213 33.4329V67.7387C29.1213 69.1447 30.1523 70.2695 31.4646 70.2695H43.3216L45.0557 65.7704H40.9783C40.744 65.7704 40.5097 65.6766 40.3691 65.4892L32.6362 56.2097C32.4019 55.9285 32.4019 55.5067 32.6362 55.2255L35.0732 52.3199C35.4013 51.9449 36.0105 51.9449 36.2917 52.3199L42.7592 60.0527H66.7545C67.1763 60.0527 67.5044 60.4277 67.5044 60.8494V64.9736C67.5044 65.3954 67.1763 65.7704 66.7545 65.7704ZM60.7088 65.7704H46.7428L44.9619 70.2695H60.7088V65.7704ZM41.3533 64.1769H65.9578V61.5993H42.4312C42.1968 61.5993 41.9625 61.5056 41.8219 61.3181L35.6825 54.007L34.2765 55.7411L41.3533 64.1769ZM61.5056 71.9098C61.365 71.9098 61.2712 71.8629 61.1775 71.8161H31.4646C29.3087 71.8161 27.5278 69.9883 27.5278 67.7387V33.4329C27.5278 31.1834 29.3087 29.3556 31.4646 29.3556H68.4886C70.6913 29.3556 72.4253 31.1834 72.4253 33.4329V67.7387C72.4253 69.9883 70.6913 71.8161 68.4886 71.8161H61.8336C61.7399 71.8629 61.5993 71.9098 61.5056 71.9098ZM59.7715 46.0867C57.2876 46.0867 55.413 43.6965 56.0691 41.2595C56.9596 37.932 61.4118 37.3697 63.099 40.3222C64.5987 42.8998 62.7241 46.0867 59.7715 46.0867ZM59.7715 39.9473C56.7721 39.9473 56.819 44.4933 59.7715 44.4933C62.8178 44.4933 62.7709 39.9473 59.7715 39.9473ZM64.3644 38.4476C63.6614 38.4476 63.3333 37.604 63.802 37.0885C64.505 36.4323 65.2548 35.3544 65.9578 36.0574C66.6608 36.8073 65.6298 37.5103 64.9268 38.2132C64.7862 38.3538 64.5518 38.4476 64.3644 38.4476ZM67.4575 45.0557L65.8641 44.6807C64.833 44.3995 65.2548 42.8998 66.239 43.181C67.1763 43.4153 68.4886 43.5091 68.2074 44.4933C68.1137 44.8682 67.8325 45.0557 67.4575 45.0557ZM61.8336 50.6796C61.0369 50.6796 60.99 49.6954 60.7088 48.7112C60.4277 47.727 61.9742 47.3052 62.2086 48.2894C62.396 49.0392 63.1459 50.6796 61.8336 50.6796ZM54.1945 48.6175C53.4915 48.6175 53.1166 47.8207 53.6321 47.3052C54.2882 46.6022 55.0381 45.5712 55.7879 46.2742C56.4909 46.9772 55.413 47.727 54.71 48.43C54.5694 48.5706 54.382 48.6175 54.1945 48.6175ZM53.5384 41.3533L51.8981 40.9315C50.9139 40.6971 51.3357 39.1506 52.3199 39.4318C53.2572 39.6661 54.5694 39.8067 54.2882 40.744C54.1945 41.1189 53.8664 41.3533 53.5384 41.3533ZM58.1312 36.7604C57.2876 36.7604 57.2408 35.7762 56.9596 34.792C56.7253 33.761 58.225 33.3861 58.5062 34.3702C58.6936 35.0732 59.3966 36.7604 58.1312 36.7604ZM46.1336 39.6192C44.4933 39.6192 46.4148 36.7135 43.4153 36.8541C42.3843 36.901 42.3374 35.3076 43.3685 35.2607C44.587 35.2138 45.4774 35.5888 46.1336 36.2917C47.024 35.2607 49.6954 34.6983 49.6485 36.1043C49.6016 37.604 46.7897 35.8699 46.9303 38.7288C46.9303 39.2443 46.6022 39.6192 46.1336 39.6192ZM45.1494 51.4763C43.5091 51.4763 45.4774 48.6175 42.4312 48.7112C41.4001 48.7581 41.3533 47.2115 42.3843 47.1646C43.5559 47.1178 44.5401 47.4458 45.1494 48.1488C46.0398 47.1178 48.7112 46.5554 48.6643 47.9613C48.6175 49.5079 45.8055 47.727 45.9461 50.5858C45.9461 51.1013 45.618 51.4763 45.1494 51.4763ZM36.8541 44.8213C35.167 44.8213 37.1822 42.0094 34.1359 42.1031C33.1049 42.1031 33.058 40.5565 34.089 40.5097C35.2607 40.4628 36.198 40.8377 36.8541 41.5407C37.8383 40.4159 40.4159 39.9941 40.3691 41.3533C40.3222 42.853 37.4634 41.1189 37.6509 43.9777C37.6509 44.4933 37.3228 44.8213 36.8541 44.8213ZM24.0129 79.0803C26.9654 79.0803 27.6216 79.4552 27.6216 77.8149C27.6216 76.6901 26.1219 76.9713 24.8096 76.9713C23.7786 76.9713 24.0129 78.2367 24.0129 79.0803ZM24.0129 80.6268C24.0129 82.9701 23.8723 82.6889 26.778 82.6889C27.9028 82.6889 27.9028 80.6268 26.778 80.6268H24.0129Z" stroke="#2A4488" style="stroke:#2A4488;stroke:color(display-p3 0.1647 0.2667 0.5333);stroke-opacity:1;" stroke-width="0.4" mask="url(#path-2-outside-1_2090_3422)"/>
</g>
<defs>
<clipPath id="clip0_2090_3422">
<rect width="80" height="80" fill="white" style="fill:white;fill-opacity:1;" transform="translate(10 10)"/>
</clipPath>
</defs>
</svg>
