<svg width="100" height="100" viewBox="0 0 100 100" fill="none" xmlns="http://www.w3.org/2000/svg">
<g clip-path="url(#clip0_2088_25742)">
<path d="M47.5976 27.6927H51.8295M73.0201 56.0436V40.3422M24.9859 40.3422V80.5456M80.8401 59.3433V31.2403L49.7557 11.1719L17.166 31.2403V55.893M17.166 61.3009V80.5456M47.5976 23.0066H51.8295" stroke="#4264AA" style="stroke:#4264AA;stroke:color(display-p3 0.2588 0.3922 0.6667);stroke-opacity:1;" stroke-width="3" stroke-miterlimit="10" stroke-linecap="round" stroke-linejoin="round"/>
<path d="M12.8408 80.5457H57.4557M47.7219 49.3157H51.7896V54.8079H47.7219V49.3157ZM70.7243 78.2469C67.5049 78.2469 64.8938 75.6426 64.8938 72.4315C64.8938 69.2247 67.5049 66.6204 70.7243 66.6204C73.9436 66.6204 76.5504 69.2247 76.5504 72.4315C76.5504 75.6426 73.9438 78.2469 70.7243 78.2469ZM77.8914 60.3665C76.744 59.6842 75.5042 59.1711 74.2102 58.8429V57.3415C74.2102 56.6283 73.6196 56.0393 72.9047 56.0393H68.5441C67.8247 56.0393 67.2386 56.624 67.2386 57.3415V58.8429C65.9435 59.172 64.7023 59.685 63.5529 60.3665L62.4871 59.3035C61.9808 58.7985 61.1505 58.7985 60.6443 59.3035L57.558 62.3774C57.0518 62.8868 57.0518 63.715 57.558 64.2199L58.6238 65.2829C57.9393 66.4278 57.4247 67.6662 57.0963 68.9591H55.591C54.876 68.9591 54.2855 69.5438 54.2855 70.2569V74.6063C54.2855 75.3238 54.8761 75.9085 55.591 75.9085H57.0963C57.4249 77.2014 57.9394 78.4397 58.6238 79.5847L57.558 80.6477C57.0518 81.1527 57.0518 81.9808 57.558 82.4858L60.6443 85.5641C61.1505 86.0691 61.9808 86.0691 62.4871 85.5641L63.5529 84.5011C64.7019 85.1834 65.9432 85.6965 67.2386 86.0247V87.5261C67.2386 88.2393 67.8247 88.8283 68.5441 88.8283H72.9047C73.6197 88.8283 74.2102 88.2393 74.2102 87.5261V86.0247C75.5041 85.6964 76.744 85.1833 77.8914 84.5011L78.9572 85.5641C79.4635 86.0691 80.2938 86.0691 80.8046 85.5641L83.8863 82.4858C84.3925 81.9808 84.3925 81.1527 83.8863 80.6477L82.8205 79.5847C83.4955 78.4508 84.015 77.2196 84.348 75.9085H85.8533C86.5727 75.9085 87.1588 75.3238 87.1588 74.6063V70.2569C87.1588 69.5438 86.5727 68.9591 85.8533 68.9591H84.348C84.0195 67.6662 83.5049 66.4279 82.8205 65.2829L83.8863 64.2199C84.3925 63.7149 84.3925 62.8868 83.8863 62.3774L80.8046 59.3035C80.2939 58.7985 79.4635 58.7985 78.9572 59.3035L77.8914 60.3665Z" stroke="#2A4488" style="stroke:#2A4488;stroke:color(display-p3 0.1647 0.2667 0.5333);stroke-opacity:1;" stroke-width="3" stroke-miterlimit="10" stroke-linecap="round" stroke-linejoin="round"/>
<path d="M57.3226 64.9285H41.9447C41.5185 64.9285 41.1721 64.583 41.1721 64.1579V50.0908C41.1721 49.6657 41.5185 49.3157 41.9447 49.3157H57.5624C57.9887 49.3157 58.3396 49.6655 58.3396 50.0908V61.6022M39.1382 64.9285H43.2058V70.4207H39.1382V64.9285Z" stroke="#2A4488" style="stroke:#2A4488;stroke:color(display-p3 0.1647 0.2667 0.5333);stroke-opacity:1;" stroke-width="3" stroke-miterlimit="10" stroke-linecap="round" stroke-linejoin="round"/>
<path d="M52.3133 40.3422H73.2508C73.8592 40.3422 74.3609 39.8461 74.3609 39.2349V36.1211C74.3609 35.5099 73.8592 35.0138 73.2508 35.0138H24.7547C24.1462 35.0138 23.6445 35.5099 23.6445 36.1211V39.2349C23.6445 39.8461 24.1462 40.3422 24.7547 40.3422H46.8913M33.3652 64.9285H49.7555V80.5457H33.3652C33.1594 80.5457 32.962 80.4641 32.8163 80.3188C32.6706 80.1735 32.5885 79.9763 32.588 79.7705V65.7035C32.5885 65.4977 32.6706 65.3005 32.8163 65.1553C32.962 65.01 33.1594 64.9284 33.3652 64.9285Z" stroke="#2A4488" style="stroke:#2A4488;stroke:color(display-p3 0.1647 0.2667 0.5333);stroke-opacity:1;" stroke-width="3" stroke-miterlimit="10" stroke-linecap="round" stroke-linejoin="round"/>
</g>
<defs>
<clipPath id="clip0_2088_25742">
<rect width="80" height="80" fill="white" style="fill:white;fill-opacity:1;" transform="translate(10 10)"/>
</clipPath>
</defs>
</svg>
