<svg width="100" height="100" viewBox="0 0 100 100" fill="none" xmlns="http://www.w3.org/2000/svg">
<path d="M81.5449 51.3008V50.335" stroke="#2A4488" style="stroke:#2A4488;stroke:color(display-p3 0.1647 0.2667 0.5333);stroke-opacity:1;" stroke-width="3" stroke-linecap="round" stroke-linejoin="round"/>
<path d="M81.5449 45.7336V35.3802" stroke="#4264AA" style="stroke:#4264AA;stroke:color(display-p3 0.2588 0.3922 0.6667);stroke-opacity:1;" stroke-width="3" stroke-linecap="round" stroke-linejoin="round" stroke-dasharray="10.72 28.59"/>
<path d="M81.5447 33.0794V32.1136M18.4551 51.3006V50.3348" stroke="#2A4488" style="stroke:#2A4488;stroke:color(display-p3 0.1647 0.2667 0.5333);stroke-opacity:1;" stroke-width="3" stroke-linecap="round" stroke-linejoin="round"/>
<path d="M18.4551 45.7336V35.3802" stroke="#4264AA" style="stroke:#4264AA;stroke:color(display-p3 0.2588 0.3922 0.6667);stroke-opacity:1;" stroke-width="3" stroke-linecap="round" stroke-linejoin="round" stroke-dasharray="10.72 28.59"/>
<path d="M18.4551 33.0794V32.1136M78.2925 54.5528H77.3267" stroke="#2A4488" style="stroke:#2A4488;stroke:color(display-p3 0.1647 0.2667 0.5333);stroke-opacity:1;" stroke-width="3" stroke-linecap="round" stroke-linejoin="round"/>
<path d="M72.1831 54.5529H25.2451" stroke="#4264AA" style="stroke:#4264AA;stroke:color(display-p3 0.2588 0.3922 0.6667);stroke-opacity:1;" stroke-width="3" stroke-linecap="round" stroke-linejoin="round" stroke-dasharray="11.98 31.96"/>
<path d="M22.6728 54.5528H21.707M78.2923 28.8617H77.3265" stroke="#2A4488" style="stroke:#2A4488;stroke:color(display-p3 0.1647 0.2667 0.5333);stroke-opacity:1;" stroke-width="3" stroke-linecap="round" stroke-linejoin="round"/>
<path d="M72.1831 28.8617H25.2451" stroke="#4264AA" style="stroke:#4264AA;stroke:color(display-p3 0.2588 0.3922 0.6667);stroke-opacity:1;" stroke-width="3" stroke-linecap="round" stroke-linejoin="round" stroke-dasharray="11.98 31.96"/>
<path d="M22.6728 28.8617H21.707" stroke="#2A4488" style="stroke:#2A4488;stroke:color(display-p3 0.1647 0.2667 0.5333);stroke-opacity:1;" stroke-width="3" stroke-linecap="round" stroke-linejoin="round"/>
<path d="M34.8531 10H87.7239C88.9811 10 90 11.0189 90 12.2761V33.6869M10 59.4181V12.2761C10 11.0189 11.0189 10 12.2761 10H29.2193M10 65.0519V73.4141C10 74.6712 11.0189 75.6918 12.2761 75.6918H64.0684M90 39.3212V73.4141C90 74.6712 88.9811 75.6918 87.7239 75.6918H81.1821M10 20.4064H90M44.6468 46.9106L48.7548 36.5041L52.8629 46.9106M45.8654 44.3553H51.6639M57.0028 46.9106V36.5235L64.2951 46.9106V36.5041M75.5343 41.7074C75.5343 44.5746 73.9429 46.8436 71.4181 46.8877C70.5777 46.9024 68.4056 46.9106 68.4056 46.9106L68.3845 36.5041H71.3318C74.1011 36.5041 75.5343 38.8399 75.5343 41.7074ZM29.8831 38.8987C29.8831 40.2212 28.8111 41.2932 27.4886 41.2932C26.8327 41.2932 24.4658 41.3038 24.4658 41.3038V36.5041H27.4886C28.8111 36.5041 29.8831 37.5762 29.8831 38.8987Z" stroke="#2A4488" style="stroke:#2A4488;stroke:color(display-p3 0.1647 0.2667 0.5333);stroke-opacity:1;" stroke-width="3" stroke-miterlimit="10" stroke-linecap="round" stroke-linejoin="round"/>
<path d="M36.1829 41.9438L40.5543 46.9105M34.928 41.9251V46.9105M67.2797 67.2798C66.2637 68.2958 66.2637 69.943 67.2797 70.959C68.2958 71.975 69.9429 71.975 70.9589 70.959C71.975 69.943 71.975 68.2958 70.9589 67.2798C69.9431 66.2638 68.2958 66.2638 67.2797 67.2798ZM67.2797 67.2798L59.0014 59.0015M76.1993 80.708L81.352 90M89.9999 81.3521L80.708 76.1994M30.8175 44.097C30.8175 45.6441 29.5634 46.8982 28.0163 46.8982C27.2492 46.8982 24.4656 46.9105 24.4656 46.9105V41.2959H28.0163C29.5634 41.2959 30.8175 42.55 30.8175 44.097ZM40.5543 39.2085C40.5543 40.7021 39.2445 41.913 37.6966 41.913C36.929 41.913 34.9279 41.925 34.9279 41.925L34.9313 36.5039H37.6966C39.2447 36.5041 40.5543 37.7149 40.5543 39.2085ZM83.8211 32.1138H79.2682C79.0094 32.1137 78.7613 32.0109 78.5783 31.828C78.3954 31.645 78.2926 31.3969 78.2925 31.1382V26.5852C78.2926 26.3265 78.3954 26.0784 78.5783 25.8954C78.7613 25.7125 79.0094 25.6097 79.2682 25.6096H83.8211C84.0798 25.6097 84.3279 25.7125 84.5109 25.8954C84.6938 26.0784 84.7966 26.3265 84.7967 26.5852V31.1382C84.7967 31.2663 84.7715 31.3931 84.7225 31.5115C84.6734 31.6299 84.6016 31.7375 84.511 31.8281C84.4204 31.9187 84.3128 31.9905 84.1944 32.0395C84.0761 32.0886 83.9492 32.1138 83.8211 32.1138ZM20.7317 32.1138H16.1787C15.92 32.1137 15.6719 32.0109 15.4889 31.828C15.306 31.645 15.2032 31.3969 15.2031 31.1382V26.5852C15.2032 26.3265 15.306 26.0784 15.4889 25.8954C15.6719 25.7125 15.92 25.6097 16.1787 25.6096H20.7317C20.9904 25.6097 21.2385 25.7125 21.4215 25.8954C21.6044 26.0784 21.7072 26.3265 21.7073 26.5852V31.1382C21.7073 31.2663 21.6821 31.3931 21.633 31.5115C21.584 31.6299 21.5122 31.7375 21.4216 31.8281C21.331 31.9187 21.2234 31.9905 21.105 32.0395C20.9867 32.0886 20.8598 32.1138 20.7317 32.1138ZM83.8211 57.8049H79.2682C79.0094 57.8048 78.7613 57.702 78.5783 57.5191C78.3954 57.3361 78.2926 57.088 78.2925 56.8293V52.2763C78.2926 52.0176 78.3954 51.7695 78.5783 51.5865C78.7613 51.4036 79.0094 51.3008 79.2682 51.3007H83.8211C84.0798 51.3008 84.3279 51.4036 84.5109 51.5865C84.6938 51.7695 84.7966 52.0176 84.7967 52.2763V56.8293C84.7966 57.088 84.6938 57.3361 84.5109 57.5191C84.3279 57.702 84.0798 57.8048 83.8211 57.8049ZM20.7317 57.8049H16.1787C15.92 57.8048 15.6719 57.702 15.4889 57.5191C15.306 57.3361 15.2032 57.088 15.2031 56.8293V52.2763C15.2032 52.0176 15.306 51.7695 15.4889 51.5865C15.6719 51.4036 15.92 51.3008 16.1787 51.3007H20.7317C20.9904 51.3008 21.2385 51.4036 21.4215 51.5865C21.6044 51.7695 21.7072 52.0176 21.7073 52.2763V56.8293C21.7072 57.088 21.6044 57.3361 21.4215 57.5191C21.2385 57.702 20.9904 57.8048 20.7317 57.8049ZM75.6381 64.2298L60.8537 58.6049C60.5395 58.4853 60.1975 58.4591 59.8689 58.5294C59.5402 58.5997 59.2389 58.7636 59.0012 59.0012C58.7635 59.2389 58.5997 59.5402 58.5293 59.8689C58.459 60.1976 58.4852 60.5396 58.6048 60.8537L64.2298 75.6381C64.3954 76.0737 64.6908 76.4479 65.076 76.7102C65.4612 76.9725 65.9177 77.1103 66.3836 77.1048L72.98 77.0287L77.0288 72.9799L77.1049 66.3835C77.1102 65.9176 76.9724 65.4612 76.7101 65.0761C76.4478 64.6909 76.0736 64.3955 75.6381 64.2298Z" stroke="#2A4488" style="stroke:#2A4488;stroke:color(display-p3 0.1647 0.2667 0.5333);stroke-opacity:1;" stroke-width="3" stroke-miterlimit="10" stroke-linecap="round" stroke-linejoin="round"/>
<path d="M72.7501 77.2589L77.2588 72.7502C77.5027 72.5063 77.8336 72.3693 78.1786 72.3693C78.5236 72.3693 78.8545 72.5063 79.0984 72.7502L80.7081 74.3599C80.952 74.6039 81.0891 74.9347 81.0891 75.2797C81.0891 75.6247 80.952 75.9556 80.7081 76.1996L76.1995 80.7082C75.9555 80.9522 75.6246 81.0892 75.2796 81.0892C74.9346 81.0892 74.6037 80.9522 74.3598 80.7082L72.7501 79.0986C72.5062 78.8546 72.3691 78.5237 72.3691 78.1787C72.3691 77.8337 72.5062 77.5029 72.7501 77.2589Z" stroke="#2A4488" style="stroke:#2A4488;stroke:color(display-p3 0.1647 0.2667 0.5333);stroke-opacity:1;" stroke-width="3" stroke-miterlimit="10" stroke-linecap="round" stroke-linejoin="round"/>
</svg>
