<svg width="100" height="100" viewBox="0 0 100 100" fill="none" xmlns="http://www.w3.org/2000/svg">
<path d="M62.0638 35.4418C53.8201 23.9558 42.81 17.8511 37.0441 21.5915C36.4092 22.015 35.8575 22.5404 35.414 23.1442C35.414 23.1883 22.0659 48.7715 22.0659 48.7715L14.614 53.553C13.47 54.2884 12.4903 55.2301 11.7307 56.3243C10.9711 57.4184 10.4466 58.6436 10.1871 59.9298C9.92755 61.216 9.93815 62.538 10.2183 63.8203C10.4984 65.1026 11.0425 66.3201 11.8195 67.4032L12.1549 67.8708C13.7256 70.0377 16.1349 71.5308 18.8604 72.0262C21.5859 72.5217 24.4078 71.9795 26.714 70.5173L38.6835 87.217C40.444 89.2725 43.8253 91.3192 47.9984 88.9108C48.7376 88.4568 49.3683 87.8611 49.8496 87.1622C50.3309 86.4632 50.6522 85.6765 50.7928 84.8528C50.9614 84.0334 50.9568 83.1905 50.7794 82.3729C50.6019 81.5552 50.255 80.7789 49.7589 80.089L39.2145 65.3565C39.2145 65.3565 64.141 63.4775 64.2341 63.4422C65.0124 63.2879 65.7503 62.988 66.4045 62.56C69.3666 60.6545 70.4285 56.6582 69.4038 51.3034C68.4817 46.372 65.8642 40.7878 62.0638 35.4418ZM14.8655 66.1329L14.5302 65.6653C13.994 64.9178 13.6188 64.0775 13.426 63.1925C13.2332 62.3075 13.2266 61.3951 13.4066 60.5077C13.5866 59.6203 13.9496 58.7752 14.4748 58.0208C15.0001 57.2664 15.6773 56.6175 16.4676 56.1113L22.9042 51.965L31.3993 63.8127L24.9628 67.959C24.1733 68.4674 23.2858 68.8235 22.351 69.0068C21.4161 69.1902 20.4523 69.1973 19.5145 69.0277C18.5768 68.8581 17.6835 68.5152 16.8858 68.0185C16.0881 67.5217 15.4016 66.881 14.8655 66.1329ZM47.0762 81.8269C47.5853 82.5443 47.7731 83.4237 47.5985 84.2721C47.4239 85.1205 46.901 85.8687 46.1447 86.3525C45.3857 86.8351 44.4558 87.0132 43.5584 86.8479C42.6611 86.6825 41.8694 86.1872 41.3569 85.4703L29.4246 68.8235L34.2217 65.7359L35.4885 65.6388L47.0762 81.8269ZM34.4825 62.613L25.2236 49.6978L34.0541 32.6453C34.911 37.4355 37.4167 43.1256 41.4221 48.7098C45.4275 54.294 50.0849 58.599 54.4628 61.1221L34.4825 62.613ZM61.9613 60.5575C57.5088 60.284 50.2619 55.529 44.1234 46.9631C37.9849 38.3971 35.9915 30.2898 37.3608 26.2583C37.6081 25.5015 38.1015 24.8381 38.7707 24.3628C39.4398 23.8875 40.2504 23.6246 41.0868 23.6117C45.502 23.6117 53.0191 28.3931 59.3345 37.2061C62.8928 42.164 65.4823 47.3512 66.1902 51.8856C67.5781 60.5575 61.9613 60.5575 61.9613 60.5575Z" fill="#2A4488" style="fill:#2A4488;fill:color(display-p3 0.1647 0.2667 0.5333);fill-opacity:1;"/>
<path d="M50.4196 35.7683C49.2786 35.5561 48.1044 35.5615 46.9656 35.7841C45.8268 36.0068 44.7464 36.4423 43.7874 37.0651C43.6107 37.1809 43.4597 37.3286 43.3432 37.4997C43.2267 37.6708 43.147 37.862 43.1085 38.0623C43.07 38.2626 43.0735 38.4681 43.1189 38.6671C43.1643 38.866 43.2506 39.0546 43.3729 39.222C43.4952 39.3894 43.6512 39.5324 43.8318 39.6427C44.0125 39.753 44.2143 39.8286 44.4258 39.865C44.6373 39.9015 44.8543 39.8981 45.0644 39.8552C45.2745 39.8122 45.4736 39.7305 45.6504 39.6146C46.2577 39.2242 46.9403 38.9509 47.6592 38.8103C48.378 38.6697 49.1191 38.6646 49.84 38.7953C50.561 38.9259 51.2477 39.1898 51.861 39.5718C52.4743 39.9538 53.0021 40.4465 53.4143 41.0217C53.8265 41.5969 54.1151 42.2433 54.2635 42.9242C54.412 43.605 54.4174 44.3068 54.2794 44.9896C54.1414 45.6724 53.8628 46.3227 53.4595 46.9036C53.0561 47.4844 52.5359 47.9843 51.9286 48.3747C51.6422 48.562 51.4266 48.8311 51.3134 49.1428C51.2002 49.4545 51.1953 49.7923 51.2994 50.1068C51.4035 50.4213 51.6112 50.696 51.892 50.8907C52.1728 51.0854 52.5121 51.1899 52.8601 51.1888C53.1921 51.1947 53.5178 51.1022 53.7916 50.9242C55.2404 49.9947 56.3653 48.6788 57.0238 47.1433C57.6823 45.6078 57.8448 43.9218 57.4907 42.2987C57.1366 40.6757 56.2818 39.1887 55.0346 38.0262C53.7874 36.8636 52.2039 36.0778 50.4848 35.7683H50.4196ZM64.0751 24.7057H64.2335C64.6367 24.7056 65.0255 24.5639 65.3248 24.3081C65.6242 24.0523 65.8128 23.7005 65.8543 23.3207L67.1118 11.7465C67.1404 11.5418 67.1254 11.3338 67.0676 11.1347C67.0098 10.9357 66.9105 10.7496 66.7755 10.5875C66.6404 10.4254 66.4725 10.2907 66.2815 10.1912C66.0905 10.0917 65.8803 10.0294 65.6635 10.0082C65.4467 9.98695 65.2276 10.0071 65.0191 10.0675C64.8106 10.1279 64.6171 10.2272 64.4499 10.3597C64.2827 10.4921 64.1452 10.655 64.0457 10.8387C63.9461 11.0223 63.8864 11.223 63.8702 11.4289L62.622 23.0119C62.5777 23.419 62.7059 23.8261 62.9784 24.1437C63.2509 24.4613 63.6453 24.6635 64.0751 24.7057ZM85.1453 22.3238C84.9059 21.9822 84.5336 21.744 84.1095 21.6614C83.6855 21.5787 83.2441 21.6583 82.8818 21.8828L71.527 28.9402C71.2322 29.1246 71.0085 29.3947 70.8899 29.7099C70.7712 30.025 70.7638 30.3682 70.8689 30.6877C70.974 31.0072 71.1858 31.2857 71.4725 31.4812C71.7592 31.6768 72.1052 31.7788 72.4585 31.772C72.788 31.7792 73.1123 31.6932 73.39 31.525L84.7447 24.4675C85.097 24.2328 85.3369 23.8756 85.4119 23.4739C85.487 23.0723 85.3911 22.6588 85.1453 22.3238ZM88.6197 41.1672L75.4113 38.9177C74.9851 38.8451 74.546 38.9359 74.1905 39.17C73.835 39.4041 73.5923 39.7624 73.5157 40.166C73.4391 40.5696 73.535 40.9854 73.7822 41.3221C74.0293 41.6588 74.4076 41.8887 74.8338 41.9612L88.0329 44.2108H88.3216C88.737 44.2223 89.1413 44.0831 89.4519 43.8218C89.7625 43.5604 89.9561 43.1966 89.9929 42.8046C90.0298 42.4126 89.9072 42.0221 89.6503 41.7129C89.3933 41.4036 89.0213 41.199 88.6104 41.1408L88.6197 41.1672Z" fill="#4264AA" style="fill:#4264AA;fill:color(display-p3 0.2588 0.3922 0.6667);fill-opacity:1;"/>
</svg>
