<svg width="100" height="100" viewBox="0 0 100 100" fill="none" xmlns="http://www.w3.org/2000/svg">
<path d="M89.5518 45.0072L69.9971 27.4714V24.6675C69.9971 22.4622 68.2026 20.6675 65.9974 20.6675C65.0281 20.6675 64.1495 21.0275 63.4562 21.6035L50.8878 10.341C50.6433 10.1214 50.3264 10 49.9978 10C49.6693 10 49.3523 10.1214 49.1079 10.341L10.4439 45.0072C10.2427 45.1874 10.1009 45.4244 10.0374 45.6869C9.97389 45.9494 9.99157 46.225 10.0881 46.4772C10.1847 46.7294 10.3555 46.9464 10.5781 47.0994C10.8007 47.2523 11.0644 47.3341 11.3345 47.3339H14.001V88.6667C14.001 89.0203 14.1414 89.3594 14.3915 89.6095C14.6415 89.8595 14.9806 90 15.3342 90H84.6628C85.0164 90 85.3555 89.8595 85.6055 89.6095C85.8555 89.3594 85.996 89.0203 85.996 88.6667V47.3339H88.6625C88.9331 47.3353 89.1977 47.2541 89.421 47.1013C89.6443 46.9484 89.8157 46.7311 89.9123 46.4783C90.0089 46.2255 90.0262 45.9493 89.9617 45.6865C89.8973 45.4236 89.7543 45.1867 89.5518 45.0072ZM85.1787 44.6672H69.9971V31.0541L85.1787 44.6672ZM73.9968 74.0002H57.9979V71.1536C57.999 70.1408 58.4018 69.1698 59.1179 68.4536C59.834 67.7375 60.8049 67.3347 61.8177 67.3336H70.1784C71.1909 67.335 72.1615 67.738 72.8774 68.4541C73.5932 69.1702 73.9958 70.141 73.9968 71.1536V74.0002ZM64.6641 24.6675C64.6641 23.9328 65.2628 23.3341 65.9974 23.3341C66.732 23.3341 67.3306 23.9328 67.3306 24.6675V64.667H64.6641V24.6675ZM49.9985 13.1249L62.071 23.9435C62.0242 24.182 61.9996 24.4244 61.9977 24.6675V44.6672H14.8182L49.9985 13.1249ZM16.6675 47.3339H61.9977V64.667H61.8177C60.098 64.6687 58.4492 65.3527 57.2332 66.5688C56.0172 67.7849 55.3332 69.4338 55.3315 71.1536V75.0762L50.4291 87.3334H40.6658V62.0003C40.6658 61.6467 40.5253 61.3076 40.2753 61.0575C40.0253 60.8075 39.6862 60.667 39.3326 60.667H23.3337C22.9801 60.667 22.6409 60.8075 22.3909 61.0575C22.1409 61.3076 22.0004 61.6467 22.0004 62.0003V87.3334H16.6675V47.3339ZM24.6669 87.3334V63.3337H37.9993V87.3334H24.6669ZM73.7568 87.3334L72.6383 81.7388L70.0238 82.2628L71.037 87.3334H67.3306V82.0001H64.6641V87.3334H60.9577L61.9723 82.2614L59.3578 81.7374L58.2379 87.3334H53.3009L57.5673 76.6668H74.4275L78.6938 87.3334H73.7568ZM83.3295 87.3334H81.5656L76.6633 75.0762V71.1536C76.6615 69.4338 75.9776 67.7849 74.7616 66.5688C73.5456 65.3527 71.8968 64.6687 70.1771 64.667H69.9971V47.3339H83.3295V87.3334Z" fill="#2A4488" style="fill:#2A4488;fill:color(display-p3 0.1647 0.2667 0.5333);fill-opacity:1;"/>
<path d="M43.3319 40.6674H56.6643C57.0179 40.6674 57.357 40.5269 57.6071 40.2768C57.8571 40.0268 57.9976 39.6877 57.9976 39.334V31.3341C57.9976 26.9222 54.4098 23.3342 49.9981 23.3342C45.5864 23.3342 41.9987 26.9222 41.9987 31.3341V39.334C41.9987 39.6877 42.1391 40.0268 42.3892 40.2768C42.6392 40.5269 42.9783 40.6674 43.3319 40.6674ZM44.6651 34.0008H48.6649V38.0007H44.6651V34.0008ZM51.3314 38.0007V34.0008H55.3311V38.0007H51.3314ZM55.3311 31.3341H51.3314V26.1902C53.6245 26.7862 55.3311 28.8568 55.3311 31.3341ZM48.6649 26.1902V31.3341H44.6651C44.6651 28.8568 46.3717 26.7862 48.6649 26.1902ZM27.333 74.0003H29.9995V76.6669H27.333V74.0003ZM49.9981 66.0004H52.6646C52.6646 62.3244 55.6551 59.3338 59.3308 59.3338V56.6672C55.6551 56.6672 52.6646 53.6765 52.6646 50.0006H49.9981C49.9981 53.6765 47.0077 56.6672 43.3319 56.6672V59.3338C47.0077 59.3338 49.9981 62.3244 49.9981 66.0004ZM51.3314 54.7832C52.1235 56.1034 53.2283 57.2083 54.5485 58.0005C53.2283 58.7926 52.1235 59.8976 51.3314 61.2178C50.5392 59.8976 49.4344 58.7926 48.1142 58.0005C49.4344 57.2083 50.5392 56.1034 51.3314 54.7832Z" fill="#4264AA" style="fill:#4264AA;fill:color(display-p3 0.2588 0.3922 0.6667);fill-opacity:1;"/>
</svg>
