<svg width="100" height="100" viewBox="0 0 100 100" fill="none" xmlns="http://www.w3.org/2000/svg">
<path d="M16.5194 60.1667C20.7421 75.9694 34.354 87.0587 50.0257 87.0587C66.3326 87.0587 80.3393 75.0377 83.9269 58.285L82.1245 57.8831C78.6915 73.7771 65.3542 85.0856 50.0257 85.0856C35.2122 85.0856 22.3041 74.581 18.3046 59.6369C18.0986 58.8696 18.5106 58.0658 19.2487 57.8283L20.5361 57.4629L15.2492 51.8726L13.3096 59.5638L14.8372 59.1254C15.5753 58.9061 16.3306 59.3811 16.5194 60.1667ZM27.4021 81.9251C21.3085 77.029 16.6739 70.2147 14.2708 62.3042L11.7475 63.0167C10.7176 63.309 9.77354 62.3224 10.0482 61.2263L13.2066 48.7486C13.4812 47.5611 14.7858 47.2505 15.5239 48.0178L24.1751 57.2254C24.9132 58.011 24.587 59.3811 23.5571 59.6734L21.36 60.2946C25.4625 73.2656 36.9288 82.1991 50.0257 82.1991C64.5474 82.1991 77.0608 71.1829 79.7214 55.9466C79.8587 55.1427 80.5797 54.6129 81.3349 54.7773L85.7635 55.7273C86.5703 55.8918 87.0509 56.6408 86.9136 57.4446C83.6007 76.2617 68.1349 90 50.0429 90C41.529 90 33.7017 86.9856 27.4021 81.9251ZM83.4806 39.815C79.2236 23.9393 65.6632 12.923 50.0257 12.923C33.6846 12.923 19.6606 24.9806 16.0731 41.6967L17.8755 42.0804C21.2913 26.2777 34.5771 14.8778 50.0257 14.8778C64.7191 14.8778 77.6616 25.2729 81.6954 40.3266C81.9014 41.0939 81.4894 41.8977 80.7513 42.1352L79.4639 42.5006L84.7508 48.1274L86.6904 40.4362L85.1799 40.8746C84.4246 41.0939 83.6694 40.6189 83.4806 39.815ZM72.6322 18.0566C78.6743 22.9162 83.3089 29.7123 85.7292 37.6776L88.2525 36.9651C89.2824 36.6545 90.2265 37.6593 89.9518 38.7554L86.8106 51.2514C86.536 52.4389 85.2314 52.7495 84.4933 51.9822L75.8421 42.7746C75.104 41.989 75.4301 40.6189 76.46 40.3266L78.6572 39.7054C74.5375 26.6431 63.0197 17.8009 50.0257 17.8009C35.3839 17.8009 22.9392 28.9267 20.2786 44.0534C20.1413 44.8573 19.4203 45.3871 18.6651 45.2227L14.2536 44.2727C13.4469 44.1082 12.9663 43.3592 13.1036 42.5554C16.3993 23.8114 31.8822 10 50.0257 10C58.471 10 66.3326 12.9778 72.6322 18.0566ZM59.7755 49.8813C59.0374 50.0822 58.2993 49.6255 58.0934 48.8399C57.9045 48.0544 58.3337 47.2688 59.0546 47.0496L60.7368 46.5746C61.4749 46.3736 62.213 46.8303 62.419 47.6159C62.6078 48.4015 62.1786 49.187 61.4406 49.4063L59.7755 49.8813ZM58.3165 45.3505C57.9045 46.0265 57.0634 46.2275 56.4283 45.8073C55.7932 45.3688 55.6044 44.4736 55.9992 43.7977L56.7716 42.5006C57.1836 41.8246 58.0247 41.6237 58.6598 42.0438C59.2949 42.464 59.4837 43.3775 59.0889 44.0534L58.3165 45.3505ZM58.6598 54.3206C57.9904 53.9552 57.7329 53.0601 58.0762 52.3658C58.4195 51.6533 59.2434 51.3793 59.9129 51.7447L61.2002 52.4572C61.8697 52.8226 62.1272 53.7177 61.7839 54.4302C61.4406 55.1427 60.6166 55.4168 59.9472 55.0514L58.6598 54.3206ZM53.6304 45.2044C56.9776 45.4784 59.0203 49.388 57.4067 52.6033C57.0634 53.2976 56.5485 53.9004 55.9305 54.3572L57.0806 58.9427C57.3553 60.0023 56.4283 61.0984 55.2611 60.6782L46.7129 57.9196L43.091 58.9609C41.1342 59.5273 39.0916 58.2667 38.5594 56.1841L37.6325 52.5485C37.375 51.5255 37.5295 50.4111 38.0102 49.5707C38.4908 48.6938 39.2632 48.0178 40.2588 47.7255L43.8806 46.6842L50.0429 39.6689C50.781 38.8285 52.0856 39.1939 52.3602 40.29L53.6304 45.2044ZM55.1581 49.6803C55.038 49.2236 54.7976 48.8399 54.4715 48.5659L55.0895 51.0139C55.2439 50.612 55.2783 50.137 55.1581 49.6803ZM43.6575 49.7899L40.9797 50.5572C40.7222 50.6303 40.5334 50.813 40.4133 51.0322C40.2931 51.2514 40.2588 51.5255 40.3275 51.7995L41.2372 55.435C41.3745 55.9831 41.9066 56.2937 42.4044 56.1475L45.0822 55.3802L43.6575 49.7899ZM50.3862 43.5784L46.1464 48.4015L47.8629 55.2706L53.8021 57.1889L50.3862 43.5784ZM49.9914 32.544C59.0546 32.544 66.4013 40.3631 66.4013 50.0091C66.4013 59.6552 59.0546 67.4743 49.9914 67.4743C40.9282 67.4743 33.5816 59.6552 33.5816 50.0091C33.5987 40.3631 40.9454 32.544 49.9914 32.544ZM59.6554 39.7237C54.317 34.042 45.683 34.042 40.3446 39.7237C35.0063 45.4053 35.0063 54.6129 40.3446 60.2763C45.683 65.958 54.3342 65.958 59.6554 60.2763C64.9937 54.5947 64.9937 45.3871 59.6554 39.7237ZM53.2185 29.0728L51.9654 25.4921H48.0346L46.7815 29.0728C46.6099 29.5661 46.2151 29.895 45.7688 29.9863C43.6575 30.4613 41.4947 31.4478 39.6752 32.6718C39.246 32.9641 38.7311 32.9641 38.3191 32.7449L35.1093 31.1921L32.3457 34.1516L33.839 37.641C34.0279 38.116 33.9935 38.6275 33.7532 39.0295C32.5688 41.0208 31.6934 43.2313 31.2128 45.5332C31.1098 46.0265 30.7665 46.4101 30.3545 46.5928L26.9902 47.9265V52.0918L30.3545 53.4254C30.818 53.6081 31.1269 54.0283 31.2128 54.5033C31.6591 56.7321 32.6031 59.0523 33.736 60.9705C34.0107 61.4273 34.0107 61.9753 33.8047 62.4138L32.3457 65.8301L35.1093 68.7897L38.3878 67.2003C38.8341 66.981 39.3147 67.0359 39.6923 67.2916C41.5633 68.5522 43.6403 69.4839 45.8031 69.9954C46.2666 70.105 46.6271 70.4704 46.7987 70.9089L48.0518 74.4896H51.9826L53.2356 70.9089C53.4073 70.4156 53.8021 70.0868 54.2484 69.9954C56.3425 69.5204 58.5225 68.5156 60.342 67.3099C60.7711 67.0176 61.2861 67.0176 61.698 67.2368L64.9251 68.7897L67.6887 65.8301L66.1953 62.3407C66.0065 61.8657 66.0408 61.3542 66.2811 60.9523C67.4655 58.9609 68.3409 56.7504 68.8216 54.4485C68.9245 53.9552 69.2678 53.5716 69.6798 53.3889L73.0442 52.0553V47.8899L69.6798 46.5563C69.2164 46.3736 68.9074 45.9534 68.8216 45.4784C68.3753 43.2313 67.4483 40.9477 66.2983 39.0112C66.0236 38.5545 66.0236 38.0064 66.2296 37.5679L67.6887 34.1516L64.9251 31.1921L61.6465 32.7815C61.2174 33.0007 60.7196 32.9459 60.3591 32.6901C59.3464 32.0142 58.4882 31.5392 57.4067 31.0642C56.3768 30.6074 55.3298 30.2603 54.2484 30.0046C53.7334 29.8767 53.3729 29.5296 53.2185 29.0728ZM54.1797 23.5373L55.5186 27.3373C56.5142 27.6113 57.4926 27.9584 58.4023 28.3604C59.3464 28.7805 60.2733 29.2738 61.1316 29.8036L64.5303 28.1594C65.0452 27.8671 65.7147 27.9584 66.1438 28.4152L70.2634 32.7997C70.6582 33.2199 70.7784 33.8593 70.5381 34.4257L68.9589 38.1343C69.9888 39.9977 70.7612 42.0073 71.2762 44.1082L74.7435 45.4967C75.3271 45.6611 75.7563 46.2457 75.7563 46.9034V53.0966C75.7563 53.6812 75.413 54.2475 74.8637 54.4668L71.2933 55.8918C70.7784 58.011 70.0059 60.0023 68.976 61.8657L70.5209 65.483C70.7955 66.0311 70.7097 66.7435 70.2806 67.2003L66.161 71.5848C65.7662 72.005 65.1654 72.1329 64.6333 71.8771L61.1487 70.1964C59.3979 71.2925 57.5269 72.1146 55.5358 72.6627L54.2312 76.3531C54.0767 76.9742 53.5446 77.4309 52.9095 77.4309H47.0905C46.5412 77.4309 46.0091 77.0655 45.8031 76.4809L44.4642 72.681C42.4731 72.1329 40.6021 71.3108 38.8513 70.2147L35.4526 71.8589C34.9376 72.1512 34.2682 72.0598 33.839 71.6031L29.7194 67.2185C29.3246 66.7984 29.2045 66.1589 29.4448 65.5926L31.024 61.884C29.9941 60.0206 29.2216 58.0292 28.7067 55.91L25.2393 54.5216C24.6557 54.3572 24.2437 53.7726 24.2437 53.1149V46.9217C24.2437 46.3371 24.587 45.7707 25.1363 45.5515L28.7067 44.1265C29.2216 42.0073 29.9941 40.016 31.024 38.1525L29.4791 34.5353C29.2045 33.9872 29.2903 33.2747 29.7194 32.818L33.839 28.4334C34.2338 28.0132 34.8346 27.8854 35.3667 28.1411L38.8513 29.8219C40.6021 28.7257 42.4903 27.8854 44.4642 27.3556L45.7688 23.6652C45.9233 23.0441 46.4554 22.5873 47.0905 22.5873H52.9095C53.4588 22.5873 53.9909 22.9527 54.1797 23.5373Z" fill="#2A4488" style="fill:#2A4488;fill:color(display-p3 0.1647 0.2667 0.5333);fill-opacity:1;"/>
</svg>
