<svg width="100" height="100" viewBox="0 0 100 100" fill="none" xmlns="http://www.w3.org/2000/svg">
<path d="M88.2762 67.9172L86.4591 66.6093C86.2557 66.4643 86.0477 66.3298 85.8353 66.2058C86.1801 65.4099 86.3596 64.5525 86.363 63.6854C86.3719 62.3261 85.9139 61.0048 85.0651 59.9416C83.9858 58.6535 82.4388 57.8447 80.7631 57.6925C79.0873 57.5402 77.4193 58.0569 76.1246 59.1293L60.9516 71.1616C60.94 71.1706 60.9323 71.1822 60.9213 71.1912L58.414 70.8565L59.9576 68.3432C60.3188 67.7559 60.5296 67.0889 60.5714 66.4011C60.6131 65.7133 60.4845 65.0258 60.197 64.3993C59.9094 63.7728 59.4717 63.2265 58.9225 62.8087C58.3733 62.3909 57.7294 62.1145 57.0478 62.0037L37.8051 58.9144C36.0214 58.6239 34.1921 58.8265 32.5157 59.5L24.2802 62.8082V62.6267C24.2802 62.1146 24.0764 61.6235 23.7134 61.2614C23.3505 60.8993 22.8583 60.6959 22.3451 60.6959H11.9352C11.4219 60.6959 10.9297 60.8993 10.5668 61.2614C10.2039 61.6235 10 62.1146 10 62.6267V86.8991C10 87.4112 10.2039 87.9023 10.5668 88.2644C10.9297 88.6265 11.4219 88.8299 11.9352 88.8299H22.3451C22.8583 88.8299 23.3505 88.6265 23.7134 88.2644C24.0764 87.9023 24.2802 87.4112 24.2802 86.8991V85.6177L44.1131 89.6621C45.2122 89.8852 46.3309 89.9984 47.4526 90C48.5858 90.0003 49.7158 89.8806 50.8236 89.6428C62.2727 87.152 74.3875 82.3288 87.8569 74.8984C88.4693 74.561 88.9862 74.0746 89.3596 73.4844C89.733 72.8941 89.9507 72.2193 89.9926 71.5226C90.0344 70.8259 89.899 70.1299 89.5989 69.4994C89.2988 68.869 88.8438 68.3251 88.2762 67.9172ZM78.5359 62.1524C79.0274 61.7175 79.6711 61.4938 80.327 61.53C80.9829 61.5662 81.598 61.8592 82.0385 62.3454C82.3389 62.7273 82.4998 63.2 82.4946 63.6854C82.4883 64.1824 82.3396 64.6672 82.0662 65.0827C80.7056 65.0111 79.3483 65.2764 78.1153 65.855L68.0698 70.6036C67.9331 70.6679 67.7925 70.7233 67.6538 70.7806L78.5359 62.1524ZM13.8703 84.9689V64.5582H20.4099V84.9689H13.8703ZM85.9875 71.5175C72.8478 78.7658 61.0755 83.4609 50.0038 85.87C48.3159 86.2262 46.5724 86.2293 44.8833 85.879L24.2802 81.6775V66.9723L33.9638 63.0772C34.9863 62.6674 36.1018 62.5449 37.1891 62.7232L56.4311 65.8126C56.4857 65.8208 56.5373 65.8429 56.5809 65.8767C56.6245 65.9105 56.6586 65.9549 56.6801 66.0056C56.7047 66.0552 56.7159 66.1104 56.7125 66.1656C56.7091 66.2208 56.6912 66.2742 56.6607 66.3204L54.2205 70.2946L45.9483 69.1934C45.6949 69.1564 45.4367 69.1698 45.1886 69.233C44.9405 69.2963 44.7075 69.408 44.503 69.5617C44.2984 69.7155 44.1266 69.9082 43.9972 70.1287C43.8679 70.3492 43.7837 70.5931 43.7496 70.8464C43.7155 71.0996 43.732 71.357 43.7983 71.6038C43.8646 71.8506 43.9794 72.0818 44.1359 72.284C44.2924 72.4862 44.4876 72.6554 44.7101 72.7818C44.9326 72.9082 45.1781 72.9893 45.4323 73.0203C45.4323 73.0203 61.7115 75.2028 61.8612 75.2247C64.5356 75.6422 67.2741 75.2487 69.7218 74.0951L79.7692 69.3473C80.4768 69.0131 81.2612 68.874 82.0409 68.9444C82.8207 69.0148 83.5673 69.2921 84.2033 69.7476L86.0095 71.0496C86.0493 71.0763 86.0811 71.1133 86.1017 71.1565C86.1222 71.1998 86.1307 71.2478 86.1262 71.2955C86.1258 71.3415 86.1127 71.3866 86.0883 71.4258C86.064 71.4649 86.0287 71.4966 85.9875 71.5175ZM51.3545 34.8962C51.5614 34.9182 51.7575 34.999 51.9196 35.1292C51.9301 35.3243 51.9013 35.5196 51.8348 35.7035C51.7683 35.8873 51.6655 36.056 51.5325 36.1995C51.3332 36.5085 51.0546 36.7587 50.7256 36.924C50.3967 37.0893 50.0294 37.1639 49.6619 37.1398C49.3142 37.0645 48.9852 36.9206 48.6941 36.7164C48.4031 36.5123 48.156 36.252 47.9673 35.9511L47.7738 35.6537C47.4973 35.2223 47.0603 34.9181 46.559 34.8082C46.0576 34.6982 45.5331 34.7915 45.1007 35.0674C44.6683 35.3433 44.3635 35.7793 44.2533 36.2795C44.143 36.7797 44.2365 37.3031 44.513 37.7345L44.7066 38.0331C45.498 39.2678 46.6798 40.2035 48.0647 40.6919V41.0639C48.0647 41.576 48.2686 42.0671 48.6315 42.4292C48.9944 42.7913 49.4867 42.9947 49.9999 42.9947C50.5131 42.9947 51.0053 42.7913 51.3683 42.4292C51.7312 42.0671 51.9351 41.576 51.9351 41.0639V40.6314C52.8723 40.2419 53.7029 39.635 54.3581 38.8611C55.0132 38.0872 55.474 37.1686 55.7022 36.1815C56.1253 34.1181 55.19 31.7515 52.1447 31.1163C48.5511 30.3665 48.2499 29.3888 48.137 29.0213C48.0789 28.835 48.0588 28.639 48.0779 28.4447C48.0969 28.2505 48.1547 28.0621 48.2479 27.8905C48.3288 27.7402 48.4397 27.608 48.5739 27.5022C48.708 27.3963 48.8625 27.3191 49.0278 27.2752C50.0005 27.0126 51.152 27.8995 51.9447 28.6912C52.3076 29.0534 52.7998 29.2569 53.3131 29.2571C53.8264 29.2572 54.3187 29.0539 54.6817 28.6918C55.0447 28.3298 55.2487 27.8387 55.2489 27.3265C55.249 26.8144 55.0452 26.3232 54.6824 25.961C53.8903 25.1407 52.9605 24.465 51.9351 23.9645V23.3267C51.9351 22.8146 51.7312 22.3235 51.3683 21.9614C51.0053 21.5993 50.5131 21.3959 49.9999 21.3959C49.4867 21.3959 48.9944 21.5993 48.6315 21.9614C48.2686 22.3235 48.0647 22.8146 48.0647 23.3267V23.5365L48.0183 23.5481C47.3509 23.7258 46.7266 24.0369 46.1833 24.4625C45.64 24.8881 45.1889 25.4194 44.8575 26.0241C44.5144 26.6496 44.3002 27.3373 44.2276 28.0467C44.1549 28.7561 44.2252 29.4729 44.4344 30.1547C45.3974 33.2788 48.6369 34.3298 51.3545 34.8962Z" fill="#2A4488" style="fill:#2A4488;fill:color(display-p3 0.1647 0.2667 0.5333);fill-opacity:1;"/>
<path d="M30.3835 37.9648H34.6634C34.7873 38.293 34.9217 38.617 35.0666 38.9366L32.0413 41.9551C31.5486 42.4467 31.2718 43.1135 31.2718 43.8087C31.2718 44.504 31.5486 45.1707 32.0413 45.6623L36.5109 50.1257C37.0055 50.6115 37.6722 50.883 38.3662 50.8815C39.0602 50.8799 39.7256 50.6054 40.218 50.1174L43.2446 47.0969C43.5641 47.2415 43.8882 47.3754 44.2167 47.4985V51.7708C44.2176 52.4656 44.4946 53.1317 44.987 53.623C45.4794 54.1143 46.147 54.3907 46.8434 54.3916H53.1572C53.8536 54.3907 54.5212 54.1143 55.0136 53.623C55.506 53.1317 55.783 52.4656 55.7839 51.7708V47.4966C56.1124 47.3735 56.4364 47.2396 56.756 47.095L59.7826 50.1148C60.2755 50.6063 60.9438 50.8824 61.6406 50.8824C62.3375 50.8824 63.0058 50.6063 63.4987 50.1148L67.9496 45.67C68.196 45.4274 68.3918 45.1384 68.5257 44.8199C68.6595 44.5013 68.7289 44.1594 68.7296 43.814C68.7304 43.4686 68.6626 43.1264 68.5302 42.8073C68.3978 42.4881 68.2033 42.1983 67.958 41.9545L64.9327 38.9353C65.0776 38.6157 65.212 38.2919 65.3358 37.9641H69.6158C70.3122 37.9634 70.9799 37.6871 71.4724 37.1958C71.9648 36.7044 72.2418 36.0382 72.2424 35.3434V29.0469C72.2416 28.3521 71.9646 27.686 71.4722 27.1947C70.9798 26.7034 70.3122 26.427 69.6158 26.4262H65.3345C65.2116 26.0988 65.0774 25.775 64.932 25.455L67.9502 22.4435C68.1965 22.2009 68.3922 21.9121 68.526 21.5937C68.6598 21.2752 68.7291 20.9335 68.73 20.5883C68.7308 20.243 68.6631 19.901 68.5309 19.5819C68.3986 19.2628 68.2043 18.9731 67.9593 18.7293L63.4974 14.2736C63.0043 13.7831 62.3365 13.5078 61.6403 13.5078C60.9441 13.5078 60.2763 13.7831 59.7832 14.2736L56.756 17.294C56.4364 17.1494 56.1124 17.0155 55.7839 16.8924V12.6214C55.7832 11.9264 55.5061 11.26 55.0136 10.7685C54.521 10.2771 53.8531 10.0007 53.1565 10H46.8427C46.1464 10.0009 45.4788 10.2772 44.9863 10.7685C44.4939 11.2599 44.2169 11.926 44.2161 12.6208V16.893C43.8875 17.0162 43.5635 17.1501 43.244 17.2947L40.2161 14.2736C39.7218 13.7851 39.0543 13.5111 38.3586 13.5111C37.663 13.5111 36.9955 13.7851 36.5012 14.2736L32.0413 18.728C31.5486 19.2196 31.2718 19.8863 31.2718 20.5816C31.2718 21.2768 31.5486 21.9435 32.0413 22.4352L35.0673 25.4543C34.9223 25.7744 34.7882 26.0981 34.6647 26.4255H30.3835C29.6871 26.4264 29.0195 26.7028 28.5271 27.1941C28.0347 27.6854 27.7577 28.3515 27.7568 29.0463V35.3427C27.7572 36.0378 28.034 36.7043 28.5265 37.196C29.019 37.6876 29.6869 37.9641 30.3835 37.9648ZM31.6272 30.2885H36.0716C36.4972 30.2891 36.9111 30.1497 37.2493 29.8918C37.5875 29.634 37.831 29.2721 37.9423 28.8622C38.2117 27.8729 38.605 26.9215 39.113 26.0303C39.3217 25.6629 39.404 25.2374 39.3471 24.8189C39.2903 24.4004 39.0975 24.0121 38.7982 23.7134L35.6588 20.5809L38.3615 17.8816L41.5036 21.0166C41.8041 21.3164 42.1952 21.5091 42.6164 21.5651C43.0376 21.621 43.4656 21.5371 43.8342 21.3262C44.7229 20.8188 45.6727 20.4264 46.6608 20.1587C47.0714 20.0475 47.4338 19.8044 47.692 19.467C47.9501 19.1296 48.0897 18.7167 48.089 18.2922V13.8616H51.9161V18.2961C51.9154 18.7205 52.0548 19.1333 52.3129 19.4707C52.5709 19.8081 52.9332 20.0512 53.3436 20.1626C54.3317 20.4305 55.2815 20.8228 56.1702 21.3301C56.5388 21.5408 56.9666 21.6246 57.3877 21.5687C57.8088 21.5127 58.1997 21.3201 58.5002 21.0205L61.6403 17.8842L64.3437 20.5835L61.2043 23.714C60.905 24.0127 60.7122 24.4011 60.6554 24.8195C60.5985 25.238 60.6808 25.6636 60.8895 26.031C61.3975 26.9221 61.7908 27.8736 62.0602 28.8629C62.1715 29.2728 62.415 29.6346 62.7532 29.8925C63.0914 30.1503 63.5053 30.2897 63.9309 30.2891H68.3753V34.1031H63.9328C63.508 34.1022 63.0946 34.2407 62.7566 34.4975C62.4185 34.7542 62.1745 35.1147 62.0622 35.5236C61.7897 36.5125 61.3949 37.4638 60.8869 38.3554C60.6782 38.7228 60.5959 39.1484 60.6528 39.5669C60.7097 39.9854 60.9025 40.3737 61.2017 40.6724L64.3405 43.8049L61.6377 46.5035L58.4982 43.3711C58.1978 43.0715 57.8069 42.8789 57.3858 42.8229C56.9647 42.767 56.5369 42.8508 56.1683 43.0615C55.2795 43.569 54.3294 43.9614 53.341 44.229C52.9306 44.3403 52.5683 44.5835 52.3103 44.9209C52.0522 45.2583 51.9128 45.6711 51.9135 46.0955V50.5299H48.0864V46.0935C48.0871 45.6691 47.9475 45.2562 47.6894 44.9188C47.4312 44.5814 47.0688 44.3383 46.6583 44.2271C45.6699 43.9594 44.7198 43.567 43.831 43.0596C43.4624 42.8489 43.0346 42.765 42.6135 42.821C42.1924 42.8769 41.8015 43.0695 41.501 43.3691L38.3596 46.5042L35.6568 43.8055L38.7957 40.6731C39.0949 40.3744 39.2877 39.986 39.3445 39.5675C39.4014 39.149 39.3192 38.7235 39.1105 38.3561C38.6024 37.4645 38.2076 36.5132 37.9352 35.5242C37.8231 35.1156 37.5794 34.7551 37.2417 34.4983C36.904 34.2415 36.491 34.1026 36.0664 34.1031H31.6272V30.2885Z" fill="#4264AA" style="fill:#4264AA;fill:color(display-p3 0.2588 0.3922 0.6667);fill-opacity:1;"/>
</svg>
