<svg width="100" height="100" viewBox="0 0 100 100" fill="none" xmlns="http://www.w3.org/2000/svg">
<path d="M89.1732 43.5571L83.3868 41.3298C82.5864 38.2396 81.3579 35.2764 79.7371 32.5263L82.2555 26.8561C82.3613 26.6178 82.3925 26.353 82.3449 26.0967C82.2972 25.8403 82.1731 25.6044 81.9887 25.42L74.58 18.0113C74.3956 17.8269 74.1597 17.7026 73.9033 17.655C73.647 17.6074 73.3822 17.6386 73.1439 17.7445L67.4716 20.2637C64.7223 18.6436 61.7601 17.4155 58.671 16.615L56.4431 10.8269C56.3493 10.5835 56.1841 10.3743 55.9691 10.2266C55.754 10.079 55.4994 10 55.2385 10H44.7613C44.5005 10 44.2459 10.079 44.0309 10.2266C43.816 10.3742 43.6508 10.5834 43.5571 10.8268L41.329 16.615C38.2399 17.4155 35.2777 18.6436 32.5284 20.2637L26.8561 17.7445C26.6178 17.6387 26.353 17.6075 26.0967 17.6551C25.8403 17.7027 25.6044 17.8269 25.42 18.0113L18.0111 25.4203C17.8268 25.6047 17.7026 25.8406 17.655 26.097C17.6073 26.3534 17.6385 26.6181 17.7444 26.8565L20.2634 32.5279C18.6429 35.2774 17.4147 38.24 16.6144 41.3295L10.8268 43.5571C10.5834 43.6508 10.3742 43.816 10.2266 44.0309C10.079 44.2459 10 44.5005 10 44.7613V55.2387C10 55.4995 10.079 55.7541 10.2266 55.9691C10.3742 56.184 10.5834 56.3492 10.8268 56.4429L16.6135 58.6705C17.4139 61.7606 18.6422 64.7238 20.2629 67.4739L17.7444 73.144C17.6385 73.3824 17.6074 73.6471 17.655 73.9035C17.7027 74.1599 17.8269 74.3958 18.0113 74.5802L25.4203 81.9887C25.6047 82.173 25.8406 82.2971 26.0969 82.3447C26.3533 82.3924 26.618 82.3613 26.8563 82.2555L32.5284 79.7365C35.2778 81.3565 38.24 82.5846 41.3292 83.3852L43.5571 89.1732C43.6508 89.4166 43.816 89.6258 44.0309 89.7734C44.2459 89.921 44.5005 90 44.7613 90H55.2387C55.4995 90 55.7541 89.921 55.9691 89.7734C56.184 89.6258 56.3492 89.4166 56.4429 89.1732L58.6705 83.3868C61.7607 82.5863 64.7238 81.3579 67.4739 79.7371L73.144 82.2555C73.3823 82.3614 73.6471 82.3926 73.9035 82.3449C74.1599 82.2972 74.3958 82.173 74.5802 81.9885L81.9887 74.5797C82.1731 74.3953 82.2972 74.1594 82.3449 73.9031C82.3925 73.6467 82.3613 73.382 82.2555 73.1437L79.7365 67.4715C81.3564 64.7221 82.5844 61.76 83.385 58.671L89.1732 56.4431C89.4166 56.3494 89.6258 56.1842 89.7734 55.9692C89.921 55.7543 90 55.4996 90 55.2389V44.7613C90 44.5005 89.921 44.2459 89.7734 44.0309C89.6258 43.816 89.4166 43.6508 89.1732 43.5571ZM87.4193 54.3527L81.8313 56.5037C81.6357 56.579 81.4614 56.7007 81.3235 56.8585C81.1856 57.0162 81.0882 57.2052 81.0397 57.409C80.2581 60.6931 78.957 63.8312 77.1856 66.7048C77.0758 66.8833 77.0111 67.0859 76.997 67.295C76.983 67.5041 77.0201 67.7134 77.1052 67.905L79.5373 73.3815L73.3818 79.5373L67.9073 77.1058C67.7157 77.0208 67.5063 76.9837 67.2971 76.9977C67.088 77.0118 66.8854 77.0765 66.7069 77.1864C63.8327 78.9585 60.6938 80.2598 57.4089 81.0411C57.205 81.0896 57.016 81.187 56.8582 81.3249C56.7004 81.4629 56.5786 81.6372 56.5034 81.8327L54.3527 87.4193H45.6473L43.4963 81.8315C43.421 81.6359 43.2992 81.4616 43.1415 81.3237C42.9838 81.1858 42.7948 81.0883 42.591 81.0398C39.3068 80.2582 36.1686 78.9571 33.2948 77.1856C33.1164 77.0757 32.9138 77.011 32.7047 76.9969C32.4956 76.9829 32.2862 77.0201 32.0947 77.1052L26.6184 79.5373L20.4624 73.3818L22.894 67.9073C22.9791 67.7157 23.0162 67.5063 23.0021 67.2971C22.9881 67.088 22.9233 66.8854 22.8134 66.7069C21.0414 63.8326 19.7402 60.6937 18.9589 57.4087C18.9104 57.2049 18.813 57.0159 18.675 56.8581C18.5371 56.7004 18.3628 56.5786 18.1673 56.5034L12.5806 54.3527V45.6471L18.1681 43.4966C18.3637 43.4214 18.538 43.2996 18.6759 43.1418C18.8139 42.9841 18.9113 42.795 18.9597 42.5911C19.7411 39.3068 21.0422 36.1684 22.8139 33.2947C22.9238 33.1162 22.9886 32.9136 23.0026 32.7044C23.0167 32.4952 22.9796 32.2858 22.8945 32.0942L20.4624 26.6184L26.6182 20.4624L32.0947 22.8947C32.2862 22.9798 32.4956 23.0169 32.7047 23.0028C32.9139 22.9888 33.1164 22.924 33.2948 22.814C36.1686 21.0427 39.3068 19.7417 42.5908 18.9602C42.7947 18.9116 42.9836 18.8142 43.1414 18.6762C43.2991 18.5383 43.4209 18.364 43.4961 18.1684L45.6474 12.5806H54.3527L56.5037 18.1687C56.579 18.3643 56.7007 18.5386 56.8585 18.6765C57.0162 18.8145 57.2052 18.9119 57.409 18.9605C60.693 19.7419 63.8312 21.0429 66.7048 22.8142C66.8833 22.9241 67.0858 22.9888 67.2949 23.0029C67.5041 23.0169 67.7134 22.9798 67.905 22.8948L73.3815 20.4626L79.5373 26.6185L77.1058 32.0929C77.0208 32.2845 76.9837 32.4939 76.9977 32.703C77.0117 32.9122 77.0765 33.1147 77.1864 33.2932C78.9585 36.1675 80.2598 39.3065 81.0411 42.5914C81.0896 42.7953 81.187 42.9843 81.3249 43.1421C81.4629 43.2999 81.6372 43.4217 81.8327 43.4969L87.4193 45.6471V54.3527ZM58.8595 41.7224C58.8595 40.8481 59.5684 40.1392 60.4427 40.1392C61.3171 40.1392 62.026 40.8481 62.026 41.7224C62.026 42.5968 61.3171 43.3056 60.4427 43.3056C59.5684 43.3056 58.8595 42.5968 58.8595 41.7224ZM37.0981 41.7224C37.0981 42.5968 36.3892 43.3056 35.5148 43.3056C34.6405 43.3056 33.9316 42.5968 33.9316 41.7224C33.9316 40.8481 34.6405 40.1392 35.5148 40.1392C36.3892 40.1392 37.0981 40.8481 37.0981 41.7224ZM72.8108 44.6611H70.9323V30.2697C70.9323 29.0766 69.9615 28.106 68.7684 28.106H27.189C25.996 28.106 25.0253 29.0766 25.0253 30.2697V53.1748C25.0253 54.3679 25.996 55.3387 27.189 55.3387H29.0677V69.7302C29.0677 70.9232 30.0384 71.8939 31.2315 71.8939H72.8106C74.0037 71.8939 74.9745 70.9232 74.9745 69.7302V46.825C74.9747 45.6318 74.0039 44.6611 72.8108 44.6611ZM27.606 52.7582V30.6868H68.3514V44.6613H66.8897V36.2977C66.8897 35.4452 66.2518 34.7224 65.4066 34.6166C65.0727 34.5748 64.7623 34.4229 64.5243 34.1849C64.2864 33.9468 64.1346 33.6363 64.0929 33.3024C63.9863 32.4574 63.2634 31.8202 62.4118 31.8202H33.5456C32.6934 31.8202 31.9705 32.4579 31.8644 33.3032C31.8226 33.6369 31.6709 33.9471 31.4332 34.185C31.1954 34.4228 30.8853 34.5747 30.5516 34.6166C29.7056 34.7224 29.0677 35.4452 29.0677 36.2977V52.7584L27.606 52.7582ZM51.9748 43.559C51.7676 41.8527 50.496 40.7963 48.1956 40.4185C47.301 40.2716 46.8385 40.0158 46.8213 39.6581C46.7944 39.1037 47.425 38.9171 47.6189 38.8731C48.0787 38.769 48.9482 38.8126 49.2945 39.6368C49.4271 39.9522 49.6795 40.2021 49.9962 40.3316C50.313 40.461 50.6682 40.4593 50.9837 40.3269C51.1399 40.2614 51.2817 40.1656 51.401 40.0452C51.5202 39.9249 51.6146 39.7822 51.6787 39.6253C51.7428 39.4684 51.7753 39.3005 51.7745 39.131C51.7737 38.9616 51.7395 38.794 51.6739 38.6377C51.2168 37.5489 50.334 36.7753 49.269 36.4368V36.3373C49.269 35.995 49.1331 35.6668 48.8911 35.4249C48.6491 35.1829 48.3209 35.0469 47.9787 35.0469C47.6365 35.0469 47.3083 35.1829 47.0663 35.4249C46.8243 35.6668 46.6884 35.995 46.6884 36.3373V36.4544C45.1385 36.9494 44.1692 38.2481 44.2439 39.7834C44.2913 40.7627 44.8135 42.4784 47.7776 42.9652C49.3342 43.2206 49.3895 43.676 49.4132 43.8703C49.435 44.0503 49.3885 44.1213 49.3389 44.1785C49.1316 44.4182 48.5934 44.6015 48.059 44.6142C47.4574 44.6284 46.6747 44.3981 46.5006 43.6997C46.4597 43.5352 46.3867 43.3805 46.286 43.2442C46.1852 43.108 46.0585 42.993 45.9133 42.9057C45.768 42.8184 45.607 42.7606 45.4394 42.7356C45.2718 42.7105 45.1009 42.7188 44.9365 42.7598C44.6044 42.8426 44.3189 43.0539 44.1426 43.3472C43.9664 43.6405 43.9139 43.9918 43.9966 44.3239C44.0253 44.4392 44.0602 44.5514 44.099 44.6613H31.6487V37.0023C32.2553 36.8016 32.8064 36.4619 33.2582 36.0101C33.7099 35.5584 34.0497 35.0072 34.2503 34.4006H61.7076C61.9082 35.0072 62.2479 35.5584 62.6997 36.0101C63.1514 36.4618 63.7026 36.8016 64.3092 37.0021V44.6611H51.9129C51.9976 44.3124 52.0216 43.9434 51.9748 43.559ZM72.394 69.3132H31.6485V48.2584L32.2821 47.2418H72.394V69.3132ZM34.5934 65.3835C34.9272 65.4253 35.2375 65.5771 35.4754 65.815C35.7133 66.0528 35.8651 66.3632 35.9069 66.6969C36.0131 67.5424 36.736 68.1802 37.5881 68.1802H66.4544C67.3066 68.1802 68.0295 67.5424 68.1356 66.6971C68.1775 66.3632 68.3294 66.0527 68.5674 65.8148C68.8054 65.5769 69.1159 65.4251 69.4498 65.3834C70.2948 65.2766 70.9321 64.5539 70.9321 63.7023V52.8527C70.9321 52.0011 70.2948 51.2784 69.449 51.1715C69.1153 51.1297 68.8049 50.9779 68.5671 50.7401C68.3292 50.5023 68.1773 50.192 68.1355 49.8582C68.0294 49.0126 67.3064 48.375 66.4542 48.375H37.5881C36.7358 48.375 36.0131 49.0127 35.9069 49.8581C35.8651 50.192 35.7132 50.5024 35.4752 50.7403C35.2372 50.9782 34.9267 51.1299 34.5927 51.1716C33.7477 51.2784 33.1105 52.0011 33.1105 52.8527V63.7023C33.1103 64.5539 33.7476 65.2766 34.5934 65.3835ZM35.691 53.5573C36.2975 53.3566 36.8487 53.0169 37.3004 52.5651C37.7522 52.1134 38.092 51.5622 38.2926 50.9556H65.7498C65.9504 51.5622 66.2901 52.1135 66.7419 52.5653C67.1937 53.017 67.7449 53.3568 68.3514 53.5574V62.9979C67.7449 63.1985 67.1937 63.5382 66.7419 63.99C66.2901 64.4417 65.9504 64.9929 65.7498 65.5995H38.2926C38.092 64.9929 37.7523 64.4417 37.3005 63.9899C36.8488 63.5381 36.2976 63.1983 35.691 62.9977V53.5573ZM62.9019 58.2776C62.9019 57.4032 63.6108 56.6944 64.4852 56.6944C65.3595 56.6944 66.0684 57.4032 66.0684 58.2776C66.0684 59.1519 65.3595 59.8608 64.4852 59.8608C63.6108 59.8608 62.9019 59.1519 62.9019 58.2776ZM37.974 58.2776C37.974 57.4032 38.6829 56.6944 39.5573 56.6944C41.6398 56.6944 41.6398 59.8608 39.5573 59.8608C38.6829 59.8608 37.974 59.1519 37.974 58.2776ZM53.3813 60.7337C53.431 60.6763 53.4776 60.6052 53.4556 60.4252C53.4321 60.2308 53.3768 59.7758 51.82 59.5203C48.856 59.0335 48.3337 57.3179 48.2863 56.3384C48.2116 54.8029 49.1813 53.5045 50.731 53.0094V52.8921C50.731 52.5499 50.8669 52.2217 51.1089 51.9797C51.3509 51.7377 51.6791 51.6018 52.0213 51.6018C52.3635 51.6018 52.6917 51.7377 52.9337 51.9797C53.1757 52.2217 53.3116 52.5499 53.3116 52.8921V52.9918C54.3768 53.3303 55.259 54.1039 55.7163 55.1926C55.8488 55.5081 55.8506 55.8633 55.7212 56.1802C55.5918 56.497 55.3418 56.7494 55.0263 56.8819C54.7108 57.0145 54.3555 57.0162 54.0387 56.8868C53.7219 56.7574 53.4695 56.5075 53.3369 56.1919C52.9908 55.3677 52.1202 55.3244 51.6614 55.4284C51.4674 55.4723 50.8368 55.659 50.8637 56.2134C50.881 56.5711 51.3435 56.8269 52.2381 56.9737C54.5387 57.3515 55.8102 58.4081 56.0174 60.1144C56.1231 60.9844 55.8865 61.7823 55.3331 62.4221C54.8532 62.9766 54.1368 63.3853 53.3118 63.5942V63.6632C53.3118 64.0054 53.1758 64.3336 52.9338 64.5756C52.6919 64.8176 52.3637 64.9535 52.0215 64.9535C51.6792 64.9535 51.351 64.8176 51.1091 64.5756C50.8671 64.3336 50.7311 64.0054 50.7311 63.6632V63.5711C49.3869 63.1855 48.3698 62.2048 48.0394 60.8795C47.9565 60.5475 48.009 60.1962 48.1852 59.9029C48.3614 59.6095 48.6469 59.3982 48.9789 59.3153C49.1433 59.2743 49.3141 59.266 49.4817 59.291C49.6493 59.316 49.8103 59.3738 49.9556 59.461C50.1009 59.5483 50.2275 59.6633 50.3283 59.7995C50.4291 59.9357 50.5021 60.0904 50.5431 60.2548C50.7173 60.9534 51.4935 61.1856 52.1016 61.1695C52.6358 61.1565 53.174 60.9732 53.3813 60.7337Z" fill="#2A4488" style="fill:#2A4488;fill:color(display-p3 0.1647 0.2667 0.5333);fill-opacity:1;"/>
</svg>
