<svg width="100" height="100" viewBox="0 0 100 100" fill="none" xmlns="http://www.w3.org/2000/svg">
<path d="M50.0022 10C43.8527 9.99958 37.7859 11.4171 32.2733 14.1423C26.7606 16.8676 21.9505 20.8272 18.2168 25.7135C14.4831 30.5998 11.9262 36.2812 10.7449 42.3162C9.56365 48.3513 9.78975 54.5774 11.4057 60.5109C13.0216 66.4444 15.9838 71.9253 20.0621 76.5279C24.1404 81.1305 29.2251 84.7308 34.9209 87.049C40.6167 89.3672 46.7703 90.3409 52.9035 89.8944C59.0368 89.448 64.9845 87.5933 70.2845 84.4747L82.043 87.6747C82.8234 87.8883 83.6464 87.8916 84.4285 87.6844C85.2106 87.4771 85.9239 87.0665 86.496 86.4944C87.0682 85.9223 87.4787 85.2089 87.686 84.4268C87.8933 83.6448 87.8899 82.8217 87.6763 82.0413L84.4763 70.2827C88.0506 64.207 89.9559 57.2947 89.9992 50.2458C90.0426 43.1968 88.2224 36.2616 84.723 30.1425C81.2236 24.0234 76.1694 18.9378 70.0721 15.4006C63.9748 11.8634 57.0511 10.0003 50.0022 10ZM81.7537 70.4347L85.1043 82.7453C85.1933 83.0719 85.1943 83.4161 85.1073 83.7432C85.0202 84.0702 84.8482 84.3684 84.6087 84.6075C84.3692 84.8466 84.0707 85.0181 83.7435 85.1046C83.4163 85.1911 83.0721 85.1895 82.7457 85.1L70.4352 81.7493C70.2603 81.7013 70.0773 81.6898 69.8977 81.7154C69.7181 81.7411 69.5457 81.8035 69.3912 81.8987C61.5896 86.6409 52.3207 88.3599 43.3375 86.7305C34.3543 85.1012 26.2795 80.2364 20.6402 73.0564C15.001 65.8763 12.1882 56.8786 12.734 47.765C13.2797 38.6514 17.146 30.0537 23.6017 23.5979C30.0575 17.142 38.6551 13.2756 47.7685 12.7299C56.882 12.1842 65.8795 14.997 73.0595 20.6363C80.2395 26.2756 85.1042 34.3505 86.7335 43.3339C88.3628 52.3173 86.6439 61.5863 81.9017 69.388C81.807 69.5432 81.745 69.716 81.7196 69.896C81.6941 70.076 81.7057 70.2593 81.7537 70.4347Z" fill="#2A4488" style="fill:#2A4488;fill:color(display-p3 0.1647 0.2667 0.5333);fill-opacity:1;"/>
<path d="M38.0023 58C38.3559 58 38.695 57.8595 38.9451 57.6095C39.1951 57.3594 39.3356 57.0203 39.3356 56.6667C39.3356 56.313 39.1951 55.9739 38.9451 55.7239C38.695 55.4738 38.3559 55.3333 38.0023 55.3333H32.0596C32.7403 54.7903 33.4702 54.3118 34.2396 53.904C36.5103 52.592 39.3356 50.9613 39.3356 47.3333C39.3356 45.9188 38.7737 44.5623 37.7735 43.5621C36.7733 42.5619 35.4168 42 34.0023 42C32.5878 42 31.2312 42.5619 30.231 43.5621C29.2308 44.5623 28.6689 45.9188 28.6689 47.3333C28.6689 47.687 28.8094 48.0261 29.0595 48.2761C29.3095 48.5262 29.6487 48.6667 30.0023 48.6667C30.3559 48.6667 30.695 48.5262 30.9451 48.2761C31.1951 48.0261 31.3356 47.687 31.3356 47.3333C31.3356 46.6261 31.6166 45.9478 32.1167 45.4477C32.6168 44.9476 33.295 44.6667 34.0023 44.6667C34.7095 44.6667 35.3878 44.9476 35.8879 45.4477C36.388 45.9478 36.6689 46.6261 36.6689 47.3333C36.6689 49.2813 35.2476 50.2427 32.9063 51.6C30.9196 52.7413 28.6689 54.04 28.6689 56.6667C28.6689 57.0203 28.8094 57.3594 29.0595 57.6095C29.3095 57.8595 29.6487 58 30.0023 58H38.0023ZM63.3356 43.3333C63.3356 43.687 63.4761 44.0261 63.7261 44.2761C63.9762 44.5262 64.3153 44.6667 64.6689 44.6667H69.1783L63.4689 56.0707C63.3109 56.3872 63.285 56.7535 63.397 57.0891C63.5091 57.4246 63.7498 57.7019 64.0663 57.86C64.3828 58.0181 64.7491 58.0439 65.0847 57.9319C65.4202 57.8199 65.6975 57.5792 65.8556 57.2627L72.5223 43.9293C72.6236 43.7265 72.6716 43.5012 72.6616 43.2747C72.6516 43.0482 72.5841 42.8279 72.4653 42.6348C72.3465 42.4417 72.1804 42.282 71.9827 42.1709C71.7851 42.0599 71.5624 42.001 71.3356 42H64.6689C64.3153 42 63.9762 42.1405 63.7261 42.3905C63.4761 42.6406 63.3356 42.9797 63.3356 43.3333ZM48.6689 58C49.0226 58 49.3617 57.8595 49.6118 57.6095C49.8618 57.3594 50.0023 57.0203 50.0023 56.6667V54H51.3356C51.6892 54 52.0284 53.8595 52.2784 53.6095C52.5285 53.3594 52.6689 53.0203 52.6689 52.6667C52.6689 52.313 52.5285 51.9739 52.2784 51.7239C52.0284 51.4738 51.6892 51.3333 51.3356 51.3333H50.0023V50C50.0023 49.6464 49.8618 49.3072 49.6118 49.0572C49.3617 48.8071 49.0226 48.6667 48.6689 48.6667C48.3153 48.6667 47.9762 48.8071 47.7261 49.0572C47.4761 49.3072 47.3356 49.6464 47.3356 50V51.3333H44.3009L48.4929 44C48.5848 43.8478 48.6452 43.6788 48.6708 43.5029C48.6963 43.327 48.6864 43.1477 48.6417 42.9757C48.5969 42.8037 48.5183 42.6423 48.4103 42.5011C48.3023 42.36 48.1671 42.2418 48.0128 42.1536C47.8585 42.0654 47.688 42.009 47.5116 41.9876C47.3351 41.9662 47.1562 41.9804 46.9852 42.0292C46.8143 42.078 46.6549 42.1604 46.5163 42.2718C46.3777 42.3831 46.2628 42.521 46.1783 42.6773L40.8449 52.0107C40.7304 52.2133 40.671 52.4423 40.6724 52.675C40.6739 52.9077 40.7362 53.136 40.8532 53.3372C40.9703 53.5383 41.1379 53.7053 41.3395 53.8216C41.5411 53.9379 41.7696 53.9994 42.0023 54H47.3356V56.6667C47.3356 57.0203 47.4761 57.3594 47.7261 57.6095C47.9762 57.8595 48.3153 58 48.6689 58ZM58.0423 41.6773L54.0423 57.6773C53.9568 58.0203 54.011 58.3833 54.1931 58.6863C54.3751 58.9893 54.67 59.2077 55.0129 59.2933C55.1185 59.3196 55.2268 59.333 55.3356 59.3333C55.6328 59.333 55.9213 59.2333 56.1554 59.0502C56.3895 58.8671 56.5557 58.611 56.6276 58.3227L60.6276 42.3227C60.6746 42.1513 60.6869 41.9723 60.6637 41.7961C60.6405 41.6199 60.5823 41.4502 60.4926 41.2968C60.4029 41.1434 60.2834 41.0095 60.1412 40.903C59.999 40.7964 59.8369 40.7194 59.6645 40.6764C59.4921 40.6334 59.3128 40.6252 59.1372 40.6525C58.9616 40.6798 58.7933 40.7418 58.642 40.8351C58.4908 40.9283 58.3597 41.0509 58.2564 41.1955C58.1532 41.3402 58.0813 41.504 58.0423 41.6773Z" fill="#4264AA" style="fill:#4264AA;fill:color(display-p3 0.2588 0.3922 0.6667);fill-opacity:1;"/>
<path d="M73.0544 34.0719C72.7552 34.26 72.5429 34.5591 72.4641 34.9037C72.3854 35.2482 72.4466 35.6099 72.6344 35.9093C75.9368 41.1983 77.2803 47.4777 76.4312 53.655C75.5821 59.8323 72.5941 65.5163 67.9871 69.7182C63.3802 73.92 57.4458 76.3737 51.2167 76.6522C44.9876 76.9307 38.858 75.0165 33.8944 71.2426L36.7264 71.0666C37.08 71.0445 37.4104 70.8828 37.6448 70.6171C37.8792 70.3515 37.9985 70.0035 37.9764 69.6499C37.9543 69.2963 37.7926 68.9659 37.5269 68.7315C37.2613 68.4971 36.9133 68.3778 36.5597 68.3999L30.4384 68.7813C30.0855 68.8035 29.7559 68.9651 29.5221 69.2304C29.2883 69.4957 29.1694 69.843 29.1917 70.1959L29.573 76.3159C29.5941 76.655 29.7438 76.9733 29.9916 77.2057C30.2394 77.4382 30.5666 77.5672 30.9064 77.5666H30.9904C31.1652 77.5557 31.3362 77.5105 31.4936 77.4335C31.651 77.3565 31.7917 77.2493 31.9076 77.1179C32.0235 76.9865 32.1123 76.8336 32.1691 76.6678C32.2259 76.5021 32.2494 76.3268 32.2384 76.1519L32.053 73.1719C37.4904 77.3898 44.2383 79.5603 51.115 79.3035C57.9917 79.0466 64.5588 76.3787 69.6664 71.767C74.7739 67.1553 78.0963 60.8937 79.0516 54.0789C80.0069 47.264 78.5343 40.3303 74.8917 34.4919C74.7037 34.1927 74.4045 33.9804 74.06 33.9017C73.7155 33.8229 73.3538 33.8841 73.0544 34.0719ZM23.3357 49.9999C23.3327 45.035 24.7166 40.1679 27.3315 35.9473C29.9465 31.7268 33.6884 28.3206 38.1354 26.1128C42.5825 23.905 47.5579 22.9834 52.5007 23.4518C57.4435 23.9202 62.1572 25.7601 66.1104 28.7639L63.2784 28.9399C63.1033 28.9454 62.931 28.9852 62.7713 29.0572C62.6116 29.1293 62.4677 29.232 62.3477 29.3597C62.2277 29.4873 62.134 29.6374 62.0721 29.8012C62.0101 29.965 61.981 30.1395 61.9864 30.3146C61.9918 30.4897 62.0317 30.662 62.1037 30.8217C62.1757 30.9814 62.2785 31.1253 62.4061 31.2453C62.5338 31.3653 62.6838 31.4589 62.8477 31.5209C63.0115 31.5829 63.186 31.612 63.361 31.6066H63.445L69.5664 31.2253C69.9193 31.203 70.2489 31.0414 70.4827 30.7761C70.7165 30.5108 70.8353 30.1635 70.813 29.8106L70.4317 23.6906C70.4235 23.5149 70.3801 23.3427 70.3041 23.1842C70.228 23.0256 70.1209 22.8839 69.9891 22.7675C69.8573 22.6511 69.7035 22.5624 69.5367 22.5066C69.37 22.4508 69.1937 22.429 69.0184 22.4426C68.8435 22.4535 68.6725 22.4987 68.5151 22.5757C68.3578 22.6527 68.2171 22.7599 68.1012 22.8913C67.9853 23.0227 67.8964 23.1756 67.8397 23.3414C67.7829 23.5071 67.7594 23.6824 67.7704 23.8573L67.9557 26.8373C62.519 22.6212 55.7726 20.4517 48.8975 20.7084C42.0224 20.9652 35.4566 23.6318 30.3495 28.2416C25.2424 32.8514 21.9193 39.1106 20.962 45.9236C20.0047 52.7366 21.4741 59.6692 25.113 65.5079C25.2331 65.6994 25.3998 65.8573 25.5976 65.9667C25.7954 66.0761 26.0177 66.1334 26.2437 66.1333C26.494 66.1336 26.7392 66.0624 26.9504 65.9279C27.2496 65.7399 27.4619 65.4407 27.5407 65.0962C27.6194 64.7517 27.5582 64.39 27.3704 64.0906C24.727 59.8666 23.3286 54.9828 23.3357 49.9999Z" fill="#2A4488" style="fill:#2A4488;fill:color(display-p3 0.1647 0.2667 0.5333);fill-opacity:1;"/>
</svg>
