<svg width="100" height="100" viewBox="0 0 100 100" fill="none" xmlns="http://www.w3.org/2000/svg">
<path d="M79.1888 46.1608C81.5315 44.0866 83.0827 40.6363 83.0827 36.7473C83.0827 30.3852 78.9988 25.2396 73.9493 25.2396C68.8999 25.2396 64.816 30.3852 64.816 36.7473C64.816 40.6363 66.3514 44.0866 68.7099 46.1608C66.6996 47.0383 64.8635 48.3945 63.3122 50.1496C61.1753 47.856 58.6585 46.101 55.9042 45.0639C59.2442 42.5111 61.4919 37.8641 61.4919 32.579C61.4919 24.5217 56.3158 18 49.9209 18C43.5259 18 38.3498 24.5416 38.3498 32.579C38.3498 37.8641 40.5817 42.5111 43.9375 45.0639C41.2149 46.101 38.7297 47.8361 36.6086 50.0897C35.0574 48.3746 33.2529 47.0383 31.2742 46.1807C33.6169 44.1066 35.1682 40.6563 35.1682 36.7672C35.1682 30.4051 31.0843 25.2596 26.0348 25.2596C20.9854 25.2596 16.9015 30.4051 16.9015 36.7672C16.9015 40.6563 18.4369 44.1066 20.7954 46.1807C14.5113 48.9131 10 56.4319 10 65.2671V66.5834C10 66.6232 10.0317 66.6631 10.0633 66.6631H29.4222C29.3114 67.7601 29.2481 68.8969 29.2481 70.0337V71.3898C29.2481 77.2534 33.0154 82 37.6692 82H62.2042C66.8579 82 70.6252 77.2534 70.6252 71.3898V70.0337C70.6252 68.8969 70.5619 67.7601 70.4511 66.6631H89.9367C89.9683 66.6631 90 66.6232 90 66.5834V65.2671C89.9683 56.412 85.4729 48.8931 79.1888 46.1608ZM67.3486 36.7273C67.3486 32.1402 70.3087 28.4107 73.9493 28.4107C77.59 28.4107 80.5501 32.1402 80.5501 36.7273C80.5501 41.2546 77.6533 44.9442 74.076 45.0439H73.8227C70.2295 44.9642 67.3486 41.2745 67.3486 36.7273ZM40.8508 32.579C40.8508 26.2967 44.903 21.191 49.8892 21.191C54.8753 21.191 58.9276 26.2967 58.9276 32.579C58.9276 38.6419 55.1444 43.608 50.4116 43.947H49.3668C44.634 43.608 40.8508 38.6419 40.8508 32.579ZM19.3866 36.7273C19.3866 32.1402 22.3467 28.4107 25.9873 28.4107C29.628 28.4107 32.588 32.1402 32.588 36.7273C32.588 41.2546 29.6913 44.9442 26.114 45.0439H25.8607C22.2833 44.9642 19.3866 41.2745 19.3866 36.7273ZM29.8655 63.4522H12.5643C13.2766 54.9561 18.9751 48.2948 25.8924 48.235H26.0823C29.3748 48.2549 32.3823 49.7906 34.7091 52.2836C32.4298 55.3948 30.736 59.2241 29.8655 63.4522ZM68.0609 71.3898C68.0609 75.4783 65.4175 78.809 62.1725 78.809H37.6375C34.3926 78.809 31.7491 75.4783 31.7491 71.3898V70.0337C31.7491 57.6485 39.6003 47.517 49.3668 47.158C49.541 47.1779 49.7309 47.1779 49.905 47.1779C50.0791 47.1779 50.2691 47.1779 50.4432 47.158C60.2097 47.517 68.0609 57.6485 68.0609 70.0337V71.3898ZM69.9446 63.4522C69.074 59.244 67.4119 55.4746 65.1484 52.3633C67.4911 49.8105 70.5303 48.2749 73.8544 48.235H74.0443C80.9616 48.2948 86.6601 54.9561 87.3724 63.4522H69.9446Z" fill="#243F8B" style="fill:#243F8B;fill:color(display-p3 0.1412 0.2471 0.5451);fill-opacity:1;"/>
</svg>
