<svg width="100" height="100" viewBox="0 0 100 100" fill="none" xmlns="http://www.w3.org/2000/svg">
<path d="M69.1307 71.875C68.1707 71.875 67.3916 72.575 67.3916 73.4375C67.3916 74.3 68.1707 75 69.1307 75C70.0907 75 70.8699 74.3 70.8699 73.4375C70.8699 72.575 70.0907 71.875 69.1307 71.875Z" fill="#4264AA" style="fill:#4264AA;fill:color(display-p3 0.2588 0.3922 0.6667);fill-opacity:1;"/>
<path d="M73.4125 66.8223L65.1464 64.3473L62.179 59.015C64.8523 56.5703 66.7085 53.3356 67.3344 49.9617L67.7045 47.9688H70.8696C73.7464 47.9688 76.087 45.8659 76.087 43.2812V33.4375C76.087 20.5141 64.3843 10 50 10C35.5788 10 23.913 20.4839 23.913 33.4375V43.2812C23.913 45.3181 25.3671 47.055 27.3913 47.7V49.5312C27.3913 52.1159 29.7318 54.2188 32.6087 54.2188H34.136C34.8877 55.6898 35.8701 57.0564 37.0532 58.2772C37.3 58.5312 37.5556 58.7782 37.8195 59.018L34.8536 64.3473L26.5873 66.8225C16.976 69.7019 10 78.7923 10 88.4375C10 89.3005 10.7786 90 11.7391 90H88.2609C89.2212 90 90 89.3005 90 88.4375C90 78.7923 83.0242 69.7019 73.4125 66.8223ZM72.6087 43.2812C72.6087 44.1428 71.8285 44.8438 70.8696 44.8438H68.2153C68.6574 41.7672 68.952 38.4933 69.0704 35.2687C69.0739 35.1778 69.0767 35.0894 69.0798 35H72.6087V43.2812ZM29.1304 44.8438C28.1715 44.8438 27.3913 44.1428 27.3913 43.2812V35H30.9214C30.9271 35.163 30.9332 35.3267 30.94 35.4916L30.9407 35.5083V35.5097C31.0624 38.6459 31.3532 41.8348 31.7852 44.8436H29.1304V44.8438ZM32.6087 51.0938C31.6497 51.0938 30.8696 50.3928 30.8696 49.5312V47.9688H32.2953L32.6654 49.9623C32.7366 50.3421 32.8225 50.7194 32.9231 51.0938H32.6087ZM30.8725 31.875H27.4574C28.3383 21.403 38.0656 13.125 50 13.125C61.8814 13.125 71.6515 21.4019 72.5424 31.875H69.1277C69.0024 23.2458 61.181 16.25 51.5567 16.25H48.4437C38.8195 16.25 30.9976 23.2458 30.8725 31.875ZM48.4435 19.375H51.5565C59.3494 19.375 65.6567 25.1017 65.6522 32.0953C65.6522 32.587 65.6478 33.0152 65.6386 33.4047L65.6384 33.42L63.4631 33.1408C57.5536 32.3827 51.9737 29.8761 47.7515 26.0827C47.4253 25.7897 46.983 25.6251 46.5217 25.625C41.8511 25.625 37.3802 27.5369 34.4247 30.7669C35.153 24.4045 41.1397 19.375 48.4435 19.375ZM36.5287 51.0938C35.6581 48.4917 34.6619 40.8355 34.4417 35.9292L36.7824 33.1252C38.9322 30.5508 42.2767 28.9513 45.8344 28.7677C50.5157 32.7702 56.5717 35.4133 62.9713 36.2342L65.5317 36.563C65.3605 39.8263 65.0108 43.1009 64.5097 46.1127L64.5092 46.1158C64.3499 47.0841 64.2243 47.7072 63.9037 49.4477C62.9826 54.4109 58.8605 58.8992 53.419 60.1216C51.1742 60.6238 48.8266 60.6238 46.5819 60.1216C43.1842 59.3584 40.0687 57.2463 38.0581 54.2188H41.6035C42.3214 56.0373 44.2544 57.3438 46.5217 57.3438H50C52.8826 57.3438 55.2174 55.2463 55.2174 52.6562C55.2174 50.0716 52.8769 47.9688 50 47.9688H46.5217C44.204 47.9688 42.2995 49.3138 41.6005 51.0938H36.5287ZM46.3755 63.2837C47.5672 63.5099 48.7819 63.6243 50 63.625C50.9515 63.625 51.9031 63.5534 52.844 63.4147L49.771 66.3345L46.3755 63.2837ZM47.38 68.6061L41.8638 73.847C40.3441 71.2334 39.0426 68.5219 37.9701 65.735L40.0416 62.0128L47.38 68.6061ZM59.6637 61.4834L62.0296 65.7348C60.9571 68.5226 59.6554 71.235 58.1353 73.8494L52.2313 68.545L59.6637 61.4834ZM44.7826 52.6562C44.7826 51.7936 45.5614 51.0938 46.5217 51.0938H50C50.959 51.0938 51.7391 51.7947 51.7391 52.6562C51.7391 53.5191 50.9602 54.2188 50 54.2188H46.5217C45.5628 54.2188 44.7826 53.5178 44.7826 52.6562ZM13.5478 86.875C14.237 79.1345 19.9708 72.0989 27.6873 69.787L35.008 67.5952C36.351 70.9309 38.007 74.1581 39.9581 77.242L39.9678 77.2578L39.968 77.2581C41.4021 79.5219 42.992 81.7032 44.7283 83.7892L46.8678 86.875H13.5478ZM50 85.4822L47.6414 82.0802C47.615 82.0421 47.5868 82.005 47.5569 81.9691C46.1479 80.2794 44.8398 78.5238 43.6383 76.7094L49.8405 70.8166L56.3758 76.6881C55.1706 78.51 53.858 80.2727 52.4435 81.9688C52.3583 82.0708 52.4791 81.91 50 85.4822ZM53.1322 86.875L55.2715 83.7894C57.0214 81.6874 58.6224 79.4887 60.0652 77.2063C60.0739 77.1925 60.0821 77.1784 60.0908 77.1647L60.0939 77.1597C62.0227 74.1008 63.6612 70.9013 64.992 67.5952L72.3125 69.787C80.0292 72.0989 85.763 79.1345 86.4522 86.875H53.1322Z" fill="#243F8B" style="fill:#243F8B;fill:color(display-p3 0.1412 0.2471 0.5451);fill-opacity:1;"/>
<path d="M81.2259 80.5517C80.0636 78.4615 78.3612 76.6047 76.3025 75.1818C75.5412 74.6554 74.4493 74.7834 73.8638 75.4675C73.278 76.1515 73.4205 77.1325 74.1817 77.6587C75.8259 78.7951 77.1855 80.2784 78.114 81.9483C78.5441 82.7215 79.5893 83.0328 80.4471 82.6478C81.3062 82.2622 81.6549 81.3237 81.2259 80.5517Z" fill="#4264AA" style="fill:#4264AA;fill:color(display-p3 0.2588 0.3922 0.6667);fill-opacity:1;"/>
</svg>
