<svg width="100" height="100" viewBox="0 0 100 100" fill="none" xmlns="http://www.w3.org/2000/svg">
<path d="M88.7096 21.6129H86.818C86.5912 20.8921 86.3006 20.193 85.9496 19.5239L87.2903 18.1845C87.5322 17.9425 87.6681 17.6144 87.6681 17.2723C87.6681 16.9301 87.5322 16.602 87.2903 16.36L83.64 12.7097C83.398 12.4678 83.0699 12.3319 82.7277 12.3319C82.3856 12.3319 82.0574 12.4678 81.8155 12.7097L80.4761 14.049C79.8068 13.6988 79.1077 13.4086 78.3871 13.1819V11.2903C78.3871 10.9481 78.2511 10.6199 78.0091 10.3779C77.7672 10.1359 77.439 10 77.0967 10H71.9355C71.5932 10 71.265 10.1359 71.0231 10.3779C70.7811 10.6199 70.6451 10.9481 70.6451 11.2903V13.1819C69.9245 13.4086 69.2254 13.6988 68.5561 14.049L67.2167 12.7097C66.9702 12.4766 66.6438 12.3467 66.3045 12.3467C65.9652 12.3467 65.6388 12.4766 65.3922 12.7097L61.7419 16.36C61.5 16.602 61.3641 16.9301 61.3641 17.2723C61.3641 17.6144 61.5 17.9425 61.7419 18.1845L63.0813 19.5239C62.7308 20.1931 62.4406 20.8922 62.2142 21.6129H60.3225C59.9803 21.6129 59.6521 21.7488 59.4102 21.9908C59.1682 22.2328 59.0322 22.561 59.0322 22.9032V28.0645C59.0322 28.4067 59.1682 28.7349 59.4102 28.9769C59.6521 29.2189 59.9803 29.3548 60.3225 29.3548H62.2142C62.441 30.0756 62.7316 30.7747 63.0825 31.4439L61.7419 32.7832C61.5 33.0252 61.3641 33.3533 61.3641 33.6955C61.3641 34.0376 61.5 34.3658 61.7419 34.6077L65.3922 38.2581C65.6342 38.5 65.9623 38.6359 66.3045 38.6359C66.6466 38.6359 66.9748 38.5 67.2167 38.2581L68.5561 36.9187C69.2253 37.2692 69.9244 37.5594 70.6451 37.7858V39.6774C70.6451 40.0196 70.7811 40.3478 71.0231 40.5898C71.265 40.8318 71.5932 40.9677 71.9355 40.9677H77.0967C77.439 40.9677 77.7672 40.8318 78.0091 40.5898C78.2511 40.3478 78.3871 40.0196 78.3871 39.6774V37.7858C79.1078 37.559 79.8069 37.2684 80.4761 36.9174L81.8155 38.2581C82.062 38.4912 82.3884 38.6211 82.7277 38.6211C83.067 38.6211 83.3934 38.4912 83.64 38.2581L87.2903 34.6077C87.5322 34.3658 87.6681 34.0376 87.6681 33.6955C87.6681 33.3533 87.5322 33.0252 87.2903 32.7832L85.9509 31.4439C86.3014 30.7747 86.5916 30.0755 86.818 29.3548H88.7096C89.0519 29.3548 89.3801 29.2189 89.622 28.9769C89.864 28.7349 90 28.4067 90 28.0645V22.9032C90 22.561 89.864 22.2328 89.622 21.9908C89.3801 21.7488 89.0519 21.6129 88.7096 21.6129ZM87.4193 26.7742H85.8322C85.5398 26.7742 85.2561 26.8735 85.0275 27.0559C84.7989 27.2383 84.6391 27.4929 84.5742 27.7781C84.3158 28.9089 83.8678 29.9879 83.249 30.969C83.0926 31.2165 83.025 31.5099 83.0574 31.8009C83.0898 32.0919 83.2201 32.3632 83.4271 32.5703L84.5522 33.6955L82.7277 35.52L81.6025 34.3948C81.3957 34.188 81.1247 34.0576 80.834 34.025C80.5432 33.9924 80.2501 34.0596 80.0025 34.2155C79.0214 34.8353 77.9419 35.2834 76.8103 35.5406C76.5252 35.6056 76.2705 35.7654 76.0882 35.994C75.9058 36.2225 75.8064 36.5063 75.8064 36.7987V38.3871H73.2258V36.7987C73.2258 36.5063 73.1264 36.2225 72.944 35.994C72.7616 35.7654 72.507 35.6056 72.2219 35.5406C71.0903 35.2834 70.0108 34.8353 69.0296 34.2155C68.7821 34.0596 68.489 33.9924 68.1982 34.025C67.9075 34.0576 67.6365 34.188 67.4296 34.3948L66.3045 35.52L64.48 33.6955L65.6051 32.5703C65.8121 32.3632 65.9424 32.0919 65.9748 31.8009C66.0072 31.5099 65.9396 31.2165 65.7832 30.969C65.1644 29.9879 64.7164 28.9089 64.458 27.7781C64.3931 27.4929 64.2333 27.2383 64.0047 27.0559C63.7761 26.8735 63.4924 26.7742 63.2 26.7742H61.6129V24.1935H63.2C63.4924 24.1935 63.7761 24.0942 64.0047 23.9118C64.2333 23.7294 64.3931 23.4748 64.458 23.1897C64.7164 22.0588 65.1644 20.9799 65.7832 19.9987C65.9396 19.7512 66.0072 19.4578 65.9748 19.1669C65.9424 18.8759 65.8121 18.6045 65.6051 18.3974L64.48 17.2723L66.3045 15.4477L67.4296 16.5729C67.6365 16.7797 67.9075 16.9102 68.1982 16.9427C68.489 16.9753 68.7821 16.9082 69.0296 16.7523C70.0107 16.1323 71.0902 15.6842 72.2219 15.4271C72.5072 15.3621 72.762 15.2021 72.9444 14.9733C73.1268 14.7444 73.2261 14.4604 73.2258 14.1677V12.5806H75.8064V14.1677C75.8061 14.4604 75.9053 14.7444 76.0878 14.9733C76.2702 15.2021 76.525 15.3621 76.8103 15.4271C77.942 15.6842 79.0215 16.1323 80.0025 16.7523C80.2501 16.9082 80.5432 16.9753 80.834 16.9427C81.1247 16.9102 81.3957 16.7797 81.6025 16.5729L82.7277 15.4477L84.5522 17.2723L83.4271 18.3974C83.2201 18.6045 83.0898 18.8759 83.0574 19.1669C83.025 19.4578 83.0926 19.7512 83.249 19.9987C83.87 20.9795 84.3203 22.0584 84.5806 23.1897C84.6453 23.4737 84.8042 23.7275 85.0314 23.9098C85.2587 24.0921 85.5409 24.1921 85.8322 24.1935H87.4193V26.7742Z" fill="#243F8B" style="fill:#243F8B;fill:color(display-p3 0.1412 0.2471 0.5451);fill-opacity:1;"/>
<path d="M74.516 17.7419C72.9848 17.7419 71.4879 18.196 70.2148 19.0467C68.9416 19.8973 67.9493 21.1065 67.3634 22.5211C66.7774 23.9358 66.6241 25.4924 66.9228 26.9942C67.2215 28.496 67.9589 29.8755 69.0416 30.9582C70.1243 32.0409 71.5038 32.7783 73.0056 33.077C74.5074 33.3757 76.064 33.2224 77.4787 32.6365C78.8933 32.0505 80.1025 31.0582 80.9532 29.785C81.8038 28.5119 82.2579 27.015 82.2579 25.4838C82.2559 23.4312 81.4395 21.4632 79.9881 20.0117C78.5366 18.5603 76.5686 17.7439 74.516 17.7419ZM74.516 30.6451C73.4952 30.6451 72.4973 30.3424 71.6485 29.7753C70.7997 29.2082 70.1382 28.4021 69.7476 27.459C69.3569 26.5159 69.2547 25.4781 69.4539 24.4769C69.653 23.4757 70.1446 22.5561 70.8664 21.8343C71.5882 21.1124 72.5079 20.6209 73.5091 20.4217C74.5102 20.2226 75.548 20.3248 76.4911 20.7154C77.4342 21.1061 78.2403 21.7676 78.8074 22.6164C79.3746 23.4651 79.6773 24.463 79.6773 25.4838C79.6773 26.8527 79.1335 28.1655 78.1656 29.1334C77.1976 30.1013 75.8848 30.6451 74.516 30.6451ZM17.7418 15.1613H21.6127V17.7419H17.7418V15.1613ZM15.1611 20.3225H28.0644V22.9032H15.1611V20.3225ZM15.1611 25.4838H28.0644V28.0645H15.1611V25.4838ZM15.1611 30.6451H25.4837V33.2258H15.1611V30.6451ZM17.7418 61.6129H21.6127V64.1935H17.7418V61.6129ZM15.1611 66.7742H28.0644V69.3548H15.1611V66.7742ZM15.1611 71.9354H28.0644V74.5161H15.1611V71.9354ZM15.1611 77.0967H28.0644V79.6774H15.1611V77.0967Z" fill="#243F8B" style="fill:#243F8B;fill:color(display-p3 0.1412 0.2471 0.5451);fill-opacity:1;"/>
<path d="M45.751 56.8297C45.509 56.5877 45.1809 56.4517 44.8387 56.4516H30.6452C30.3029 56.4516 29.9747 56.5876 29.7328 56.8295C29.4908 57.0715 29.3548 57.3997 29.3548 57.7419V59.7884L26.3961 56.8297C26.1542 56.5877 25.8261 56.4517 25.4839 56.4516H20.3226V43.5484H22.9794C23.2285 45.8412 24.1529 48.0084 25.6353 49.7751C27.1177 51.5419 29.0913 52.8288 31.3059 53.4725C33.5205 54.1163 35.8765 54.0879 38.075 53.3911C40.2735 52.6942 42.2155 51.3602 43.655 49.5583C45.0944 47.7563 45.9663 45.5675 46.1603 43.2694C46.3542 40.9713 45.8614 38.6673 44.7443 36.6496C43.6272 34.6319 41.9361 32.9914 39.8855 31.936C37.8348 30.8805 35.517 30.4578 33.2258 30.7213V17.7419C33.2257 17.3997 33.0897 17.0716 32.8477 16.8297L26.3961 10.3781C26.1542 10.1361 25.8261 10.0001 25.4839 10H11.2903C10.9481 10 10.6199 10.1359 10.3779 10.3779C10.1359 10.6199 10 10.9481 10 11.2903V42.2581C10 42.6003 10.1359 42.9285 10.3779 43.1705C10.6199 43.4124 10.9481 43.5484 11.2903 43.5484H17.7419V56.4516H11.2903C10.9481 56.4516 10.6199 56.5876 10.3779 56.8295C10.1359 57.0715 10 57.3997 10 57.7419V88.7097C10 89.0519 10.1359 89.3801 10.3779 89.6221C10.6199 89.8641 10.9481 90 11.2903 90H51.2903C51.6325 90 51.9607 89.8641 52.2027 89.6221C52.4447 89.3801 52.5806 89.0519 52.5806 88.7097V64.1935C52.5806 63.8514 52.4446 63.5232 52.2026 63.2813L45.751 56.8297ZM43.5484 42.2581C43.5484 44.0445 43.0187 45.7908 42.0262 47.2761C41.0337 48.7615 39.6231 49.9192 37.9726 50.6028C36.3222 51.2864 34.5061 51.4653 32.754 51.1168C31.0019 50.7683 29.3925 49.908 28.1294 48.6448C26.8662 47.3816 26.0059 45.7723 25.6574 44.0202C25.3089 42.2681 25.4878 40.452 26.1714 38.8016C26.855 37.1511 28.0127 35.7405 29.4981 34.748C30.9834 33.7555 32.7297 33.2258 34.5161 33.2258C36.9108 33.2285 39.2066 34.181 40.8999 35.8743C42.5932 37.5676 43.5457 39.8634 43.5484 42.2581ZM26.7742 14.4052L28.8206 16.4516H26.7742V14.4052ZM12.5806 12.5806H24.1935V17.7419C24.1935 18.0842 24.3295 18.4123 24.5715 18.6543C24.8135 18.8963 25.1417 19.0323 25.4839 19.0323H30.6452V31.3226C28.5924 32.0512 26.7855 33.3416 25.4303 35.0468C24.075 36.752 23.2258 38.8035 22.9794 40.9677H12.5806V12.5806ZM46.129 60.8568L48.1755 62.9032H46.129V60.8568ZM26.7742 60.8568L28.8206 62.9032H26.7742V60.8568ZM12.5806 87.4193V59.0323H24.1935V64.1935C24.1935 64.5358 24.3295 64.864 24.5715 65.1059C24.8135 65.3479 25.1417 65.4839 25.4839 65.4839H30.6452V87.4193H12.5806ZM33.2258 87.4193V64.1935C33.2257 63.8514 33.0897 63.5232 32.8477 63.2813L31.9355 62.369V59.0323H43.5484V64.1935C43.5484 64.5358 43.6843 64.864 43.9263 65.1059C44.1683 65.3479 44.4965 65.4839 44.8387 65.4839H50V87.4193H33.2258Z" fill="#243F8B" style="fill:#243F8B;fill:color(display-p3 0.1412 0.2471 0.5451);fill-opacity:1;"/>
<path d="M37.0966 61.6129H40.9675V64.1935H37.0966V61.6129ZM34.5159 66.7742H47.4191V69.3548H34.5159V66.7742ZM34.5159 71.9355H47.4191V74.5161H34.5159V71.9355ZM34.5159 77.0968H47.4191V79.6774H34.5159V77.0968ZM34.5159 43.5484H40.9675V40.9677H35.8062V37.0968H33.2256V42.2581C33.2256 42.6003 33.3615 42.9285 33.6035 43.1704C33.8455 43.4124 34.1737 43.5484 34.5159 43.5484ZM48.2462 18.0413C48.0579 17.884 47.8285 17.7836 47.5852 17.7521C47.3418 17.7205 47.0945 17.759 46.8722 17.863C46.6499 17.967 46.4619 18.1323 46.3302 18.3394C46.1986 18.5465 46.1287 18.7868 46.1288 19.0322V21.6129H37.0966C36.7543 21.6129 36.4261 21.7488 36.1842 21.9908C35.9422 22.2328 35.8062 22.561 35.8062 22.9032V28.0645C35.8062 28.4067 35.9422 28.7349 36.1842 28.9769C36.4261 29.2189 36.7543 29.3548 37.0966 29.3548H46.1288V31.9355C46.1287 32.1809 46.1986 32.4212 46.3302 32.6283C46.4619 32.8354 46.6499 33.0007 46.8722 33.1047C47.0945 33.2088 47.3418 33.2472 47.5852 33.2157C47.8285 33.1841 48.0579 33.0838 48.2462 32.9264L55.9882 26.4748C56.1334 26.3537 56.2502 26.2022 56.3304 26.031C56.4105 25.8597 56.4521 25.6729 56.4521 25.4839C56.4521 25.2948 56.4105 25.108 56.3304 24.9368C56.2502 24.7655 56.1334 24.614 55.9882 24.4929L48.2462 18.0413ZM48.7095 29.1806V28.0645C48.7095 27.7223 48.5735 27.3941 48.3315 27.1521C48.0895 26.9101 47.7613 26.7742 47.4191 26.7742H38.3869V24.1935H47.4191C47.7613 24.1935 48.0895 24.0576 48.3315 23.8156C48.5735 23.5736 48.7095 23.2454 48.7095 22.9032V21.7871L53.1456 25.4839L48.7095 29.1806ZM77.0966 42.2581H71.9353C71.593 42.2581 71.2648 42.394 71.0229 42.636C70.7809 42.878 70.6449 43.2062 70.6449 43.5484V50H68.0643C67.819 49.9998 67.5788 50.0696 67.3717 50.2011C67.1646 50.3326 66.9994 50.5204 66.8952 50.7425C66.7911 50.9646 66.7524 51.2118 66.7837 51.455C66.815 51.6983 66.9151 51.9276 67.072 52.1161L73.5236 59.8581C73.6447 60.0037 73.7964 60.1209 73.9679 60.2014C74.1394 60.2818 74.3265 60.3235 74.5159 60.3235C74.7053 60.3235 74.8924 60.2818 75.0639 60.2014C75.2354 60.1209 75.3871 60.0037 75.5082 59.8581L81.9598 52.1161C82.1168 51.9276 82.2168 51.6983 82.2481 51.455C82.2794 51.2118 82.2407 50.9646 82.1366 50.7425C82.0325 50.5204 81.8672 50.3326 81.6601 50.2011C81.4531 50.0696 81.2128 49.9998 80.9675 50H78.3869V43.5484C78.3869 43.2062 78.2509 42.878 78.0089 42.636C77.767 42.394 77.4388 42.2581 77.0966 42.2581ZM74.5159 57.0168L70.8191 52.5806H71.9353C72.2775 52.5806 72.6057 52.4447 72.8477 52.2027C73.0896 51.9607 73.2256 51.6325 73.2256 51.2903V44.8387H75.8062V51.2903C75.8062 51.6325 75.9422 51.9607 76.1842 52.2027C76.4261 52.4447 76.7543 52.5806 77.0966 52.5806H78.2127L74.5159 57.0168ZM74.5159 61.6129C71.7087 61.6129 68.9645 62.4453 66.6304 64.0049C64.2963 65.5645 62.4771 67.7813 61.4028 70.3748C60.3285 72.9683 60.0474 75.8222 60.5951 78.5755C61.1427 81.3287 62.4945 83.8578 64.4796 85.8428C66.4646 87.8278 68.9936 89.1796 71.7469 89.7273C74.5002 90.2749 77.354 89.9938 79.9475 88.9196C82.5411 87.8453 84.7578 86.0261 86.3174 83.6919C87.877 81.3578 88.7095 78.6137 88.7095 75.8064C88.705 72.0434 87.2082 68.4358 84.5474 65.775C81.8865 63.1141 78.2789 61.6173 74.5159 61.6129ZM74.5159 87.4193C72.2191 87.4193 69.9739 86.7383 68.0641 85.4622C66.1544 84.1862 64.6659 82.3725 63.787 80.2505C62.908 78.1285 62.6781 75.7936 63.1261 73.5409C63.5742 71.2882 64.6803 69.219 66.3043 67.5949C67.9284 65.9708 69.9977 64.8648 72.2503 64.4167C74.503 63.9686 76.838 64.1986 78.96 65.0775C81.082 65.9565 82.8956 67.4449 84.1717 69.3547C85.4477 71.2644 86.1288 73.5096 86.1288 75.8064C86.1254 78.8853 84.9008 81.8371 82.7237 84.0142C80.5466 86.1913 77.5948 87.4159 74.5159 87.4193Z" fill="#4264AA" style="fill:#4264AA;fill:color(display-p3 0.2588 0.3922 0.6667);fill-opacity:1;"/>
<path d="M77.4744 68.4426L71.935 73.982L70.2666 72.3136C70.0247 72.0717 69.6965 71.9358 69.3544 71.9358C69.0122 71.9358 68.6841 72.0717 68.4421 72.3136L64.5711 76.1845C64.3292 76.4265 64.1934 76.7547 64.1934 77.0968C64.1934 77.4389 64.3292 77.7671 64.5711 78.0091L71.0228 84.4607C71.2647 84.7026 71.5929 84.8385 71.935 84.8385C72.2772 84.8385 72.6053 84.7026 72.8473 84.4607L83.1699 74.1381C83.4118 73.8961 83.5476 73.568 83.5476 73.2258C83.5476 72.8837 83.4118 72.5555 83.1699 72.3136L79.2989 68.4426C79.0569 68.2007 78.7288 68.0648 78.3866 68.0648C78.0445 68.0648 77.7163 68.2007 77.4744 68.4426ZM71.935 81.7239L67.3079 77.0968L69.3544 75.0504L71.0228 76.7187C71.2647 76.9606 71.5929 77.0965 71.935 77.0965C72.2772 77.0965 72.6053 76.9606 72.8473 76.7187L78.3866 71.1794L80.4331 73.2258L71.935 81.7239Z" fill="#243F8B" style="fill:#243F8B;fill:color(display-p3 0.1412 0.2471 0.5451);fill-opacity:1;"/>
</svg>
