<svg width="100" height="100" viewBox="0 0 100 100" fill="none" xmlns="http://www.w3.org/2000/svg">
<path d="M12.5806 79.0323V88.7097C12.5806 89.0519 12.7166 89.3801 12.9586 89.6221C13.2006 89.8641 13.5288 90 13.871 90H29.3548C29.6971 90 30.0253 89.8641 30.2672 89.6221C30.5092 89.3801 30.6452 89.0519 30.6452 88.7097V79.0323C30.6419 77.5179 30.0471 76.0648 28.9877 74.9828C27.9283 73.9007 26.4881 73.2753 24.9742 73.24C25.7743 72.5534 26.3449 71.6382 26.6093 70.6176C26.8737 69.597 26.8191 68.5198 26.4531 67.5311C26.087 66.5424 25.4269 65.6895 24.5616 65.0872C23.6962 64.4849 22.6672 64.162 21.6129 64.162C20.5586 64.162 19.5296 64.4849 18.6643 65.0872C17.7989 65.6895 17.1388 66.5424 16.7727 67.5311C16.4067 68.5198 16.3521 69.597 16.6165 70.6176C16.8809 71.6382 17.4515 72.5534 18.2516 73.24C16.7377 73.2753 15.2975 73.9007 14.2381 74.9828C13.1787 76.0648 12.5839 77.5179 12.5806 79.0323ZM21.6129 66.7742C22.1233 66.7742 22.6222 66.9255 23.0466 67.2091C23.471 67.4927 23.8018 67.8957 23.9971 68.3673C24.1924 68.8388 24.2435 69.3577 24.144 69.8583C24.0444 70.3589 23.7986 70.8187 23.4377 71.1796C23.0768 71.5405 22.617 71.7863 22.1164 71.8859C21.6158 71.9855 21.0969 71.9344 20.6253 71.739C20.1538 71.5437 19.7507 71.213 19.4672 70.7886C19.1836 70.3642 19.0323 69.8652 19.0323 69.3548C19.0323 68.6704 19.3041 68.014 19.7881 67.53C20.2721 67.0461 20.9285 66.7742 21.6129 66.7742ZM15.1613 79.0323C15.1613 78.1767 15.5012 77.3562 16.1061 76.7513C16.7111 76.1463 17.5316 75.8064 18.3871 75.8064H24.8387C25.6942 75.8064 26.5147 76.1463 27.1197 76.7513C27.7247 77.3562 28.0645 78.1767 28.0645 79.0323V87.4193H15.1613V79.0323ZM11.2903 28.0645H20.3226V30.6452H17.7419V33.2258H25.4839V30.6452H22.9032V28.0645H31.9355C32.2777 28.0645 32.6059 27.9286 32.8479 27.6866C33.0899 27.4446 33.2258 27.1164 33.2258 26.7742V11.2903C33.2258 10.9481 33.0899 10.6199 32.8479 10.3779C32.6059 10.1359 32.2777 10 31.9355 10H11.2903C10.9481 10 10.6199 10.1359 10.3779 10.3779C10.1359 10.6199 10 10.9481 10 11.2903V26.7742C10 27.1164 10.1359 27.4446 10.3779 27.6866C10.6199 27.9286 10.9481 28.0645 11.2903 28.0645ZM12.5806 12.5806H30.6452V25.4839H12.5806V12.5806ZM88.7097 10H68.0645C67.7223 10 67.3941 10.1359 67.1521 10.3779C66.9101 10.6199 66.7742 10.9481 66.7742 11.2903V31.9355C66.7742 32.2777 66.9101 32.6059 67.1521 32.8479C67.3941 33.0899 67.7223 33.2258 68.0645 33.2258H88.7097C89.0519 33.2258 89.3801 33.0899 89.6221 32.8479C89.8641 32.6059 90 32.2777 90 31.9355V11.2903C90 10.9481 89.8641 10.6199 89.6221 10.3779C89.3801 10.1359 89.0519 10 88.7097 10ZM76.4516 12.5806H80.3226V17.7419H76.4516V12.5806ZM87.4193 30.6452H69.3548V12.5806H73.871V19.0323C73.871 19.3745 74.0069 19.7027 74.2489 19.9447C74.4909 20.1866 74.8191 20.3226 75.1613 20.3226H81.6129C81.9551 20.3226 82.2833 20.1866 82.5253 19.9447C82.7673 19.7027 82.9032 19.3745 82.9032 19.0323V12.5806H87.4193V30.6452ZM83.5484 70.6452C83.5484 69.8796 83.3214 69.1311 82.896 68.4946C82.4707 67.858 81.8661 67.3618 81.1588 67.0689C80.4514 66.7759 79.6731 66.6992 78.9222 66.8486C78.1713 66.9979 77.4816 67.3666 76.9402 67.908C76.3989 68.4493 76.0302 69.1391 75.8808 69.89C75.7315 70.6409 75.8081 71.4192 76.1011 72.1265C76.3941 72.8338 76.8902 73.4384 77.5268 73.8638C78.1634 74.2891 78.9118 74.5161 79.6774 74.5161C80.7041 74.5161 81.6887 74.1083 82.4146 73.3823C83.1405 72.6564 83.5484 71.6718 83.5484 70.6452ZM78.3871 70.6452C78.3871 70.39 78.4628 70.1405 78.6046 69.9283C78.7463 69.7161 78.9479 69.5507 79.1836 69.4531C79.4194 69.3554 79.6788 69.3298 79.9291 69.3796C80.1794 69.4294 80.4094 69.5523 80.5898 69.7328C80.7703 69.9132 80.8932 70.1431 80.9429 70.3934C80.9927 70.6437 80.9672 70.9032 80.8695 71.1389C80.7719 71.3747 80.6065 71.5762 80.3943 71.718C80.1821 71.8598 79.9326 71.9355 79.6774 71.9355C79.3352 71.9355 79.007 71.7995 78.765 71.5576C78.523 71.3156 78.3871 70.9874 78.3871 70.6452Z" fill="#243F8B" style="fill:#243F8B;fill:color(display-p3 0.1412 0.2471 0.5451);fill-opacity:1;"/>
<path d="M70.6452 84.8386C70.6452 87.7806 74.5291 89.9999 79.6775 89.9999C84.8258 89.9999 88.7097 87.7806 88.7097 84.8386C88.7097 82.7857 86.7742 81.0515 83.7536 80.2231L86.7213 74.947C87.4129 73.7173 87.7704 72.328 87.7585 70.9172C87.7465 69.5065 87.3654 68.1234 86.6531 66.9056C85.9408 65.6878 84.9221 64.6778 83.6983 63.9758C82.4745 63.2739 81.0883 62.9045 79.6775 62.9045C78.2666 62.9045 76.8804 63.2739 75.6566 63.9758C74.4328 64.6778 73.4141 65.6878 72.7018 66.9056C71.9895 68.1234 71.6084 69.5065 71.5965 70.9172C71.5845 72.328 71.9421 73.7173 72.6336 74.947L75.6013 80.2231C72.5807 81.0515 70.6452 82.7857 70.6452 84.8386ZM74.8813 73.6825C74.4107 72.8453 74.1674 71.8994 74.1757 70.939C74.184 69.9787 74.4435 69.0372 74.9285 68.2082C75.4135 67.3792 76.1071 66.6916 76.9402 66.2138C77.7733 65.736 78.717 65.4846 79.6775 65.4846C80.6379 65.4846 81.5816 65.736 82.4147 66.2138C83.2478 66.6916 83.9414 67.3792 84.4264 68.2082C84.9114 69.0372 85.1709 69.9787 85.1792 70.939C85.1875 71.8994 84.9442 72.8453 84.4736 73.6825L79.6775 82.2064L74.8813 73.6825ZM76.911 82.5522L78.5536 85.4709C78.6659 85.6701 78.8292 85.8358 79.0267 85.9512C79.2242 86.0665 79.4488 86.1273 79.6775 86.1273C79.9062 86.1273 80.1307 86.0665 80.3282 85.9512C80.5257 85.8358 80.689 85.6701 80.8013 85.4709L82.4439 82.5522C84.7368 83.0322 86.1291 84.0541 86.1291 84.8386C86.1291 85.8902 83.6155 87.4193 79.6775 87.4193C75.7394 87.4193 73.2258 85.8902 73.2258 84.8386C73.2258 84.0541 74.6181 83.0322 76.911 82.5522ZM22.9033 59.0322V43.7702L25.0723 46.867L27.1858 45.3883L22.6697 38.9367C22.5448 38.7754 22.3846 38.6449 22.2014 38.5551C22.0182 38.4653 21.8169 38.4186 21.6129 38.4186C21.4089 38.4186 21.2076 38.4653 21.0245 38.5551C20.8413 38.6449 20.6811 38.7754 20.5562 38.9367L16.04 45.3883L18.1536 46.867L20.3226 43.7702V59.0322H22.9033ZM78.3871 38.387V52.3586L76.2181 49.2619L74.1046 50.7406L78.6207 57.1922C78.7397 57.362 78.8978 57.5007 79.0818 57.5964C79.2658 57.6921 79.4701 57.7421 79.6775 57.7421C79.8848 57.7421 80.0892 57.6921 80.2731 57.5964C80.4571 57.5007 80.6152 57.362 80.7342 57.1922L85.2504 50.7406L83.1368 49.2619L80.9678 52.3586V38.387H78.3871ZM37.742 22.9031H56.8736L53.7768 25.0722L55.2555 27.1857L61.7071 22.6696C61.877 22.5506 62.0156 22.3924 62.1114 22.2085C62.2071 22.0245 62.2571 21.8202 62.2571 21.6128C62.2571 21.4054 62.2071 21.2011 62.1114 21.0172C62.0156 20.8332 61.877 20.675 61.7071 20.556L55.2555 16.0399L53.7768 18.1535L56.8736 20.3225H37.742V22.9031ZM62.2581 75.8064H43.1265L46.2233 73.6373L44.7446 71.5238L38.2929 76.0399C38.1231 76.1589 37.9844 76.3171 37.8887 76.501C37.793 76.685 37.743 76.8893 37.743 77.0967C37.743 77.3041 37.793 77.5084 37.8887 77.6923C37.9844 77.8763 38.1231 78.0345 38.2929 78.1535L44.7446 82.6696L46.2233 80.556L43.1265 78.387H62.2581V75.8064ZM39.7497 52.3302C39.6751 52.6065 39.6575 52.895 39.6979 53.1782C39.7383 53.4615 39.8358 53.7336 39.9846 53.978L41.44 56.3883C41.738 56.8767 42.2139 57.2304 42.7675 57.3749C43.3211 57.5193 43.9092 57.4431 44.4078 57.1625L44.7433 56.978C45.2461 57.3298 45.7835 57.6294 46.3471 57.8722V58.1599C46.3519 58.738 46.5861 59.2906 46.9981 59.6961C47.4102 60.1017 47.9664 60.327 48.5446 60.3225H51.4555C52.0321 60.3259 52.5866 60.1009 52.9976 59.6966C53.4087 59.2923 53.6429 58.7416 53.6491 58.1651V57.8709C54.213 57.6287 54.7504 57.329 55.2529 56.9767L55.5897 57.1625C56.0893 57.4421 56.6779 57.5169 57.2315 57.371C57.7852 57.2252 58.2605 56.8701 58.5575 56.3806L60.0104 53.9728C60.1596 53.7284 60.2575 53.4561 60.2981 53.1726C60.3387 52.8891 60.3211 52.6003 60.2465 52.3238C60.1698 52.0429 60.0375 51.7802 59.8575 51.5513C59.6776 51.3223 59.4536 51.1318 59.1987 50.9909L58.92 50.8373C58.9785 50.2763 58.9785 49.7107 58.92 49.1496L59.1987 48.996C59.4536 48.8551 59.6776 48.6646 59.8575 48.4357C60.0375 48.2067 60.1698 47.944 60.2465 47.6631C60.3211 47.3869 60.3387 47.0984 60.2983 46.8151C60.2579 46.5319 60.1604 46.2598 60.0117 46.0154L58.5562 43.6051C58.258 43.1169 57.7821 42.7634 57.2286 42.619C56.675 42.4746 56.0871 42.5506 55.5884 42.8309L55.2529 43.0154C54.7501 42.6636 54.2127 42.364 53.6491 42.1212V41.8335C53.6426 41.2571 53.4082 40.7068 52.9972 40.3028C52.5861 39.8988 52.0319 39.6739 51.4555 39.6773H48.5446C47.968 39.6739 47.4135 39.8989 47.0024 40.3032C46.5914 40.7076 46.3571 41.2582 46.351 41.8348V42.1289C45.7871 42.3712 45.2496 42.6708 44.7471 43.0231L44.4104 42.8373C43.9107 42.558 43.3222 42.4834 42.7687 42.6293C42.2151 42.7751 41.7398 43.13 41.4426 43.6193L39.9897 46.027C39.8405 46.2715 39.7426 46.5437 39.702 46.8272C39.6614 47.1107 39.679 47.3995 39.7536 47.676C39.8303 47.9569 39.9626 48.2196 40.1425 48.4486C40.3225 48.6775 40.5465 48.868 40.8013 49.0089L41.08 49.1625C41.0215 49.7236 41.0215 50.2892 41.08 50.8502L40.8013 51.0038C40.5464 51.1436 40.3221 51.3329 40.1415 51.5607C39.9609 51.7885 39.8277 52.0502 39.7497 52.3302ZM43.6129 49.9999C43.6126 49.7296 43.632 49.4596 43.671 49.1922C43.7276 48.7634 43.6526 48.3276 43.4561 47.9423C43.2596 47.5571 42.9507 47.2406 42.5704 47.0348L42.4349 46.9586L43.4671 45.2567L43.6968 45.3857C44.075 45.5899 44.5036 45.682 44.9323 45.6514C45.361 45.6208 45.7721 45.4686 46.1175 45.2128C46.5553 44.8917 47.0323 44.6276 47.5368 44.427C47.9449 44.2713 48.2967 43.9964 48.5466 43.6381C48.7965 43.2799 48.9329 42.8548 48.9381 42.418V42.258H51.0826V42.4167C51.0878 42.8535 51.2242 43.2786 51.4741 43.6369C51.724 43.9951 52.0758 44.27 52.4839 44.4257C52.9885 44.6273 53.4655 44.8923 53.9033 45.2141C54.2487 45.4683 54.6592 45.6193 55.087 45.6494C55.5148 45.6796 55.9424 45.5877 56.32 45.3844L56.5497 45.2554L57.582 46.9573L57.4529 47.0322C57.0725 47.2381 56.7634 47.5545 56.5664 47.9396C56.3695 48.3248 56.2939 48.7606 56.3497 49.1896C56.3825 49.4584 56.395 49.7293 56.3871 49.9999C56.3875 50.2702 56.3681 50.5402 56.3291 50.8077C56.2725 51.2364 56.3474 51.6722 56.544 52.0575C56.7405 52.4427 57.0494 52.7592 57.4297 52.9651L57.5588 53.0412L56.5265 54.7431L56.2968 54.6141C55.9183 54.411 55.4899 54.3195 55.0615 54.3501C54.633 54.3807 54.222 54.5322 53.8762 54.787C53.4383 55.1081 52.9614 55.3722 52.4568 55.5728C52.0487 55.7286 51.6969 56.0034 51.447 56.3617C51.1971 56.72 51.0607 57.1451 51.0555 57.5819V57.7419H48.9278V57.5831C48.9226 57.1464 48.7862 56.7212 48.5363 56.363C48.2864 56.0047 47.9346 55.7299 47.5265 55.5741C47.0219 55.3725 46.5449 55.1076 46.1071 54.7857C45.7617 54.5315 45.3512 54.3806 44.9234 54.3504C44.4956 54.3203 44.068 54.4122 43.6904 54.6154L43.4607 54.7444L42.4284 53.0425L42.5575 52.9677C42.9379 52.7618 43.247 52.4454 43.444 52.0602C43.6409 51.675 43.7165 51.2392 43.6607 50.8102C43.6245 50.5417 43.6085 50.2708 43.6129 49.9999Z" fill="#4264AA" style="fill:#4264AA;fill:color(display-p3 0.2588 0.3922 0.6667);fill-opacity:1;"/>
<path d="M50.0005 54.5161C50.8937 54.5161 51.7669 54.2513 52.5095 53.755C53.2522 53.2588 53.831 52.5535 54.1729 51.7283C54.5147 50.9031 54.6041 49.995 54.4299 49.119C54.2556 48.2429 53.8255 47.4382 53.1939 46.8066C52.5623 46.175 51.7576 45.7449 50.8816 45.5707C50.0055 45.3964 49.0975 45.4858 48.2723 45.8277C47.447 46.1695 46.7417 46.7483 46.2455 47.491C45.7492 48.2337 45.4844 49.1068 45.4844 50C45.4844 51.1978 45.9602 52.3465 46.8071 53.1934C47.6541 54.0403 48.8028 54.5161 50.0005 54.5161ZM50.0005 48.0645C50.3833 48.0645 50.7575 48.178 51.0758 48.3907C51.3941 48.6034 51.6422 48.9057 51.7887 49.2593C51.9351 49.613 51.9735 50.0022 51.8988 50.3776C51.8241 50.7531 51.6398 51.0979 51.3691 51.3686C51.0984 51.6393 50.7535 51.8236 50.3781 51.8983C50.0027 51.973 49.6135 51.9347 49.2598 51.7882C48.9062 51.6417 48.6039 51.3936 48.3912 51.0753C48.1785 50.757 48.065 50.3828 48.065 50C48.065 49.4867 48.2689 48.9944 48.6319 48.6314C48.9949 48.2685 49.4872 48.0645 50.0005 48.0645Z" fill="#243F8B" style="fill:#243F8B;fill:color(display-p3 0.1412 0.2471 0.5451);fill-opacity:1;"/>
</svg>
