<svg width="100" height="100" viewBox="0 0 100 100" fill="none" xmlns="http://www.w3.org/2000/svg">
<path d="M25.2578 79.2198C25.2323 79.1961 25.2059 79.1735 25.1786 79.152C24.3631 78.4502 23.5475 77.6977 22.7972 76.9198C22.5681 76.6849 22.2589 76.5531 21.9367 76.5531C21.6145 76.5531 21.3053 76.6849 21.0763 76.9198C20.8472 77.1576 20.7185 77.48 20.7185 77.8161C20.7185 78.1521 20.8472 78.4745 21.0763 78.7123C21.8919 79.5578 22.7075 80.3441 23.6209 81.1051C23.8623 81.3284 24.1792 81.4435 24.5023 81.4252C24.8253 81.4069 25.1282 81.2566 25.3447 81.0073C25.5611 80.758 25.6735 80.4299 25.6572 80.0949C25.6409 79.7599 25.4973 79.4453 25.2578 79.2198ZM12.4545 41.6192C12.2789 41.5556 12.0917 41.5343 11.907 41.557C11.7223 41.5797 11.5451 41.6458 11.3887 41.7502C11.2324 41.8546 11.101 41.9945 11.0047 42.1594C10.9083 42.3243 10.8495 42.5098 10.8327 42.7018C10.588 43.8602 10.4005 45.0355 10.2618 46.2107C10.2199 46.5411 10.305 46.8753 10.4988 47.1411C10.6926 47.4069 10.9796 47.5829 11.2976 47.6312H11.4525C11.7517 47.6314 12.0406 47.518 12.2645 47.3123C12.4884 47.1066 12.6319 46.823 12.6677 46.5151C12.7982 45.4159 12.9777 44.3083 13.206 43.2345C13.259 43.0773 13.2816 42.9108 13.2725 42.7445C13.2634 42.5782 13.2228 42.4155 13.153 42.2654C13.0832 42.1154 12.9856 41.9812 12.8657 41.8703C12.7459 41.7594 12.6061 41.674 12.4545 41.6192ZM19.176 72.4978C18.548 71.6015 17.9527 70.6715 17.4062 69.7245C17.3241 69.5813 17.2156 69.4563 17.0869 69.3567C16.9582 69.257 16.8118 69.1846 16.6561 69.1435C16.5004 69.1025 16.3384 69.0937 16.1794 69.1176C16.0204 69.1415 15.8675 69.1976 15.7294 69.2827L15.7261 69.2848C15.5881 69.3699 15.4675 69.4824 15.3714 69.6159C15.2752 69.7493 15.2054 69.9011 15.1658 70.0625C15.1262 70.2239 15.1177 70.3918 15.1407 70.5567C15.1638 70.7215 15.2179 70.88 15.3 71.0232L15.302 71.0266C15.8893 72.0412 16.5254 73.0389 17.2023 73.9943C17.3983 74.2529 17.6834 74.4224 17.9976 74.4672C18.3118 74.512 18.6305 74.4285 18.8865 74.2344C19.1425 74.0403 19.3157 73.7507 19.3698 73.4268C19.4238 73.1028 19.3543 72.7697 19.176 72.4978ZM14.9106 64.4992C14.5191 63.4761 14.1602 62.4192 13.8585 61.3539C13.8129 61.191 13.7362 61.0392 13.6331 60.9075C13.5299 60.7759 13.4023 60.667 13.2578 60.5874C13.1133 60.5077 12.9549 60.459 12.7919 60.444C12.6289 60.4289 12.4647 60.448 12.3089 60.4999C12.0004 60.5976 11.7417 60.8177 11.5889 61.1122C11.4362 61.4068 11.4018 61.7519 11.4933 62.0726C11.8196 63.2056 12.1947 64.3386 12.6188 65.4546C12.741 65.7697 12.979 66.0215 13.2803 66.1547C13.5816 66.2879 13.9216 66.2916 14.2255 66.1649C14.5294 66.0382 14.7723 65.7915 14.9008 65.4791C15.0293 65.1668 15.0328 64.8143 14.9106 64.4992ZM15.6405 32.9235C15.3507 32.7721 15.0147 32.7463 14.7065 32.8518C14.3983 32.9572 14.1432 33.1853 13.9971 33.4857C13.4833 34.5426 13.0103 35.6333 12.5943 36.741C12.4765 37.0528 12.4824 37.4002 12.6108 37.7075C12.7391 38.0148 12.9795 38.257 13.2794 38.3813C13.4288 38.4426 13.5884 38.4728 13.749 38.4702C13.9096 38.4676 14.0682 38.4323 14.2157 38.3661C14.3631 38.3 14.4966 38.2044 14.6084 38.0848C14.7202 37.9652 14.8082 37.824 14.8673 37.6691L14.8698 37.6626C15.2613 36.631 15.6854 35.608 16.1829 34.6272C16.3289 34.3267 16.3537 33.9784 16.252 33.6589C16.1503 33.3394 15.9303 33.0748 15.6405 32.9235ZM12.7089 55.6756L12.7085 55.6722C12.578 54.5731 12.4883 53.457 12.4475 52.3578C12.4417 52.1913 12.4042 52.0276 12.3373 51.876C12.2703 51.7245 12.1753 51.5881 12.0575 51.4746C11.9397 51.3612 11.8016 51.2729 11.6509 51.2148C11.5002 51.1567 11.34 51.1299 11.1793 51.1361C11.0187 51.1422 10.8608 51.181 10.7146 51.2504C10.5684 51.3198 10.4369 51.4183 10.3274 51.5404C10.218 51.6625 10.1328 51.8057 10.0768 51.9619C10.0207 52.1182 9.99493 52.2843 10.0008 52.4508C10.0008 53.6345 10.1313 54.8267 10.2781 56.002C10.3186 56.2996 10.4597 56.5726 10.6763 56.7723C10.8929 56.9721 11.1709 57.0856 11.4607 57.0927H11.6483C11.8077 57.0719 11.9616 57.0187 12.1011 56.9362C12.2407 56.8537 12.3632 56.7435 12.4617 56.6119C12.5602 56.4803 12.6327 56.3299 12.6751 56.1693C12.7176 56.0086 12.729 55.8409 12.7089 55.6756ZM45.1643 13.3667C45.1329 13.0303 44.9739 12.7207 44.7223 12.5058C44.4707 12.291 44.1471 12.1885 43.8226 12.221C42.689 12.3394 41.5472 12.5085 40.4217 12.7368C40.0972 12.7682 39.7981 12.9319 39.5901 13.192C39.3821 13.452 39.2822 13.7871 39.3125 14.1234C39.3428 14.4598 39.5007 14.7699 39.7516 14.9856C40.0024 15.2012 40.3256 15.3047 40.6501 15.2733L40.6419 15.2395H40.8784C41.9305 15.0281 42.9989 14.8675 44.0592 14.7576C44.3836 14.7251 44.6823 14.5603 44.8896 14.2994C45.0968 14.0386 45.1956 13.7031 45.1643 13.3667ZM20.954 25.2504C20.7095 25.0262 20.3892 24.9118 20.0634 24.9324C19.7376 24.953 19.4331 25.1069 19.2168 25.3603C18.4665 26.2481 17.7488 27.1866 17.08 28.1505C16.9479 28.3396 16.8687 28.5627 16.8511 28.7954C16.8335 29.0281 16.8782 29.2613 16.9802 29.4694C17.0822 29.6774 17.2377 29.8523 17.4294 29.9746C17.6211 30.097 17.8417 30.1621 18.0668 30.1629V30.1798C18.2609 30.1805 18.4524 30.1333 18.6254 30.0422C18.7984 29.951 18.948 29.8185 19.0618 29.6555C19.6898 28.7593 20.3586 27.88 21.06 27.0514C21.2763 26.798 21.3866 26.4659 21.3667 26.1281C21.3469 25.7904 21.1984 25.4747 20.954 25.2504ZM53.2262 12.4324C52.1007 12.2549 50.9508 12.128 49.809 12.0604C49.4845 12.0402 49.1656 12.1545 48.9224 12.378C48.6792 12.6016 48.5317 12.9162 48.5122 13.2526C48.4927 13.5889 48.6029 13.9195 48.8186 14.1717C49.0343 14.4238 49.3377 14.5768 49.6622 14.5969C50.7387 14.6815 51.8071 14.7999 52.8592 14.969H53.0468C53.3712 14.9936 53.6919 14.8837 53.9381 14.6633C54.1844 14.4429 54.3361 14.1301 54.3599 13.7937C54.3836 13.4573 54.2776 13.1249 54.065 12.8696C53.8524 12.6144 53.5507 12.4571 53.2262 12.4324ZM27.9016 19.2073C27.7173 18.9477 27.4444 18.7705 27.1386 18.712C26.8327 18.6535 26.5169 18.7179 26.2552 18.8921C25.3173 19.5601 24.3957 20.2872 23.5149 21.0398C23.3912 21.1463 23.2889 21.2771 23.214 21.4247C23.139 21.5723 23.0928 21.7337 23.0781 21.8997C23.0633 22.0658 23.0802 22.2332 23.1279 22.3925C23.1755 22.5518 23.253 22.6998 23.3558 22.828C23.4586 22.9563 23.5848 23.0623 23.7272 23.14C23.8695 23.2177 24.0252 23.2655 24.1854 23.2809C24.3455 23.2962 24.5071 23.2786 24.6607 23.2292C24.8143 23.1798 24.9571 23.0995 25.0808 22.9929C25.8963 22.2827 26.7609 21.6062 27.6417 20.9806C27.7711 20.8818 27.8804 20.7576 27.9635 20.6151C28.0466 20.4725 28.1018 20.3144 28.1259 20.1498C28.15 19.9851 28.1427 19.8171 28.1042 19.6554C28.0657 19.4937 27.9969 19.3414 27.9016 19.2073ZM32.005 18.1819C32.0009 18.1819 31.997 18.1811 31.993 18.1811C31.9887 18.1811 31.9846 18.1819 31.9805 18.1819H32.005Z" fill="#4264AA" style="fill:#4264AA;fill:color(display-p3 0.2588 0.3922 0.6667);fill-opacity:1;"/>
<path d="M36.3186 15.2112C36.2721 15.0356 36.1896 14.8725 36.0769 14.7328C35.9641 14.5932 35.8236 14.4804 35.665 14.4021C35.5064 14.3238 35.3334 14.2818 35.1578 14.279C34.9821 14.2762 34.8079 14.3126 34.6471 14.3858C33.5787 14.7917 32.5103 15.2313 31.4827 15.764C31.2309 15.8857 31.0265 16.0927 30.9033 16.3508C30.7801 16.6089 30.7453 16.9028 30.8046 17.1842C30.864 17.4656 31.0139 17.7176 31.2299 17.8988C31.4458 18.0801 31.7148 18.1797 31.9926 18.1813C32.1692 18.178 32.3431 18.135 32.5021 18.0553C33.4645 17.5819 34.4595 17.1506 35.4627 16.7702C35.6176 16.7261 35.7627 16.6508 35.8895 16.5486C36.0164 16.4464 36.1226 16.3193 36.2021 16.1745C36.2816 16.0298 36.3328 15.8702 36.3528 15.7049C36.3728 15.5396 36.3612 15.3719 36.3186 15.2112ZM51.1096 88.5753C51.0995 88.4087 51.0578 88.2459 50.9869 88.096C50.916 87.9462 50.8173 87.8123 50.6965 87.702C50.5758 87.5917 50.4352 87.5071 50.2829 87.4531C50.1305 87.3991 49.9695 87.3768 49.8088 87.3873C48.7404 87.4719 47.6638 87.4972 46.5954 87.4634C46.4348 87.459 46.2749 87.4874 46.1248 87.547C45.9747 87.6067 45.8375 87.6964 45.7208 87.811C45.6042 87.9256 45.5105 88.0629 45.4451 88.2151C45.3796 88.3673 45.3437 88.5313 45.3395 88.6979C45.3352 88.8644 45.3626 89.0302 45.4201 89.1858C45.4776 89.3414 45.5641 89.4837 45.6747 89.6046C45.7853 89.7255 45.9177 89.8226 46.0645 89.8905C46.2113 89.9583 46.3695 89.9955 46.5302 90H47.566C48.3816 90 49.1971 90 49.9638 89.9239C50.1244 89.9134 50.2815 89.8701 50.4261 89.7967C50.5706 89.7232 50.6998 89.6209 50.8062 89.4957C50.9126 89.3704 50.9942 89.2247 51.0462 89.0668C51.0983 88.9089 51.1198 88.7418 51.1096 88.5753ZM83.1291 59.1936C82.8143 59.1107 82.4807 59.1608 82.2016 59.3328C81.9225 59.5049 81.7207 59.7848 81.6406 60.111C81.3775 61.1858 81.0645 62.2467 80.7027 63.2902C80.6005 63.6042 80.6209 63.9474 80.7596 64.246C80.8983 64.5447 81.1443 64.7752 81.4449 64.8882C81.5961 64.9444 81.7566 64.9693 81.917 64.9612C82.0775 64.9532 82.2349 64.9125 82.3802 64.8414C82.5255 64.7703 82.6559 64.6702 82.7639 64.5469C82.8718 64.4235 82.9553 64.2794 83.0096 64.1226L83.0108 64.1188C83.3941 63.0027 83.7285 61.8612 84.014 60.7367C84.0536 60.5752 84.0621 60.4071 84.0391 60.2421C84.0161 60.0771 83.962 59.9185 83.8798 59.7752C83.7976 59.6319 83.689 59.5068 83.5602 59.407C83.4314 59.3072 83.2849 59.2347 83.1291 59.1936ZM84.6909 44.6719C84.5033 43.5051 84.2668 42.3299 83.9813 41.1884C83.8898 40.8742 83.6843 40.6091 83.408 40.4487C83.1318 40.2883 82.8064 40.2452 82.5001 40.3284C82.1939 40.4116 81.9307 40.6147 81.7658 40.8949C81.601 41.1751 81.5473 41.5106 81.6162 41.831C81.8853 42.8964 82.1055 43.9955 82.2849 45.0862C82.3361 45.376 82.4829 45.6382 82.7001 45.828C82.9174 46.0177 83.1916 46.1232 83.4757 46.1262H83.6796C83.9997 46.0723 84.286 45.8888 84.4756 45.6161C84.6653 45.3434 84.7427 45.0038 84.6909 44.6719Z" fill="#4264AA" style="fill:#4264AA;fill:color(display-p3 0.2588 0.3922 0.6667);fill-opacity:1;"/>
<path d="M89.8906 30.1149C89.8332 29.9854 89.7545 29.8672 89.658 29.7657L87.4967 27.4321C87.3448 27.2748 87.1545 27.1634 86.9462 27.1098C86.7378 27.0561 86.5193 27.0623 86.3141 27.1277L82.4157 28.3537L77.8485 23.3313L88.1002 17.4127C88.2738 17.3299 88.4256 17.205 88.5428 17.0486C88.66 16.8921 88.7392 16.7087 88.7736 16.5138C88.8079 16.319 88.7966 16.1184 88.7404 15.929C88.6843 15.7397 88.585 15.5672 88.4509 15.426L85.572 12.4413C85.4179 12.2878 85.2268 12.1801 85.0187 12.1295C84.8106 12.0789 84.5932 12.0873 84.3894 12.1538L71.3973 16.2292L67.0258 11.4182C66.4826 10.767 65.7554 10.3096 64.9474 10.1108C64.1393 9.91202 63.2914 9.98192 62.5239 10.3106H62.4505C61.8628 10.5614 61.3289 10.9303 60.8796 11.3962C60.4302 11.862 60.0744 12.4155 59.8325 13.0247C59.7094 13.346 59.6218 13.6807 59.5715 14.0224L59.074 13.8449C58.7658 13.7458 58.4323 13.7768 58.146 13.9312C57.8597 14.0855 57.6437 14.3507 57.5449 14.6691C57.4461 14.9876 57.4724 15.3336 57.6182 15.632C57.7641 15.9305 58.0175 16.1572 58.3237 16.263C58.9516 16.4744 59.5796 16.7112 60.2076 16.9564C60.3967 17.2629 60.6183 17.5465 60.8682 17.8019L65.4762 22.3338L64.155 26.8573C51.2327 17.3011 33.2845 20.4145 24.0667 33.8113C14.8489 47.208 17.8521 65.8148 30.7744 75.3711C43.6968 84.9273 61.6449 81.8139 70.8627 68.4171C78.2135 57.7338 77.957 43.3227 70.231 32.9279L72.3189 29.0216L77.1634 33.7565L75.9971 37.7558C75.9283 37.9713 75.9185 38.2025 75.9689 38.4234C76.0193 38.6444 76.1279 38.8464 76.2826 39.0072C76.2826 39.0072 78.6722 41.4592 78.7293 41.5437C78.8659 41.6258 79.0169 41.6786 79.1736 41.6992C79.3302 41.7198 79.4892 41.7076 79.6412 41.6635C79.7932 41.6194 79.9351 41.5442 80.0587 41.4423C80.1822 41.3404 80.2848 41.2139 80.3605 41.0702L83.5493 35.0079L89.3073 31.7527C89.4493 31.6848 89.5771 31.5887 89.6833 31.4697C89.7895 31.3506 89.872 31.2111 89.9262 31.059C89.9803 30.907 90.0051 30.7453 89.999 30.5833C89.9929 30.4213 89.9561 30.2621 89.8906 30.1149ZM28.9956 31.7863C31.4302 29.2635 34.3206 27.263 37.5015 25.8992C40.6824 24.5355 44.0914 23.8352 47.5336 23.8384C48.0774 23.8384 48.621 23.8553 49.1648 23.8892C53.7891 28.3112 52.4271 32.3443 49.3279 35.98C47.499 37.9909 45.5368 39.8669 43.4558 41.5942C40.4463 44.2492 37.6407 46.7265 36.5805 49.2039C35.3245 52.1463 36.2461 54.8096 41.319 57.1348C43.8554 58.3016 45.2337 59.2063 45.772 59.8912C45.7799 59.9011 45.7877 59.9081 45.7956 59.9142C45.7767 59.9202 45.758 59.9266 45.7394 59.9334C44.5112 60.4183 43.2037 60.6509 41.8899 60.6183C35.7404 60.8889 31.3608 56.8135 27.9599 53.6597C25.5131 51.4022 23.4824 49.5252 21.37 49.5083C21.7192 42.8287 24.4347 36.518 28.9956 31.7863ZM73.844 51.0471H73.8522C73.8485 62.8315 66.5412 73.279 55.7383 76.9452C55.4349 74.9635 55.7885 72.9337 56.7414 71.1872C58.0338 69.0357 59.6917 67.145 61.6349 65.6068C69.1626 59.0964 69.5867 55.4607 69.913 52.662C70.1168 50.8949 70.2718 49.5759 73.6401 47.6566C73.7753 48.7813 73.8434 49.9137 73.844 51.0471ZM72.327 41.8986C72.6915 42.9632 72.9912 44.0504 73.2242 45.1539C68.0942 47.8595 67.8659 49.7873 67.5559 52.4168C67.2787 54.7843 66.9198 57.8788 60.1179 63.7636C57.9394 65.4916 56.087 67.6213 54.6536 70.0458C53.4039 72.3359 52.9709 75.0086 53.4302 77.5962C39.2823 80.9491 25.1914 71.777 21.9572 57.1099C21.5874 55.4323 21.3716 53.7222 21.3129 52.0025C22.6097 52.0025 24.2898 53.6005 26.3532 55.503C30.0885 58.9611 34.8678 63.3747 41.9877 63.1126C43.6654 63.1426 45.331 62.8145 46.8812 62.1487C47.2041 62.0007 47.4923 61.782 47.726 61.5076C47.9597 61.2332 48.1333 60.9097 48.235 60.5591C48.3206 60.1696 48.3117 59.7642 48.2093 59.3791C48.1068 58.994 47.9139 58.6413 47.6478 58.3523C46.8812 57.38 45.2011 56.2301 42.3139 54.8942C38.8641 53.3131 38.1137 51.7742 38.7907 50.2016C39.6062 48.2231 42.2324 45.974 45.0217 43.4375C47.1951 41.6165 49.2419 39.6387 51.1466 37.5189C54.5557 33.4942 56.3092 29.106 52.843 24.3035C56.6951 25.1199 60.3195 26.8281 63.4455 29.3005L61.5696 35.7179C61.5017 35.9335 61.4924 36.1644 61.5428 36.3852C61.5931 36.6059 61.7012 36.808 61.8551 36.9693C61.8551 36.9693 64.8972 40.0977 64.995 40.1569C65.1316 40.2389 65.2827 40.2918 65.4393 40.3124C65.5959 40.3329 65.7549 40.3208 65.9069 40.2767C66.0589 40.2325 66.2009 40.1573 66.3244 40.0554C66.448 39.9535 66.5506 39.827 66.6262 39.6834L68.9995 35.236C70.4004 37.2867 71.5202 39.529 72.327 41.8986ZM83.2639 32.4542L82.2118 32.9954C81.9763 33.1164 81.7867 33.3159 81.6735 33.5618L81.1516 34.661L79.1208 38.4658L78.5254 37.7894L79.708 33.7394C79.7754 33.5074 79.7749 33.2599 79.7067 33.0281C79.6385 32.7964 79.5055 32.5908 79.3247 32.4373L72.8898 26.1551C72.7762 26.0394 72.6412 25.9487 72.493 25.8884C72.3447 25.8281 72.1863 25.7995 72.0271 25.8042C71.8679 25.809 71.7113 25.847 71.5666 25.916C71.422 25.985 71.2923 26.0836 71.1853 26.2059C71.1037 26.2989 65.3131 37.113 65.3131 37.113L64.049 35.8025L67.9964 22.3165C68.0655 22.0833 68.066 21.834 67.9977 21.6006C67.9294 21.3671 67.7955 21.1601 67.613 21.006L62.4912 16.009C62.2151 15.7664 62.021 15.4386 61.9373 15.0735C61.8537 14.7084 61.8849 14.3251 62.0264 13.9797C62.2866 13.3654 62.7616 12.8761 63.3557 12.61H63.3965C63.726 12.4781 64.0869 12.4561 64.4291 12.547C64.7712 12.638 65.0774 12.8373 65.305 13.1173L70.1984 18.4779C70.349 18.6455 70.5419 18.7661 70.7553 18.8259C70.9686 18.8857 71.1939 18.8823 71.4055 18.8161L84.4546 14.7322L85.7188 16.0428L75.361 21.9445C75.2224 22.0228 75.1003 22.1292 75.002 22.2573C74.9037 22.3853 74.8311 22.5325 74.7885 22.6901C74.746 22.8477 74.7343 23.0126 74.7542 23.1749C74.774 23.3373 74.8251 23.4939 74.9043 23.6355C74.9532 23.7285 81.1923 30.611 81.1923 30.611C81.3438 30.7772 81.5372 30.8962 81.7505 30.9544C81.9638 31.0127 82.1885 31.008 82.3994 30.9408L86.3223 29.7148L86.934 30.3489L83.2639 32.4542ZM80.1129 68.107C79.973 68.0216 79.818 67.9659 79.6571 67.9432C79.4962 67.9204 79.3325 67.9312 79.1757 67.9747C79.0188 68.0182 78.8718 68.0937 78.7434 68.1968C78.6149 68.2998 78.5076 68.4283 78.4275 68.5748C77.9137 69.5472 77.351 70.5026 76.7475 71.4157C76.5634 71.6917 76.492 72.0318 76.5488 72.3621C76.6056 72.6924 76.786 72.986 77.0507 73.179C77.3153 73.372 77.6429 73.4487 77.9619 73.3924C78.2809 73.3361 78.5656 73.1514 78.7538 72.8785C79.3899 71.8977 79.9934 70.8746 80.548 69.8431C80.6294 69.6995 80.6827 69.5407 80.7049 69.3757C80.7271 69.2107 80.7177 69.0428 80.6773 68.8816C80.6369 68.7204 80.5663 68.569 80.4694 68.4361C80.3726 68.3032 80.2515 68.1914 80.1129 68.107ZM83.9816 49.5928C83.8168 49.5905 83.6533 49.6227 83.5008 49.6876C83.3483 49.7524 83.21 49.8485 83.0942 49.9701C82.9785 50.0917 82.8876 50.2363 82.827 50.3952C82.7665 50.5541 82.7375 50.7241 82.7419 50.8949V51.0386C82.7419 52.1463 82.693 53.2623 82.5951 54.37C82.5657 54.7049 82.6659 55.0383 82.8735 55.2967C83.0812 55.5551 83.3794 55.7174 83.7025 55.7479L83.7043 55.7482H83.8185C84.1294 55.7512 84.4297 55.6314 84.6585 55.413C84.8872 55.1947 85.0272 54.8943 85.05 54.5729C85.156 53.3976 85.205 52.2054 85.205 51.0217V50.8526C85.2028 50.5177 85.073 50.1973 84.8438 49.9613C84.6146 49.7253 84.3046 49.5928 83.9816 49.5928ZM41.0253 86.8293C39.9651 86.6432 38.913 86.4065 37.8935 86.0852C37.736 86.0275 37.5687 86.0039 37.402 86.0158C37.2353 86.0277 37.0728 86.0748 36.9243 86.1544C36.7759 86.2339 36.6447 86.3441 36.539 86.4781C36.4332 86.6122 36.355 86.7673 36.3092 86.9339C36.2635 87.1005 36.2511 87.2751 36.2729 87.4468C36.2947 87.6186 36.3502 87.7839 36.436 87.9325C36.5218 88.0811 36.636 88.21 36.7717 88.3111C36.9073 88.4123 37.0615 88.4835 37.2248 88.5205C38.3176 88.8418 39.4431 89.1208 40.5686 89.366H40.797C41.1193 89.3932 41.439 89.2876 41.6867 89.072C41.9344 88.8565 42.0901 88.5484 42.1202 88.2146C42.1502 87.8808 42.0521 87.5482 41.8472 87.2888C41.6422 87.0295 41.347 86.8644 41.0253 86.8293ZM59.9542 86.4439C59.8475 86.1437 59.6354 85.8963 59.3602 85.7515C59.085 85.6066 58.7672 85.5749 58.4705 85.6627V85.6965C57.4591 86.0432 56.4152 86.3391 55.3794 86.542C55.0646 86.6181 54.7916 86.8201 54.6199 87.104C54.4482 87.3879 54.3917 87.7307 54.4627 88.0576C54.5338 88.3845 54.7266 88.6691 54.9991 88.8492C55.2717 89.0294 55.6019 89.0905 55.9177 89.0194C57.0269 88.7573 58.1442 88.436 59.2289 88.0724C59.3797 88.0148 59.5181 87.9271 59.6361 87.8141C59.7541 87.7011 59.8496 87.5651 59.9169 87.4139C59.9842 87.2627 60.0222 87.0992 60.0286 86.9327C60.035 86.7663 60.0097 86.6002 59.9542 86.4439ZM32.6331 84.0644C31.6626 83.5656 30.7083 83.0244 29.7867 82.4833C29.648 82.3989 29.4947 82.3437 29.3354 82.3208C29.1761 82.2978 29.014 82.3076 28.8584 82.3496C28.7027 82.3916 28.5566 82.465 28.4283 82.5656C28.3001 82.6661 28.1921 82.7919 28.1107 82.9357C28.0293 83.0795 27.9761 83.2385 27.9539 83.4036C27.9318 83.5687 27.9413 83.7368 27.9818 83.8981C28.0223 84.0595 28.0931 84.211 28.1901 84.3439C28.2871 84.4769 28.4084 84.5888 28.5471 84.6732C29.5339 85.2735 30.5534 85.8316 31.5892 86.3642C31.8825 86.5015 32.2161 86.5137 32.518 86.3983C32.8199 86.2828 33.0659 86.0489 33.203 85.747C33.34 85.4451 33.357 85.0995 33.2504 84.7847C33.1438 84.4699 32.9221 84.2112 32.6331 84.0644ZM74.9155 75.9061C74.6797 75.6829 74.3692 75.5642 74.0502 75.5751C73.7311 75.586 73.4289 75.7258 73.2079 75.9646H73.216C72.482 76.8101 71.7072 77.5542 70.9161 78.2898C70.6764 78.5147 70.5322 78.8288 70.515 79.1636C70.4978 79.4983 70.609 79.8265 70.8244 80.0766C71.0397 80.3267 71.3417 80.4782 71.6645 80.4983C71.9873 80.5184 72.3046 80.4053 72.5473 80.1837C73.3628 79.3974 74.2273 78.5603 74.994 77.6979C75.1023 77.5749 75.1862 77.431 75.2409 77.2744C75.2956 77.1178 75.32 76.9515 75.3127 76.7851C75.3054 76.6187 75.2666 76.4555 75.1984 76.3046C75.1303 76.1538 75.0341 76.0184 74.9155 75.9061ZM68.1658 82.2322C68.0804 82.0841 67.9668 81.9557 67.8319 81.8547C67.6969 81.7538 67.5436 81.6824 67.3811 81.645C67.2187 81.6076 67.0506 81.6049 66.8872 81.6371C66.7237 81.6694 66.5683 81.7358 66.4305 81.8325V81.7987C65.5333 82.3905 64.5954 82.9486 63.6493 83.4897C63.3622 83.6442 63.1457 83.9104 63.0473 84.2299C62.949 84.5495 62.9766 84.8965 63.1244 85.1949C63.2721 85.4933 63.5278 85.719 63.8356 85.8225C64.1433 85.926 64.4781 85.8989 64.7667 85.7472C65.778 85.2061 66.7812 84.6058 67.7435 83.9716C67.8814 83.8862 68.0017 83.7734 68.0976 83.6397C68.1934 83.506 68.263 83.3541 68.3022 83.1926C68.3414 83.0311 68.3495 82.8631 68.3261 82.6983C68.3027 82.5336 68.2482 82.3752 68.1658 82.2322Z" fill="#243F8B" style="fill:#243F8B;fill:color(display-p3 0.1412 0.2471 0.5451);fill-opacity:1;"/>
</svg>
