<svg width="100" height="100" viewBox="0 0 100 100" fill="none" xmlns="http://www.w3.org/2000/svg">
<path d="M37.7197 49.9998C37.7197 45.7762 39.7181 41.8681 42.9579 39.4955L42.3156 39.3152C41.7845 39.1662 41.4691 38.596 41.6119 38.0414C41.7546 37.4868 42.3007 37.1592 42.8318 37.3065L45.8426 38.1488C45.9689 38.1842 46.0873 38.2452 46.191 38.3284C46.2948 38.4116 46.3818 38.5153 46.4471 38.6336C46.5125 38.7518 46.5549 38.8824 46.5719 39.0178C46.5889 39.1532 46.5802 39.2908 46.5463 39.4227L45.7397 42.5665C45.683 42.7875 45.5581 42.9829 45.3844 43.1223C45.2107 43.2617 44.9978 43.3374 44.7787 43.3378C44.694 43.3378 44.6061 43.3256 44.5198 43.3014C44.3935 43.266 44.2751 43.205 44.1713 43.1218C44.0676 43.0386 43.9806 42.9349 43.9152 42.8166C43.8499 42.6984 43.8075 42.5678 43.7905 42.4324C43.7735 42.297 43.7821 42.1594 43.816 42.0275L44.0119 41.2632C41.6168 43.0587 40.0517 45.8629 39.7629 48.9582H40.5347C41.0841 48.9582 41.5305 49.4244 41.5305 49.9981C41.5305 50.5718 41.0841 51.038 40.5347 51.038H39.7612C40.2326 56.1333 44.1247 60.1975 49.0045 60.6897V59.882C49.0045 59.3084 49.4509 58.8422 50.0003 58.8422C50.5497 58.8422 50.9962 59.3084 50.9962 59.882V60.6897C55.8759 60.1975 59.768 56.1333 60.2394 51.038H59.4659C58.9166 51.038 58.4701 50.5718 58.4701 49.9981C58.4701 49.4244 58.9166 48.9582 59.4659 48.9582H60.2411C60.0203 46.5648 59.0444 44.3291 57.4361 42.5735C57.3456 42.4749 57.2746 42.3586 57.2273 42.2313C57.1799 42.1041 57.157 41.9683 57.1599 41.8318C57.1629 41.6953 57.1915 41.5607 57.2443 41.4358C57.2971 41.3109 57.373 41.198 57.4676 41.1038C57.562 41.0093 57.6734 40.9352 57.7952 40.8858C57.9171 40.8363 58.0471 40.8124 58.1779 40.8155C58.3086 40.8185 58.4375 40.8485 58.5571 40.9036C58.6767 40.9587 58.7848 41.0379 58.8751 41.1367C61.0709 43.5336 62.2809 46.6809 62.2809 49.9998C62.2809 57.0709 56.7721 62.8231 50.0003 62.8231C43.2285 62.8231 37.7197 57.0709 37.7197 49.9998ZM46.7123 45.0951L49.4642 47.9686C49.6352 47.9184 49.8144 47.8906 50.0003 47.8906C50.1862 47.8906 50.3655 47.9184 50.5364 47.9686L54.8485 43.466C55.2369 43.0605 55.8676 43.0605 56.2576 43.466C56.4441 43.661 56.5489 43.9253 56.5489 44.2008C56.5489 44.4764 56.4441 44.7407 56.2576 44.9357L51.9456 49.4383C51.992 49.6168 52.0202 49.804 52.0202 49.9981C52.0202 51.161 51.114 52.1073 50.0003 52.1073C48.8866 52.1073 47.9804 51.161 47.9804 49.9981C47.9804 49.804 48.0069 49.6168 48.0551 49.4383L45.3032 46.5648C45.1167 46.3698 45.0119 46.1055 45.0119 45.83C45.0119 45.5544 45.1167 45.2901 45.3032 45.0951C45.6916 44.6896 46.3223 44.6896 46.7123 45.0951ZM49.9721 49.9998C49.9721 50.0293 50.0269 50.0293 50.0269 49.9998C50.0269 49.986 50.0136 49.9704 49.9986 49.9704C49.987 49.9704 49.9721 49.986 49.9721 49.9998ZM89.2919 75.2547L83.5707 81.2461C83.0993 81.74 82.4902 82 81.8628 82C81.5474 82 81.2271 81.9341 80.9184 81.8007C79.9906 81.4003 79.4146 80.5009 79.4146 79.4523V78.5667H10.9959C10.4465 78.5667 10 78.1005 10 77.5268V69.3951C10 68.8214 10.4465 68.3552 10.9959 68.3552H29.0773C25.3844 63.7677 23.0441 57.9548 22.7072 51.5926L20.0764 48.8525C19.366 48.1125 19.1619 47.0518 19.5453 46.083C19.9287 45.1142 20.7901 44.5128 21.7943 44.5128H23.147C25.5254 31.7571 36.0234 22.1869 48.4966 21.478L51.0974 18.7536C51.8061 18.0118 52.8219 17.7986 53.7497 18.199C54.6775 18.5993 55.2535 19.4988 55.2535 20.5474V21.9598C67.4693 24.4434 76.6345 35.4053 77.3134 48.4296L79.9225 51.1454C80.6329 51.8855 80.8371 52.9461 80.4537 53.9149C80.0703 54.8837 79.2088 55.4851 78.2047 55.4851H76.852C75.9657 60.2512 73.949 64.6446 70.9598 68.3535H79.413V67.4679C79.413 66.4193 79.9889 65.5198 80.9167 65.1195C81.8445 64.7191 82.8603 64.9306 83.569 65.6741L89.2902 71.6655C90.2363 72.6551 90.2363 74.2651 89.2919 75.2547ZM78.5184 52.6203L72.7806 46.6463C72.6977 46.5601 72.5855 46.5118 72.4685 46.5118C72.3516 46.5118 72.2394 46.5601 72.1565 46.6463L66.4187 52.6203C66.2843 52.7607 66.2494 52.9392 66.3224 53.1229C66.3955 53.3066 66.5399 53.4089 66.7307 53.4089H68.0851C68.3888 53.4089 68.676 53.5545 68.8652 53.8023C68.9586 53.9251 69.0241 54.0685 69.0569 54.2216C69.0897 54.3746 69.0888 54.5335 69.0544 54.6862C68.0635 59.0969 65.6436 63.0952 62.2411 65.9462C61.1137 66.8884 59.8896 67.6969 58.5913 68.357H68.281C71.8727 64.4592 74.208 59.6047 75.0362 54.2824C75.1142 53.7798 75.5308 53.4089 76.0188 53.4089H78.2063C78.3972 53.4089 78.5416 53.3083 78.6146 53.1229C78.6877 52.9392 78.6528 52.7607 78.5184 52.6203ZM34.9894 48.8525L32.4782 51.4678C33.1969 60.9739 40.8102 68.3552 50.002 68.3552C57.7813 68.3552 64.51 63.1282 66.7822 55.4869H66.7307C65.7266 55.4869 64.8652 54.8855 64.4818 53.9167C64.0983 52.9479 64.3025 51.8872 65.0129 51.1472L67.5208 48.5354C66.9548 41.0934 62.0319 34.6965 55.2568 32.4798V32.5318C55.2568 33.5803 54.6808 34.4798 53.753 34.8802C52.8252 35.2805 51.8095 35.0691 51.1007 34.3256L48.5995 31.7051C41.4724 32.2961 35.3463 37.4365 33.2234 44.5111H33.2732C34.2774 44.5111 35.1388 45.1125 35.5222 46.0813C35.9023 47.0518 35.6998 48.1125 34.9894 48.8525ZM46.787 26.2129C46.7049 26.2996 46.6588 26.4167 46.6588 26.5387C46.6588 26.6607 46.7049 26.7778 46.787 26.8645L52.5082 32.8559C52.6427 32.9963 52.8136 33.0327 52.9895 32.9564C53.1655 32.8802 53.2634 32.7294 53.2634 32.5301V31.1159C53.2634 30.7987 53.4028 30.4989 53.6402 30.3013C53.7578 30.2038 53.8951 30.1353 54.0417 30.1011C54.1883 30.0669 54.3404 30.0678 54.4867 30.1037C58.5348 31.0951 62.251 33.4781 64.9515 36.8126C67.2602 39.6653 68.744 43.0379 69.31 46.6705L70.749 45.1714C71.6967 44.1853 73.2387 44.1853 74.1847 45.1714L75.091 46.1142C73.4943 34.8559 65.0345 25.7103 54.0983 23.8559C53.8649 23.8162 53.6527 23.6913 53.4995 23.5033C53.3462 23.3154 53.262 23.0767 53.2617 22.8299V20.5474C53.2617 20.348 53.1655 20.1973 52.9879 20.121C52.812 20.0448 52.641 20.0811 52.5066 20.2215L46.787 26.2129ZM21.4822 47.3794L23.9984 49.9998H24.6557C24.6557 50.2321 24.659 50.4626 24.664 50.6931L27.2201 53.3534C27.3031 53.4392 27.4153 53.4873 27.5321 53.4873C27.6489 53.4873 27.761 53.4392 27.8441 53.3534L33.5819 47.3794C33.7164 47.239 33.7512 47.0605 33.6782 46.8768C33.6052 46.6931 33.4608 46.5908 33.2699 46.5908H31.9155C31.6118 46.5908 31.3246 46.4452 31.1354 46.1974C31.042 46.0745 30.9765 45.9312 30.9437 45.7781C30.9109 45.625 30.9118 45.4662 30.9462 45.3135C31.8956 41.0865 34.1778 37.206 37.3712 34.3862C40.1031 31.9755 43.333 30.4261 46.8119 29.8351L45.3762 28.3325C44.4318 27.3429 44.4318 25.7328 45.3762 24.7449L46.2791 23.7987C35.4973 25.4659 26.7387 34.2996 24.9628 45.7191C24.9248 45.9627 24.8052 46.1843 24.6252 46.3443C24.4452 46.5043 24.2166 46.5923 23.9802 46.5925H21.7943C21.6034 46.5925 21.459 46.6931 21.386 46.8785C21.313 47.0605 21.3478 47.239 21.4822 47.3794ZM39.7778 76.4852C36.4533 75.078 33.4541 73.0086 30.9263 70.4332H11.9917V76.4852H39.7778ZM87.8811 73.1351L82.1599 67.1438C82.0255 67.0034 81.8545 66.967 81.6786 67.0433C81.5026 67.1195 81.4047 67.2703 81.4047 67.4696V69.3951C81.4047 69.9687 80.9582 70.4349 80.4088 70.4349H50.0003C40.3222 70.4349 32.2159 63.0831 30.689 53.3291L29.2499 54.8266C28.7769 55.3188 28.1545 55.5666 27.5321 55.5666C26.9097 55.5666 26.2873 55.3205 25.8142 54.8266L24.9329 53.9097C26.7487 66.6672 37.3064 76.4852 50.0219 76.4852H80.4088C80.9582 76.4852 81.4047 76.9514 81.4047 77.5251V79.4506C81.4047 79.6499 81.501 79.8007 81.6786 79.8769C81.8545 79.9532 82.0255 79.9168 82.1599 79.7764L87.8811 73.785C87.9632 73.6986 88.0093 73.5818 88.0093 73.4601C88.0093 73.3384 87.9632 73.2215 87.8811 73.1351Z" fill="#243F8B" style="fill:#243F8B;fill:color(display-p3 0.1412 0.2471 0.5451);fill-opacity:1;"/>
</svg>
