<svg width="100" height="100" viewBox="0 0 100 100" fill="none" xmlns="http://www.w3.org/2000/svg">
<path d="M49.9998 38.5999C51.7017 38.5996 53.3828 38.9895 54.9243 39.7419C56.4658 40.4943 57.8301 41.5909 58.9208 42.9541L60.4851 41.7994C58.5492 39.3286 55.869 37.6141 52.8806 36.935C49.8922 36.2559 46.7715 36.6522 44.0264 38.0593C41.2812 39.4663 39.0732 41.8014 37.7617 44.6845C36.4502 47.5676 36.1124 50.8291 36.8032 53.938C37.494 57.047 39.1728 59.8205 41.5664 61.8071C43.96 63.7938 46.9275 64.8767 49.9859 64.8797C53.0444 64.8826 56.0137 63.8054 58.4108 61.8233C60.8079 59.8412 62.4916 57.071 63.1879 53.9633L60.5227 55.9335C59.6326 57.8996 58.2529 59.5802 56.5279 60.8C54.8028 62.0198 52.7956 62.734 50.7157 62.868C48.6359 63.002 46.5597 62.5509 44.7039 61.5618C42.8482 60.5727 41.2809 59.0819 40.1658 57.245C39.0507 55.4081 38.4286 53.2925 38.3645 51.1192C38.3004 48.9458 38.7966 46.7943 39.8013 44.8893C40.806 42.9843 42.2825 41.3958 44.0764 40.2894C45.8703 39.1831 47.916 38.5996 49.9998 38.5999Z" fill="#4264AA" style="fill:#4264AA;fill:color(display-p3 0.2588 0.3922 0.6667);fill-opacity:1;"/>
<path d="M52.5543 50.0666C52.5159 50.0095 52.4788 49.9515 52.4429 49.8927L48.7133 44.6231C48.4757 44.2719 48.161 43.9852 47.7953 43.7869C47.4297 43.5887 47.0239 43.4847 46.6119 43.4837C46.0681 43.4831 45.5384 43.6642 45.1005 44.0005L43.4486 45.2606C42.895 45.6896 42.5245 46.3278 42.4168 47.0385C42.3091 47.7492 42.4727 48.4756 42.8724 49.0619C42.9186 49.1285 47.55 55.7024 49.5729 58.6987C49.78 59.0048 50.0546 59.2545 50.3734 59.4269C50.6923 59.5993 51.0461 59.6894 51.4053 59.6895C51.8956 59.6854 52.3731 59.5221 52.7705 59.2224C57.9657 55.3928 79.3962 39.5454 79.4081 39.5369C79.9601 39.1101 80.3304 38.4752 80.4399 37.7675C80.5494 37.0598 80.3895 36.3355 79.9943 35.7491L78.8053 33.9965C78.5677 33.6453 78.253 33.3586 77.8875 33.1603C77.522 32.9621 77.1163 32.8581 76.7043 32.8572C76.1654 32.8558 75.64 33.0335 75.2043 33.3645L53.1433 49.6557C52.9553 49.8051 52.7585 49.9424 52.5543 50.0666ZM76.3157 34.9789C76.4608 34.8719 76.6405 34.8293 76.8156 34.8603C76.9907 34.8913 77.1469 34.9934 77.25 35.1444L78.4395 36.8969C78.5475 37.0543 78.5927 37.2493 78.5658 37.4408C78.5389 37.6323 78.4419 37.8055 78.2953 37.924C78.2953 37.924 56.8667 53.77 51.6714 57.599C51.5951 57.661 51.5023 57.6969 51.4057 57.7019C51.3519 57.7012 51.299 57.6875 51.2511 57.6618C51.2033 57.6361 51.1618 57.5991 51.13 57.5538C49.0967 54.5416 44.4538 47.9508 44.4167 47.8997C44.3081 47.7401 44.2636 47.5425 44.2928 47.3492C44.322 47.1559 44.4225 46.9821 44.5729 46.8651L46.2252 45.6045C46.3372 45.5181 46.4727 45.4715 46.6119 45.4713C46.7226 45.4722 46.8315 45.5015 46.9288 45.5566C47.0261 45.6117 47.1089 45.691 47.17 45.7873L50.8529 50.9874C51.0618 51.3493 51.3233 51.6752 51.6281 51.9533C51.8347 52.1127 52.0855 52.1974 52.3424 52.1943C52.9724 52.1943 53.7567 51.6711 54.2738 51.2552L76.3157 34.9789ZM80.9029 15.9617C81.1853 15.9719 81.4642 15.8944 81.7044 15.7392C81.9446 15.5839 82.1353 15.3578 82.2523 15.0894C82.3693 14.821 82.4075 14.5225 82.3619 14.2315C82.3163 13.9405 82.1891 13.6702 81.9963 13.4547C81.8035 13.2392 81.5537 13.0882 81.2787 13.0207C81.0036 12.9533 80.7155 12.9726 80.4509 13.076C80.1863 13.1794 79.9571 13.3624 79.7921 13.6018C79.6272 13.8412 79.534 14.1262 79.5243 14.4209C79.5117 14.8158 79.6498 15.1999 79.9082 15.4888C80.1667 15.7777 80.5244 15.9477 80.9029 15.9617ZM80.9767 13.7272C81.1179 13.7323 81.2544 13.781 81.3691 13.8671C81.4838 13.9532 81.5714 14.0728 81.621 14.2109C81.6705 14.349 81.6796 14.4993 81.6473 14.6428C81.6149 14.7863 81.5425 14.9165 81.4392 15.0171C81.3359 15.1177 81.2064 15.184 81.0669 15.2077C80.9275 15.2315 80.7845 15.2115 80.6559 15.1504C80.5273 15.0893 80.419 14.9898 80.3446 14.8644C80.2703 14.7391 80.2332 14.5935 80.2381 14.4462C80.2448 14.2488 80.3263 14.0622 80.4647 13.9274C80.603 13.7926 80.787 13.7206 80.9762 13.7272H80.9767ZM44.7614 12.9814C45.044 12.9814 45.3202 12.8939 45.5551 12.7301C45.79 12.5663 45.9731 12.3335 46.0813 12.0611C46.1894 11.7888 46.2177 11.489 46.1626 11.1999C46.1074 10.9107 45.9714 10.6451 45.7716 10.4366C45.5718 10.2281 45.3173 10.0862 45.0401 10.0286C44.763 9.97113 44.4758 10.0006 44.2148 10.1135C43.9537 10.2263 43.7306 10.4174 43.5736 10.6625C43.4167 10.9076 43.3329 11.1959 43.3329 11.4907C43.3332 11.8859 43.4839 12.2648 43.7517 12.5443C44.0195 12.8238 44.3827 12.981 44.7614 12.9814ZM44.7614 10.7453C44.9027 10.7453 45.0408 10.7891 45.1583 10.871C45.2757 10.9529 45.3673 11.0693 45.4214 11.2055C45.4754 11.3416 45.4896 11.4915 45.462 11.6361C45.4344 11.7807 45.3664 11.9135 45.2665 12.0177C45.1666 12.122 45.0393 12.1929 44.9008 12.2217C44.7622 12.2505 44.6186 12.2357 44.4881 12.1793C44.3576 12.1229 44.246 12.0273 44.1675 11.9048C44.089 11.7822 44.0472 11.6381 44.0472 11.4907C44.0473 11.293 44.1226 11.1035 44.2565 10.9638C44.3904 10.824 44.572 10.7455 44.7614 10.7453ZM85.2376 36.3354C85.2376 36.1389 85.1818 35.9467 85.0771 35.7833C84.9725 35.6199 84.8237 35.4925 84.6497 35.4173C84.4757 35.3421 84.2842 35.3224 84.0995 35.3607C83.9147 35.3991 83.745 35.4937 83.6118 35.6327C83.4786 35.7717 83.3879 35.9488 83.3512 36.1415C83.3144 36.3343 83.3333 36.5341 83.4054 36.7157C83.4774 36.8973 83.5995 37.0525 83.7561 37.1617C83.9128 37.2709 84.0969 37.3292 84.2853 37.3292C84.5378 37.3289 84.7799 37.2242 84.9584 37.0378C85.137 36.8515 85.2374 36.5989 85.2376 36.3354ZM83.8091 36.3354C83.8091 36.2371 83.837 36.1411 83.8893 36.0594C83.9416 35.9776 84.016 35.914 84.103 35.8763C84.19 35.8387 84.2858 35.8289 84.3782 35.8481C84.4705 35.8672 84.5554 35.9146 84.622 35.9841C84.6886 36.0536 84.7339 36.1421 84.7523 36.2385C84.7707 36.3349 84.7612 36.4348 84.7252 36.5256C84.6892 36.6164 84.6281 36.694 84.5498 36.7486C84.4715 36.8032 84.3794 36.8323 84.2853 36.8323C84.159 36.8322 84.0379 36.7798 83.9487 36.6866C83.8594 36.5935 83.8092 36.4672 83.8091 36.3354ZM62.3805 18.9441C62.5689 18.9441 62.753 18.8858 62.9096 18.7766C63.0662 18.6674 63.1883 18.5122 63.2604 18.3306C63.3325 18.149 63.3513 17.9492 63.3146 17.7564C63.2778 17.5637 63.1871 17.3866 63.0539 17.2476C62.9207 17.1086 62.751 17.014 62.5663 16.9756C62.3815 16.9373 62.1901 16.957 62.016 17.0322C61.842 17.1074 61.6933 17.2348 61.5886 17.3982C61.484 17.5616 61.4281 17.7538 61.4281 17.9503C61.4284 18.2138 61.5288 18.4664 61.7073 18.6527C61.8859 18.8391 62.128 18.9438 62.3805 18.9441ZM62.3805 17.4534C62.4747 17.4534 62.5667 17.4826 62.645 17.5372C62.7234 17.5918 62.7844 17.6694 62.8204 17.7602C62.8565 17.851 62.8659 17.9509 62.8475 18.0473C62.8292 18.1436 62.7838 18.2322 62.7172 18.3017C62.6506 18.3712 62.5658 18.4185 62.4734 18.4377C62.381 18.4568 62.2853 18.447 62.1983 18.4094C62.1112 18.3718 62.0369 18.3081 61.9846 18.2264C61.9322 18.1447 61.9043 18.0486 61.9043 17.9503C61.9044 17.8186 61.9546 17.6923 62.0439 17.5991C62.1332 17.5059 62.2542 17.4536 62.3805 17.4534ZM32.8567 23.9131C33.045 23.9131 33.2292 23.8548 33.3858 23.7456C33.5424 23.6364 33.6645 23.4812 33.7366 23.2996C33.8086 23.118 33.8275 22.9182 33.7908 22.7254C33.754 22.5326 33.6633 22.3555 33.5301 22.2165C33.3969 22.0776 33.2272 21.9829 33.0425 21.9446C32.8577 21.9062 32.6662 21.9259 32.4922 22.0011C32.3182 22.0763 32.1695 22.2037 32.0648 22.3671C31.9602 22.5306 31.9043 22.7227 31.9043 22.9193C31.9045 23.1828 32.005 23.4354 32.1835 23.6217C32.3621 23.808 32.6042 23.9128 32.8567 23.9131ZM32.8567 22.4224C32.9509 22.4224 33.0429 22.4515 33.1212 22.5061C33.1995 22.5607 33.2606 22.6383 33.2966 22.7291C33.3327 22.8199 33.3421 22.9198 33.3237 23.0162C33.3053 23.1126 33.26 23.2011 33.1934 23.2706C33.1268 23.3401 33.042 23.3874 32.9496 23.4066C32.8572 23.4258 32.7615 23.4159 32.6744 23.3783C32.5874 23.3407 32.5131 23.277 32.4607 23.1953C32.4084 23.1136 32.3805 23.0175 32.3805 22.9193C32.3806 22.7875 32.4308 22.6612 32.5201 22.5681C32.6094 22.4749 32.7304 22.4225 32.8567 22.4224Z" fill="#4264AA" style="fill:#4264AA;fill:color(display-p3 0.2588 0.3922 0.6667);fill-opacity:1;"/>
<path d="M10.9524 82.5467C11.4784 82.5467 11.9048 82.1017 11.9048 81.5529C11.9048 81.004 11.4784 80.5591 10.9524 80.5591C10.4264 80.5591 10 81.004 10 81.5529C10 82.1017 10.4264 82.5467 10.9524 82.5467Z" fill="#243F8B" style="fill:#243F8B;fill:color(display-p3 0.1412 0.2471 0.5451);fill-opacity:1;"/>
<path d="M15.2384 80.5591H13.8098C13.5572 80.5591 13.315 80.6638 13.1364 80.8502C12.9578 81.0365 12.8574 81.2893 12.8574 81.5529C12.8574 81.8164 12.9578 82.0692 13.1364 82.2556C13.315 82.442 13.5572 82.5467 13.8098 82.5467H15.2384C15.491 82.5467 15.7332 82.442 15.9118 82.2556C16.0904 82.0692 16.1908 81.8164 16.1908 81.5529C16.1908 81.2893 16.0904 81.0365 15.9118 80.8502C15.7332 80.6638 15.491 80.5591 15.2384 80.5591ZM86.1908 80.5591H84.7622C84.5096 80.5591 84.2674 80.6638 84.0888 80.8502C83.9101 81.0365 83.8098 81.2893 83.8098 81.5529C83.8098 81.8164 83.9101 82.0692 84.0888 82.2556C84.2674 82.442 84.5096 82.5467 84.7622 82.5467H86.1908C86.4433 82.5467 86.6856 82.442 86.8642 82.2556C87.0428 82.0692 87.1431 81.8164 87.1431 81.5529C87.1431 81.2893 87.0428 81.0365 86.8642 80.8502C86.6856 80.6638 86.4433 80.5591 86.1908 80.5591Z" fill="#243F8B" style="fill:#243F8B;fill:color(display-p3 0.1412 0.2471 0.5451);fill-opacity:1;"/>
<path d="M89.0481 82.5467C89.5741 82.5467 90.0005 82.1017 90.0005 81.5529C90.0005 81.004 89.5741 80.5591 89.0481 80.5591C88.5221 80.5591 88.0957 81.004 88.0957 81.5529C88.0957 82.1017 88.5221 82.5467 89.0481 82.5467Z" fill="#243F8B" style="fill:#243F8B;fill:color(display-p3 0.1412 0.2471 0.5451);fill-opacity:1;"/>
<path d="M81.7713 80.559H54.8408C54.9972 80.1966 55.0785 79.8037 55.0794 79.4062V74.9054C57.8146 74.2808 60.4212 73.1526 62.777 71.5737L65.8304 74.7588C66.096 75.0322 66.4111 75.2478 66.7573 75.3929C67.1035 75.538 67.4739 75.6098 67.847 75.604C68.7915 75.5896 69.6924 75.1863 70.3532 74.482L72.7465 71.9841C74.0689 70.6018 74.1894 68.49 73.0132 67.2641L69.9608 64.079C71.4736 61.6204 72.5545 58.9001 73.1527 56.0457H77.4656C79.1284 56.0457 80.4756 54.4636 80.4756 52.5118V48.9814C80.4756 47.0276 79.128 45.445 77.4656 45.445H74.7118L72.0237 47.4326H77.4656C78.0642 47.4326 78.5708 48.1421 78.5708 48.9814V52.5123C78.5708 53.3506 78.0642 54.0586 77.4656 54.0586H71.6184L71.2918 55.6229C70.7427 58.2471 69.7486 60.7478 68.3565 63.0072L67.5294 64.3538L68.6137 65.4852L71.667 68.6713C71.759 68.775 71.8288 68.8979 71.8715 69.0319C71.9143 69.166 71.9292 69.308 71.9151 69.4485C71.8791 69.8779 71.696 70.2794 71.3994 70.5794L69.008 73.0758C68.7037 73.408 68.2867 73.6024 67.8465 73.6174C67.7238 73.6218 67.6014 73.6007 67.4865 73.5554C67.3715 73.5101 67.2664 73.4415 67.177 73.3536L64.1237 70.1685L63.0399 69.038L61.7494 69.9011C59.5842 71.3533 57.1878 72.3904 54.6732 72.9635L53.1746 73.3049V79.4067C53.1746 80.0313 52.4956 80.5595 51.6918 80.5595H48.3075C47.5037 80.5595 46.8246 80.0313 46.8246 79.4067V73.3044L45.3256 72.963C42.8109 72.3901 40.4145 71.353 38.2494 69.9006L36.9589 69.0375L35.8751 70.1685L32.8208 73.3551C32.7314 73.4424 32.6263 73.5105 32.5115 73.5554C32.3968 73.6002 32.2747 73.621 32.1523 73.6164C31.713 73.6016 31.2968 73.4079 30.9927 73.0768L28.6004 70.5794C28.3033 70.2796 28.1198 69.8781 28.0837 69.4485C28.0698 69.3076 28.0849 69.1652 28.1281 69.031C28.1712 68.8967 28.2413 68.7736 28.3337 68.6698L31.3861 65.4847L32.4694 64.3538L31.6427 63.0072C30.2507 60.7476 29.2567 58.2467 28.7075 55.6224L28.3808 54.0586H22.5327C21.9337 54.0586 21.4275 53.3501 21.4275 52.5118V48.9814C21.4275 48.1416 21.9337 47.4326 22.5332 47.4326H28.3803L28.707 45.8688C29.256 43.2449 30.2501 40.7444 31.6423 38.4855L32.4694 37.1389L31.3856 36.0075L28.3313 32.8204C28.2477 32.7273 28.1826 32.618 28.1396 32.4986C28.0966 32.3792 28.0767 32.2522 28.0808 32.1247C28.0947 31.6659 28.2807 31.2312 28.5989 30.9143L30.9913 28.4169C31.2955 28.0844 31.7125 27.8898 32.1527 27.8748C32.2754 27.8704 32.3977 27.8914 32.5125 27.9366C32.6273 27.9818 32.7324 28.0503 32.8218 28.1381L35.8742 31.3232L36.9584 32.4537L38.2489 31.5906C40.4139 30.1382 42.8104 29.1016 45.3251 28.5297L46.8242 28.1893V22.0845C46.8242 21.4594 47.5032 20.9317 48.307 20.9317H51.6913C52.4951 20.9317 53.1742 21.4594 53.1742 22.0845V28.1888L54.6732 28.5292C57.1877 29.1013 59.584 30.1379 61.7489 31.5901L63.0394 32.4532L64.1232 31.3227L67.1784 28.1357C67.2676 28.0484 67.3724 27.9804 67.4868 27.9355C67.6012 27.8907 67.723 27.8698 67.8451 27.8743C68.2849 27.8892 68.7015 28.0835 69.0056 28.4154L71.3989 30.9143C71.6955 31.2135 71.8786 31.6144 71.9146 32.0432C71.9287 32.184 71.9137 32.3263 71.8708 32.4606C71.8278 32.5949 71.7579 32.7181 71.6656 32.8219L69.3037 35.287L73.817 31.9538C73.7616 31.0287 73.3799 30.1579 72.7456 29.5091L70.3527 27.0102C69.6918 26.3049 68.7904 25.901 67.8451 25.8867C67.4723 25.8811 67.1021 25.9529 66.7561 26.098C66.4101 26.2431 66.0953 26.4586 65.8299 26.7319L62.7765 29.917C60.4208 28.3384 57.8141 27.211 55.0789 26.5878V22.0845C55.0789 20.3503 53.5623 18.9441 51.6913 18.9441H48.307C46.4356 18.9441 44.9194 20.3503 44.9194 22.0845V26.5873C42.184 27.2105 39.5772 28.3379 37.2213 29.9165L34.1689 26.7314C33.9033 26.4581 33.5883 26.2427 33.2422 26.0977C32.896 25.9526 32.5257 25.8809 32.1527 25.8867C31.2075 25.9009 30.306 26.3048 29.6451 27.0102L27.2518 29.5086C25.9294 30.8889 25.8089 33.0017 26.9861 34.2271L30.0384 37.4122C28.5254 39.8704 27.4444 42.5904 26.8461 45.4445H22.5332C20.8699 45.4445 19.5227 47.0271 19.5227 48.9809V52.5118C19.5227 54.4636 20.8704 56.0457 22.5332 56.0457H26.8461C27.4445 58.9001 28.5256 61.6203 30.0384 64.079L26.9861 67.2641C25.8089 68.49 25.9294 70.6018 27.2518 71.9841L29.6451 74.482C30.3061 75.1864 31.2071 75.5897 32.1518 75.604C32.5248 75.6098 32.8952 75.5381 33.2414 75.3931C33.5877 75.248 33.9028 75.0326 34.1684 74.7593L37.2213 71.5742C39.5773 73.153 42.1841 74.281 44.9194 74.9054V79.4062C44.9203 79.8037 45.0016 80.1966 45.158 80.559H18.2275C18.092 80.5406 17.9543 80.5525 17.8236 80.594C17.6928 80.6354 17.5721 80.7056 17.4694 80.7996C17.3667 80.8937 17.2845 81.0095 17.2281 81.1394C17.1717 81.2693 17.1426 81.4102 17.1426 81.5528C17.1426 81.6954 17.1717 81.8363 17.2281 81.9662C17.2845 82.0961 17.3667 82.212 17.4694 82.306C17.5721 82.4001 17.6928 82.4702 17.8236 82.5117C17.9543 82.5532 18.092 82.5651 18.2275 82.5466H81.7708C81.9063 82.5651 82.044 82.5532 82.1748 82.5117C82.3055 82.4702 82.4262 82.4001 82.5289 82.306C82.6316 82.212 82.7139 82.0961 82.7702 81.9662C82.8266 81.8363 82.8557 81.6954 82.8557 81.5528C82.8557 81.4102 82.8266 81.2693 82.7702 81.1394C82.7139 81.0095 82.6316 80.8937 82.5289 80.7996C82.4262 80.7056 82.3055 80.6354 82.1748 80.594C82.044 80.5525 81.9068 80.5406 81.7713 80.559Z" fill="#243F8B" style="fill:#243F8B;fill:color(display-p3 0.1412 0.2471 0.5451);fill-opacity:1;"/>
<path d="M15.9917 34.3532L16.6998 33.3818L16.2526 33.1175L15.7983 34.2057H15.7831L15.3212 33.1249L14.8664 33.3972L15.5669 34.3458V34.3612L14.4717 34.2136V34.7423L15.5745 34.5947V34.6101L14.8664 35.5582L15.2912 35.8385L15.776 34.7423H15.7903L16.2374 35.8305L16.7069 35.5508L15.9917 34.6176V34.6022L17.1164 34.7423V34.2136L15.9917 34.3686V34.3532ZM18.7103 14.8635L19.1574 14.3378L18.9117 14.1654L18.605 14.7696L18.5964 14.7691L18.3769 14.1276L18.1041 14.2628L18.4664 14.8397L18.466 14.8486L17.8431 14.7135L17.8207 15.0171L18.4603 14.9828L18.4598 14.9917L18.0131 15.504L18.2455 15.6839L18.5698 15.0767L18.5779 15.0772L18.7893 15.7227L19.0703 15.5835L18.6988 15.0151L18.6998 15.0062L19.3398 15.1378L19.3617 14.8347L18.7093 14.8725L18.7103 14.8635ZM84.2393 22.4626L84.3074 21.9488L83.1945 21.9423L83.1964 21.9274L84.0093 21.0822L83.6088 20.7632L83.0274 21.757L83.0126 21.7545L82.7031 20.6399L82.226 20.8407L82.785 21.8608L82.7826 21.8757L81.7374 21.5786L81.6693 22.0924L82.7598 22.1033L82.7579 22.1182L81.9479 22.9406L82.3245 23.2725L82.9364 22.2747L82.9507 22.2767L83.2455 23.3972L83.7374 23.191L83.1626 22.1843L83.1645 22.1694L84.2393 22.4626ZM67.3536 11.7818L67.9526 10.9594L67.5745 10.7358L67.1898 11.6566H67.1774L66.7864 10.7423L66.4017 10.9729L66.9945 11.7753V11.7883L66.0674 11.6635V12.1107L67.0007 11.9855V11.9989L66.4017 12.8014L66.7607 13.0384L67.1712 12.1107H67.1831L67.5617 13.0315L67.9588 12.795L67.3536 12.0054V11.992L68.3055 12.1107V11.6635L67.3536 11.7947V11.7818ZM66.2636 85.031H62.3074C62.0676 85.0504 61.8436 85.1636 61.6802 85.3478C61.5168 85.532 61.426 85.7738 61.426 86.0248C61.426 86.2758 61.5168 86.5176 61.6802 86.7019C61.8436 86.8861 62.0676 86.9992 62.3074 87.0186H66.2636C66.5034 86.9992 66.7274 86.8861 66.8908 86.7019C67.0542 86.5176 67.145 86.2758 67.145 86.0248C67.145 85.7738 67.0542 85.532 66.8908 85.3478C66.7274 85.1636 66.5034 85.0504 66.2636 85.031ZM37.6922 85.031H33.736C33.4961 85.0504 33.2721 85.1636 33.1087 85.3478C32.9453 85.532 32.8546 85.7738 32.8546 86.0248C32.8546 86.2758 32.9453 86.5176 33.1087 86.7019C33.2721 86.8861 33.4961 86.9992 33.736 87.0186H37.6922C37.932 86.9992 38.156 86.8861 38.3194 86.7019C38.4828 86.5176 38.5736 86.2758 38.5736 86.0248C38.5736 85.7738 38.4828 85.532 38.3194 85.3478C38.156 85.1636 37.932 85.0504 37.6922 85.031ZM59.5236 85.031H40.476C40.2234 85.031 39.9811 85.1357 39.8025 85.3221C39.6239 85.5085 39.5236 85.7613 39.5236 86.0248C39.5236 86.2884 39.6239 86.5412 39.8025 86.7275C39.9811 86.9139 40.2234 87.0186 40.476 87.0186H48.0664V88.0124H44.2855C44.0329 88.0124 43.7907 88.1171 43.6121 88.3035C43.4335 88.4898 43.3331 88.7426 43.3331 89.0062C43.3331 89.2698 43.4335 89.5225 43.6121 89.7089C43.7907 89.8953 44.0329 90 44.2855 90H56.1903C56.4428 90 56.6851 89.8953 56.8637 89.7089C57.0423 89.5225 57.1426 89.2698 57.1426 89.0062C57.1426 88.7426 57.0423 88.4898 56.8637 88.3035C56.6851 88.1171 56.4428 88.0124 56.1903 88.0124H51.9331V87.0186H59.5236C59.7762 87.0186 60.0184 86.9139 60.197 86.7275C60.3756 86.5412 60.476 86.2884 60.476 86.0248C60.476 85.7613 60.3756 85.5085 60.197 85.3221C60.0184 85.1357 59.7762 85.031 59.5236 85.031Z" fill="#9C25A0" style="fill:#9C25A0;fill:color(display-p3 0.6118 0.1451 0.6275);fill-opacity:1;"/>
</svg>
