<svg width="100" height="100" viewBox="0 0 100 100" fill="none" xmlns="http://www.w3.org/2000/svg">
<path d="M83.334 56.0203C79.658 56.0203 76.6673 53.0283 76.6673 49.3537C76.6673 49.0001 76.5268 48.661 76.2768 48.4109C76.0267 48.1609 75.6876 48.0204 75.334 48.0204H24.6673C24.3137 48.0204 23.9746 48.1609 23.7245 48.4109C23.4745 48.661 23.334 49.0001 23.334 49.3537C23.334 53.0283 20.3433 56.0203 16.6673 56.0203C16.3137 56.0203 15.9746 56.1608 15.7245 56.4108C15.4745 56.6609 15.334 57 15.334 57.3536V75.3334C15.334 75.687 15.4745 76.0262 15.7245 76.2762C15.9746 76.5263 16.3137 76.6667 16.6673 76.6667C20.3433 76.6667 23.334 79.6574 23.334 83.3333C23.334 83.687 23.4745 84.0261 23.7245 84.2761C23.9746 84.5262 24.3137 84.6667 24.6673 84.6667H50.0006C50.3543 84.6667 50.6934 84.5262 50.9434 84.2761C51.1935 84.0261 51.334 83.687 51.334 83.3333C51.334 82.9797 51.1935 82.6406 50.9434 82.3905C50.6934 82.1405 50.3543 82 50.0006 82H25.906C25.6148 80.007 24.6882 78.1611 23.2639 76.7368C21.8396 75.3125 19.9937 74.3859 18.0006 74.0948V58.5909C19.9935 58.2999 21.8393 57.3735 23.2636 55.9495C24.6878 54.5254 25.6146 52.6799 25.906 50.687H74.094C74.3855 52.68 75.3124 54.5258 76.7369 55.9498C78.1614 57.3738 80.0075 58.3001 82.0006 58.5909V74.0948C80.0075 74.3859 78.1616 75.3125 76.7373 76.7368C75.3131 78.1611 74.3865 80.007 74.0953 82H55.598C55.2443 82 54.9052 82.1405 54.6552 82.3905C54.4051 82.6406 54.2646 82.9797 54.2646 83.3333C54.2646 83.687 54.4051 84.0261 54.6552 84.2761C54.9052 84.5262 55.2443 84.6667 55.598 84.6667H75.334C75.6876 84.6667 76.0267 84.5262 76.2768 84.2761C76.5268 84.0261 76.6673 83.687 76.6673 83.3333C76.6673 79.6574 79.658 76.6667 83.334 76.6667C83.6876 76.6667 84.0267 76.5263 84.2768 76.2762C84.5268 76.0262 84.6673 75.687 84.6673 75.3334V57.3536C84.6673 57 84.5268 56.6609 84.2768 56.4108C84.0267 56.1608 83.6876 56.0203 83.334 56.0203Z" fill="#243F8B" style="fill:#243F8B;fill:color(display-p3 0.1412 0.2471 0.5451);fill-opacity:1;"/>
<path d="M62 66.3429C62 59.727 56.616 54.343 50 54.343C43.384 54.343 38 59.727 38 66.3429C38 72.9588 43.384 78.3428 50 78.3428C56.616 78.3428 62 72.9602 62 66.3429ZM50 75.6761C44.8533 75.6761 40.6667 71.4895 40.6667 66.3429C40.6667 61.1963 44.8533 57.0097 50 57.0097C55.1467 57.0097 59.3333 61.1963 59.3333 66.3429C59.3333 71.4895 55.1467 75.6761 50 75.6761Z" fill="#4264AA" style="fill:#4264AA;fill:color(display-p3 0.2588 0.3922 0.6667);fill-opacity:1;"/>
<path d="M86 42.6872H81.8533L67.9333 12.3342C67.7158 11.8557 67.4054 11.4253 67.0202 11.0678C66.635 10.7103 66.1826 10.4328 65.6893 10.2515C65.1972 10.0678 64.6736 9.98328 64.1487 10.0027C63.6238 10.0222 63.1079 10.1452 62.6307 10.3648L43.3467 19.2074C43.0251 19.3549 42.7752 19.6241 42.6521 19.9557C42.5289 20.2874 42.5426 20.6545 42.69 20.9761C42.8375 21.2977 43.1067 21.5475 43.4384 21.6707C43.77 21.7938 44.1371 21.7802 44.4587 21.6327L63.7427 12.7902C63.9013 12.7161 64.0732 12.6746 64.2481 12.668C64.423 12.6613 64.5975 12.6897 64.7613 12.7515C65.0947 12.8755 65.3613 13.1221 65.508 13.4461L78.9187 42.6858H76.644L67.452 22.6434C67.304 22.3224 67.0349 22.0732 66.7035 21.9502C66.3721 21.8273 66.0055 21.8406 65.684 21.9874C64.2928 22.6234 62.7061 22.6816 61.2721 22.1492C59.838 21.6167 58.6737 20.5372 58.0347 19.1474C57.887 18.8265 57.618 18.5774 57.2868 18.4546C56.9555 18.3319 56.5891 18.3456 56.268 18.4928L43.0614 24.5487L32.708 18.6114C32.2528 18.3491 31.7502 18.1794 31.2292 18.1121C30.7081 18.0448 30.1789 18.0813 29.672 18.2194C29.1644 18.3556 28.6889 18.5911 28.2728 18.9121C27.8567 19.2332 27.5084 19.6336 27.248 20.0901L14.288 42.6872C11.9854 42.5445 9.9907 44.3671 10 46.6871V86C10 88.2054 11.7947 90 14 90H86C88.2053 90 90 88.2054 90 86V46.6871C90 44.4805 88.2053 42.6872 86 42.6872ZM56.2627 21.4274C57.2518 22.9026 58.6802 24.029 60.3454 24.6469C62.0106 25.2648 63.828 25.3428 65.54 24.87L73.3613 41.9272L45.904 26.178L56.2627 21.4274ZM29.5614 21.4154C29.6485 21.2635 29.7646 21.1302 29.9032 21.0232C30.0418 20.9162 30.2002 20.8376 30.3692 20.7918C30.5382 20.746 30.7146 20.7339 30.8882 20.7563C31.0619 20.7786 31.2295 20.835 31.3814 20.9221L69.324 42.6858H65.1693L38.3067 27.2793C37.9998 27.1041 37.6359 27.0577 37.2948 27.1501C36.9537 27.2426 36.6631 27.4664 36.4867 27.7727C35.724 29.0987 34.4665 30.0681 32.99 30.4683C31.5135 30.8684 29.9386 30.6667 28.6107 29.9073C28.4588 29.82 28.2913 29.7635 28.1176 29.7411C27.9439 29.7186 27.7674 29.7307 27.5984 29.7765C27.4293 29.8223 27.271 29.901 27.1324 30.0081C26.9938 30.1152 26.8777 30.2486 26.7907 30.4006L19.7467 42.6872H17.3614L29.5614 21.4154ZM59.808 42.6858H22.8214L28.4947 32.7926C30.1571 33.4187 31.9744 33.5055 33.6889 33.0407C35.4034 32.5759 36.9281 31.5832 38.0467 30.2033L59.808 42.6858ZM87.3333 86C87.3333 86.7347 86.7347 87.3334 86 87.3334H14C13.2654 87.3334 12.6667 86.7347 12.6667 86V46.6871C12.6667 45.9511 13.2654 45.3538 14 45.3538H86C86.7347 45.3538 87.3333 45.9511 87.3333 46.6871V86Z" fill="#243F8B" style="fill:#243F8B;fill:color(display-p3 0.1412 0.2471 0.5451);fill-opacity:1;"/>
</svg>
